<svg width="176" height="62" viewBox="0 0 176 62" fill="none" xmlns="http://www.w3.org/2000/svg">
<path fill-rule="evenodd" clip-rule="evenodd" d="M26.1525 0.289016C22.8241 0.818761 16.1057 3.48892 13.3509 5.37761C4.05598 11.7491 -0.603562 21.5044 0.0626787 33.1982C0.361243 38.43 0.773152 40.0586 2.87416 44.3014C11.1213 60.9566 30.6586 66.8758 46.7542 57.5942L49.7322 55.877L53.3247 57.9061C58.7479 60.969 64.8574 62.3093 71.3657 61.8646C75.9216 61.5534 77.7696 61.0278 82.3815 58.7346L87.9229 55.9786L91.4213 57.9517C101.642 63.7153 114.416 63.2865 124.311 56.8459C125.988 55.7546 126.196 55.7947 129.495 57.8286C136.055 61.875 144.998 63.079 153.001 60.9939C164.414 58.0202 173.32 48.1417 175.572 35.9583C177.919 23.2534 170.389 8.74834 158.573 3.21506C149.269 -1.14185 140.114 -1.01598 130.787 3.59681L125.875 6.02631L121.109 3.58298C111.891 -1.14185 102.393 -1.13424 92.7732 3.60649L87.8635 6.02631L83.0975 3.59474C77.5927 0.785566 71.0471 -0.484855 65.5589 0.190812C61.1419 0.734389 54.993 2.88241 52.1532 4.87484L50.1635 6.27112L46.137 4.05602C40.2866 0.837434 32.2392 -0.679187 26.1525 0.289016ZM25.977 8.14598C18.9752 9.89912 12.2893 15.4013 9.34444 21.8343C7.07411 26.7949 7.22339 35.5136 9.66789 40.7308C11.9942 45.6956 15.8645 49.5684 21.0424 52.1127C24.5049 53.814 25.9452 54.1142 30.6448 54.1135C35.211 54.1135 36.8697 53.787 40.1698 52.24L44.1652 50.3672L42.1271 46.7081C36.4813 36.5717 36.6023 23.2997 42.4201 14.7215C44.0927 12.256 44.1189 12.0769 42.9419 11.1889C39.4711 8.56853 30.6268 6.98275 25.977 8.14598ZM64.6521 8.06783C63.2098 8.36521 60.5116 9.32027 58.6553 10.1896L55.2812 11.7712L57.0298 14.5423C63.0038 24.012 63.1068 37.8504 57.271 47.058L55.2522 50.2441L59.1867 52.1701C62.4855 53.7857 64.0142 54.0983 68.653 54.1052C73.2359 54.1128 74.8717 53.7926 78.1815 52.2407L82.1769 50.3672L80.116 46.7081C74.6326 36.9735 74.6216 24.3807 80.0883 15.5029C81.2197 13.6654 81.9813 11.8964 81.7809 11.5713C81.1485 10.5471 74.097 8.2013 70.6158 7.85759C68.7781 7.67571 66.0945 7.77045 64.6521 8.06783ZM102.414 8.15289C99.9291 8.6453 93.8824 11.2359 93.8824 11.8092C93.8824 11.9185 94.9495 14.1295 96.2537 16.7236C101.467 27.0916 100.813 39.4673 94.5908 48.2116L93.1754 50.2005L97.1542 52.1487C100.501 53.787 102.011 54.0983 106.665 54.1052C111.24 54.1128 112.885 53.7919 116.171 52.2504C118.356 51.2255 120.145 50.1846 120.145 49.9371C120.145 49.6895 119.539 48.6355 118.799 47.5947C115.721 43.2696 114.379 38.4853 114.324 31.638C114.266 24.4858 115.437 19.7644 118.456 14.9794C119.385 13.5064 120.145 12.146 120.145 11.9559C120.145 11.2193 114.785 8.9489 111.299 8.2096C107.218 7.34445 106.522 7.3396 102.414 8.15289ZM140.425 8.15289C137.192 8.79329 131.689 11.4026 132.022 12.1384C132.142 12.4033 133.261 14.6551 134.509 17.142C139.008 26.1082 138.952 35.932 134.35 45.1237L131.925 49.9647L133.348 51.1577C134.129 51.814 135.911 52.684 137.306 53.0906C149.703 56.7069 161.017 51.5961 166.333 39.977C167.736 36.9113 168.077 35.1014 168.05 30.8725C167.978 19.7118 160.943 10.9593 149.965 8.37351C145.63 7.35275 144.589 7.32854 140.425 8.15289ZM48.3299 19.9463C46.4314 23.0708 45.2613 29.0868 45.7092 33.4264C46.1398 37.6022 48.8144 44.2475 49.9195 43.8872C50.3418 43.7495 51.3778 41.948 52.2209 39.885C54.7373 33.73 54.0669 23.808 50.8207 19.171L49.7398 17.6261L48.3299 19.9463ZM86.7148 19.3405C85.2151 21.6884 83.5156 28.037 83.5156 31.2922C83.5156 34.9603 85.2234 40.7205 86.9304 42.8076L88.2588 44.4321L89.8373 40.9743C92.1512 35.905 92.418 27.7555 90.442 22.4878C88.6721 17.7692 88.0528 17.2464 86.7148 19.3405ZM124.704 19.5313C121.383 24.6027 120.86 33.8849 123.543 40.1471C125.34 44.3422 126.081 44.5905 127.641 41.5172C129.912 37.0434 130.728 31.5191 129.79 26.9699C129.067 23.4643 126.779 17.8066 126.085 17.8066C125.946 17.8066 125.325 18.5825 124.704 19.5313Z" fill="#1F2937"/>
</svg>
