<svg width="104" height="101" viewBox="0 0 104 101" fill="none" xmlns="http://www.w3.org/2000/svg">
<path fill-rule="evenodd" clip-rule="evenodd" d="M40.8313 0.856731C31.3115 2.94745 22.7268 7.44188 15.8341 13.9437C8.69748 20.6764 3.76833 28.8983 1.28672 38.2088C-0.421581 44.6193 -0.430234 56.033 1.26888 62.3945C7.13518 84.356 26.0563 99.543 49.2533 100.91C60.828 101.591 72.1967 98.4026 82.2005 91.6678C87.0945 88.3731 94.243 80.7396 97.1236 75.7324C101.9 67.4299 103.501 61.9938 103.933 52.6158C104.618 37.7576 100.064 26.156 89.2819 15.2887C81.8998 7.84848 75.3748 4.07147 64.8957 1.17298C59.7854 -0.240612 46.617 -0.413705 40.8313 0.856731ZM45.4739 4.21081C33.6882 6.0751 23.9094 11.1982 16.2591 19.5154C7.78628 28.7268 3.46171 40.7372 4.23664 52.9054C4.64763 59.3588 5.81516 63.814 8.66611 69.8091C21.138 96.0332 54.7833 104.956 79.2019 88.5157C92.3221 79.6825 99.7394 65.8329 99.7664 50.1174C99.7983 31.4277 87.9348 14.4216 69.84 7.21707C62.7835 4.40785 52.3584 3.12109 45.4739 4.21081ZM45.8335 5.67121C44.0781 5.89057 44.076 5.89493 44.076 9.04271C44.076 10.7758 43.9175 13.7178 43.7244 15.5805L43.3729 18.9667L45.2116 18.7903L47.0502 18.6134L47.3206 14.5311L47.591 10.4487L48.8261 13.7146C49.5059 15.5108 50.1694 17.2924 50.3013 17.6734C50.6496 18.6809 52.0913 19.099 52.897 18.4262C53.2799 18.1061 54.1895 16.1809 54.9185 14.1468L56.2434 10.4487L56.3807 12.8981C56.6792 18.2242 56.9442 18.8856 58.7839 18.8856H60.4646L60.1272 12.5514C59.9417 9.0672 59.7221 6.15239 59.6389 6.07346C59.5561 5.99399 58.5508 5.84431 57.4049 5.7398L55.3219 5.54983L53.6644 10.1515L52.0075 14.7526L50.7356 11.2401C48.911 6.20029 48.4773 5.26678 48.0079 5.36476C47.7786 5.41266 46.7998 5.55092 45.8335 5.67121ZM77.9311 20.8419C74.0294 25.8539 73.8569 26.1909 74.7086 27.138C75.9032 28.4672 76.3423 28.4193 80.6057 26.4935C82.6093 25.5889 84.3495 24.9498 84.4723 25.0734C84.5956 25.1969 83.587 26.6688 82.2313 28.3442C79.5739 31.628 79.3695 32.2823 80.5095 33.8521C81.2222 34.8324 81.4991 34.766 87.2691 32.2268C90.5787 30.7708 93.2863 29.4323 93.2863 29.2526C93.2863 29.0725 92.9181 28.3964 92.4676 27.7492L91.6494 26.573L88.6476 27.9561C86.9971 28.717 85.5549 29.2478 85.4435 29.1356C85.3326 29.0235 86.2346 27.648 87.4492 26.0793C89.595 23.3076 89.6296 23.1971 88.6838 22.145C87.4373 20.7586 87.0242 20.7809 83.3112 22.434C80.0244 23.8966 79.9844 23.7186 82.8018 20.1832L84.5874 17.9428L83.3204 16.7448L82.0528 15.5462L77.9311 20.8419ZM19.6265 17.933C18.9073 18.5008 15.8995 22.0873 12.8193 26.051C12.1995 26.8479 12.7246 27.4237 17.2271 30.8834C20.0386 33.0438 22.511 34.802 22.7219 34.7911C22.9333 34.7796 24.7822 32.7336 26.8312 30.2433C29.7519 26.6944 30.5566 25.3336 30.5566 23.9461C30.5566 21.6921 28.6012 20.2317 26.2239 20.7101C24.8828 20.9801 24.6081 20.8598 24.6081 19.9993C24.6081 17.7061 21.5311 16.4296 19.6265 17.933ZM18.3806 23.0142C16.3537 25.5039 16.351 25.5132 17.4218 26.5909C18.4925 27.6687 18.5012 27.6643 20.7989 24.9019C22.6981 22.6185 22.9858 21.9904 22.4369 21.3252C21.3629 20.0227 20.535 20.3672 18.3806 23.0142ZM47.764 21.1461C35.1132 22.7138 24.7628 32.3498 22.1287 45.0128C20.615 52.2876 22.1508 59.6478 26.5825 66.362C37.1097 82.3121 59.9525 84.5035 73.5697 70.8695C80.0114 64.4199 82.8667 57.101 82.2913 48.5166C81.1389 31.3259 65.5225 18.9466 47.764 21.1461ZM22.83 26.3362C20.7919 28.8716 20.787 28.8896 21.848 29.957C22.9085 31.0249 22.9214 31.0211 24.4372 29.2184C26.9778 26.1958 27.2768 25.7266 27.2947 24.737C27.3293 22.8281 24.9715 23.6729 22.83 26.3362ZM52.1876 37.6645V50.456H38.9321H25.6767L26.0006 52.7693C27.7235 65.0741 37.1005 74.3613 48.8077 75.3563L52.1876 75.6437V63.0498V50.456H65.1661H78.1447V48.9373C78.1447 46.5091 76.6067 41.2336 75.0704 38.3923C73.2231 34.9761 67.7862 29.7551 64.1392 27.8946C62.5515 27.0846 59.6383 26.0776 57.6661 25.6569C51.5976 24.3625 52.1876 23.0698 52.1876 37.6645Z" fill="#1F2937"/>
</svg>
