<svg width="253" height="87" viewBox="0 0 253 87" fill="none" xmlns="http://www.w3.org/2000/svg">
<path d="M25.0694 78.3573H12.24L9.99845 85.61H0L14.2397 46.7813H23.039L37.3877 85.61H27.3348L25.0694 78.3573ZM14.4816 71.1319H22.8278L18.6411 57.6655L14.4816 71.1319Z" fill="#2563EB"/>
<path d="M56.6962 82.4929C54.7919 84.9287 52.2233 86.1448 48.9904 86.1448C45.8257 86.1448 43.4308 85.2251 41.8024 83.3855C40.1741 81.5459 39.3633 78.9024 39.3633 75.4514V56.7559H48.35V75.5025C48.35 77.9723 49.5491 79.209 51.9508 79.209C54.0118 79.209 55.48 78.4697 56.3521 76.9946V56.7525H65.3933V85.6066H56.9653L56.6962 82.4929Z" fill="white"/>
<path d="M80.7772 49.5849V56.7593H85.5226V63.0002H80.7772V76.2009C80.7772 77.2842 80.9713 78.0405 81.3631 78.4663C81.7549 78.8921 82.5282 79.1067 83.683 79.1067C84.5721 79.1067 85.3182 79.0522 85.9246 78.9466V85.3749C84.3064 85.8893 82.6167 86.1482 80.8589 86.1482C77.7657 86.1482 75.4799 85.4192 74.0048 83.9612C72.5297 82.5032 71.7905 80.2888 71.7905 77.3217V63.0002H68.1113V56.7593H71.7905V49.5849H80.7772Z" fill="white"/>
<path d="M87.125 70.9172C87.125 68.0386 87.6837 65.4734 88.8045 63.2251C89.9252 60.9767 91.5332 59.2461 93.6317 58.0368C95.7301 56.8274 98.1931 56.2244 101.017 56.2244C105.337 56.2244 108.743 57.5632 111.23 60.2374C113.721 62.9117 114.964 66.5533 114.964 71.1591V71.4793C114.964 75.9761 113.714 79.5462 111.217 82.1863C108.72 84.8265 105.337 86.1483 101.068 86.1483C96.9633 86.1483 93.6623 84.9185 91.1755 82.4555C88.6852 79.9925 87.343 76.654 87.1488 72.4434L87.125 70.9172ZM96.1117 71.4793C96.1117 74.1467 96.5307 76.1021 97.3653 77.3455C98.1999 78.589 99.4366 79.2124 101.072 79.2124C104.271 79.2124 105.906 76.7494 105.977 71.8268V70.9206C105.977 65.746 104.325 63.1603 101.017 63.1603C98.0126 63.1603 96.3876 65.3917 96.1355 69.8544L96.1117 71.4793Z" fill="white"/>
<path d="M133.765 71.8779H128.699V85.6134H119.338V46.7847H134.62C139.226 46.7847 142.823 47.8067 145.419 49.8472C148.015 51.8912 149.313 54.7766 149.313 58.5069C149.313 61.2049 148.764 63.4431 147.674 65.2213C146.581 66.9962 144.871 68.4372 142.54 69.5375L150.648 85.2148V85.6168H140.623L133.765 71.8779ZM128.699 64.6763H134.62C136.398 64.6763 137.737 64.2096 138.633 63.2727C139.529 62.3359 139.979 61.0312 139.979 59.3551C139.979 57.6791 139.526 56.3641 138.619 55.4136C137.713 54.4598 136.378 53.9829 134.62 53.9829H128.699V64.6763Z" fill="#1BB680"/>
<path d="M154 49.3741C154 48.0932 154.463 47.044 155.386 46.2264C156.31 45.4088 157.512 45 158.987 45C160.462 45 161.662 45.4088 162.588 46.2264C163.511 47.044 163.975 48.0932 163.975 49.3741C163.975 50.655 163.511 51.7042 162.588 52.5218C161.665 53.3394 160.462 53.7482 158.987 53.7482C157.512 53.7482 156.313 53.3394 155.386 52.5218C154.463 51.7042 154 50.655 154 49.3741ZM163.545 85.6717H154.531V56.8176H163.545V85.6717Z" fill="white"/>
<path d="M181.076 74.9166L185.638 56.7559H195.105L185.692 85.61H176.518L167.105 56.7559H176.6L181.076 74.9166Z" fill="white"/>
<path d="M211.395 86.1448C206.967 86.1448 203.386 84.8265 200.647 82.1829C197.909 79.5428 196.539 76.1089 196.539 71.8745V71.1284C196.539 68.1783 197.084 65.5722 198.178 63.3136C199.271 61.055 200.865 59.3108 202.964 58.0742C205.062 56.8376 207.549 56.221 210.431 56.221C214.485 56.221 217.684 57.4781 220.031 59.9956C222.378 62.5131 223.55 66.0185 223.55 70.5152V74.007H205.682C206.003 75.6252 206.704 76.8958 207.788 77.819C208.871 78.7422 210.278 79.2055 212.002 79.2055C214.846 79.2055 217.067 78.2108 218.669 76.2179L222.774 81.0724C221.653 82.619 220.065 83.8488 218.014 84.7652C215.97 85.6884 213.76 86.1448 211.395 86.1448ZM210.384 63.1569C207.754 63.1569 206.187 64.9011 205.689 68.3827H214.758V67.6877C214.792 66.2467 214.427 65.1328 213.664 64.3424C212.898 63.5521 211.804 63.1569 210.384 63.1569Z" fill="white"/>
<path d="M235.425 56.7559L235.718 60.1421C237.707 57.5292 240.456 56.221 243.958 56.221C246.963 56.221 249.208 57.1204 250.693 58.9157C252.178 60.711 252.945 63.4124 252.999 67.0234V85.61H243.985V67.3948C243.985 65.9367 243.692 64.867 243.107 64.1823C242.521 63.4976 241.454 63.1569 239.908 63.1569C238.146 63.1569 236.842 63.8519 235.987 65.2384V85.6134H227V56.7593H235.425V56.7559Z" fill="white"/>
<path d="M30.1547 41.007C36.5182 40.5165 42.8784 40.0225 49.242 39.5422C56.9342 38.9596 64.6297 38.4078 72.3219 37.8082C74.7508 37.6174 77.1252 33.6521 76.1816 31.4548C75.7898 30.5384 75.473 29.571 74.9586 28.7295C73.429 26.2359 74.1274 24.2328 76.1407 22.4273C76.6858 21.9401 77.1661 21.3814 77.6839 20.867C80.1674 18.3938 80.3138 18.1656 83.3117 20.0597C86.1051 21.8243 87.9379 21.3031 90.6666 19.5521C94.3662 17.1777 95.8583 14.4932 95.0475 10.3201C94.6115 8.08536 95.4461 6.67161 97.7456 6.10952C98.6313 5.8949 99.4421 5.36347 100.287 4.97511C103.557 3.48301 103.745 3.35696 105.785 6.39227C107.727 9.27768 109.703 9.97945 113.321 9.31175C117.405 8.55548 119.79 7.14173 120.328 2.98564C120.642 0.57034 122.089 -0.0632923 124.467 0.00484021C130.442 0.175172 130.524 0.0389072 131.979 5.79611C132.456 7.68338 133.086 8.75647 135.266 8.88251C137.293 8.99834 139.317 9.60131 141.286 10.1838C142.682 10.596 143.575 10.2588 144.287 9.06647C144.556 8.61339 144.931 8.22163 145.261 7.80261C147.881 4.48796 147.881 4.48796 152.01 5.71435C156.581 7.07019 156.796 7.08722 156.387 11.8497C156.094 15.2631 157.235 17.2185 159.998 19.3409C163.17 21.7732 165.701 22.5329 168.985 20.1039C170.767 18.789 172.402 19.0479 173.659 21.0101C173.976 21.5075 174.398 21.9844 174.878 22.3217C178.006 24.5394 177.921 27.2068 176.064 30.1671C175.89 30.4465 175.795 30.7735 175.659 31.0767C173.989 34.7524 175.73 37.5731 179.838 37.8525C193.577 38.7825 207.316 39.7091 221.052 40.6493C221.679 40.6936 222.295 40.8707 222.878 41.3681C222.244 41.3681 221.614 41.3715 220.98 41.3681C204.209 41.3 187.435 41.1876 170.664 41.2182C168.76 41.2216 167.96 40.1724 167.016 38.9869C159.661 29.7549 150.674 22.618 139.18 19.5657C120.652 14.6397 104.378 19.4397 90.4588 32.3951C88.1423 34.5515 86.2175 37.1609 84.3337 39.7261C83.5195 40.8367 82.77 41.2557 81.4278 41.2489C65.788 41.1705 50.1482 41.1467 34.5083 41.1126C33.0435 41.1092 31.582 41.1126 30.1172 41.1126C30.1308 41.0751 30.1444 41.0411 30.1547 41.007Z" fill="white"/>
<path d="M160.419 41.0956C148.516 41.0956 136.773 41.0956 125.034 41.0956C125.024 41.0274 125.017 40.9593 125.007 40.8878C133.578 40.4211 142.146 39.9544 151.149 39.4638C145.678 33.7168 139.526 29.9798 132.403 27.8165C125.293 25.6567 118.085 25.357 110.791 26.8525C127.466 19.6066 150.315 26.6651 160.419 41.0956Z" fill="white"/>
</svg>
