<svg width="194" height="62" viewBox="0 0 194 62" fill="none" xmlns="http://www.w3.org/2000/svg">
<path fill-rule="evenodd" clip-rule="evenodd" d="M62.0241 5.8125V11.625H40.3212H18.6189L17.6466 13.401C17.1122 14.3782 12.9226 22.9516 8.33712 32.4531L0 49.7292H31.0117H62.0241V55.8646V62H96.9589H131.894V55.8646V49.7292H153.564H175.234L184.617 31.0045C189.777 20.7054 194 12.132 194 11.9524C194 11.7722 180.026 11.625 162.947 11.625H131.894V5.8125V0H96.9589H62.0241V5.8125ZM73.0221 17.1146V22.6042L49.894 22.6139C37.1739 22.6197 26.4748 22.8373 26.1189 23.0982C25.5289 23.5316 18.6791 37.0566 18.6791 37.789C18.6791 37.9621 31.0519 38.1042 46.1741 38.1042H73.6691V43.9167V49.7292H97.6059H121.543V43.9251V38.121L144.338 37.9511L167.133 37.7812L170.822 31C172.852 27.2703 174.53 23.8558 174.552 23.4115C174.583 22.7779 168.877 22.6042 148.067 22.6042H121.543V17.1146V11.625H97.2824H73.0221V17.1146Z" fill="#1F2937"/>
</svg>
