<svg width="171" height="63" viewBox="0 0 171 63" fill="none" xmlns="http://www.w3.org/2000/svg">
<path fill-rule="evenodd" clip-rule="evenodd" d="M74.9492 0.122387C34.7732 2.77386 6.97102 12.7539 1.0578 26.6475C-5.581 42.2453 19.5767 57.0158 61.1402 61.9213C71.8343 63.1832 97.5141 63.3836 107.086 62.2797C146.633 57.7177 171 46.0228 171 31.6043C171 17.6275 146.733 5.5216 110.399 1.37331C102.178 0.434631 81.3501 -0.300442 74.9492 0.122387ZM67.3291 3.39444C34.2445 6.81351 12.0248 14.7796 5.61331 25.5202C-5.19005 43.6173 32.8815 60.1922 85.3153 60.2195C108.437 60.2319 127.657 57.5154 143.34 52.0186C156.182 47.5177 165.266 40.8702 167.014 34.6943C170.716 21.6119 150.29 9.86829 114.577 4.54389C107.983 3.56097 73.7704 2.72832 67.3291 3.39444ZM69.9796 5.58145C38.906 7.95645 14.2539 16.1359 8.34662 26.0315C0.481316 39.2081 20.6117 51.45 58.3062 56.4141C70.6389 58.0377 95.8754 58.3558 108.08 57.0411C142.076 53.3794 164.403 43.2959 164.403 31.6043C164.403 20.2127 143.182 10.2729 110.916 6.55135C100.367 5.3349 79.6346 4.84312 69.9796 5.58145ZM57.026 11.6741C49.0348 13.7895 44.4972 19.4925 46.6951 24.6563C48.789 29.5761 55.775 29.0264 59.758 23.6285C61.3821 21.4278 62.3389 18.5942 61.4583 18.5942C61.3271 18.5942 60.1132 19.6187 58.7608 20.871C53.4346 25.8025 48.129 22.0263 53.2796 16.9699C56.8663 13.4487 63.1473 12.538 72.1457 14.2338L76.2996 15.0164L73.1694 17.2932C71.4473 18.5454 68.8326 21.0785 67.3589 22.922C65.11 25.7342 64.1644 26.3892 61.4802 26.9909C57.4362 27.8991 55.7332 28.7909 55.7332 30.0009C55.7332 31.1757 56.258 31.1711 58.3837 29.9781C59.2948 29.4668 60.5796 29.0381 61.2383 29.0251C62.1838 29.0069 61.8115 29.7933 59.4804 32.7427C55.3933 37.913 51.8695 41.1174 48.9626 42.3058C45.6859 43.6459 44.3262 43.5769 42.239 41.965C39.5434 39.884 39.8648 37.1935 43.1786 34.099C46.063 31.4053 46.0881 29.9325 43.2369 30.6201C38.8364 31.6811 35.8613 35.4352 35.8573 39.9308C35.8533 43.9978 37.4052 46.4489 40.9608 47.9932C48.2834 51.1729 55.72 46.6441 63.415 34.3176C65.1279 31.5731 66.9905 28.962 67.5531 28.5144C68.769 27.5478 76.018 27.4177 76.6058 28.3518C76.8311 28.7096 77.6309 29.0023 78.3823 29.0023C79.4941 29.0023 79.6028 28.828 78.9621 28.0701C78.3346 27.3279 78.4618 26.855 79.5836 25.7537C80.4861 24.8677 80.9188 23.741 80.7876 22.6202C80.3556 18.9507 74.9492 20.7773 74.9492 24.5938C74.9492 25.5325 74.3814 25.7498 71.9224 25.7498H68.8955L70.2884 23.8295C72.1225 21.3003 78.3306 15.9922 79.4544 15.9922C79.9401 15.9922 83.3744 16.7669 87.0858 17.7141C95.6336 19.8952 101.901 20.0325 106.201 18.131C109.301 16.7611 111.341 14.3796 110.295 13.3524C109.987 13.0506 108.543 13.0746 107.086 13.4064C102.348 14.4849 91.2921 14.0862 79.5876 12.4144C67.1277 10.6352 61.6312 10.4544 57.026 11.6741ZM77.7057 22.6534C76.7741 23.568 76.6926 25.0993 77.5765 25.0993C78.4684 25.0993 79.7148 22.6508 79.033 22.2377C78.7255 22.051 78.1285 22.2383 77.7057 22.6534ZM126.899 28.2868L123.018 34.0756L121.544 32.5151C118.649 29.4473 115.011 30.5531 107.319 36.837C103.06 40.3166 100.638 40.9105 99.4675 38.7619C98.9354 37.7861 99.0057 37.0172 99.7485 35.672C100.293 34.6871 100.75 34.2259 100.765 34.6481C100.797 35.5698 102.628 37.4589 103.489 37.4589C104.468 37.4589 106.755 34.9532 106.755 33.8811C106.755 32.5007 104.344 30.3033 102.83 30.3033C102.129 30.3033 100.67 31.0352 99.5868 31.9296C97.1755 33.9215 96.9628 33.9332 96.6964 32.0922C96.5268 30.92 95.9954 30.5889 94.0267 30.4282C91.9335 30.2578 91.1351 30.6201 88.6516 32.8676C85.3815 35.8268 84.8885 36.0187 84.8885 34.3306C84.8885 32.4045 83.3519 30.8244 81.981 31.3409C80.9976 31.7117 80.8313 32.2835 81.1103 34.3267C81.5814 37.7731 80.498 41.2188 78.2511 43.4247C75.0089 46.6077 71.6361 45.6033 71.6361 41.4556C71.6361 38.7014 73.895 35.6193 77.1909 33.8766C78.5088 33.1799 79.5876 32.3739 79.5876 32.0864C79.5876 31.0625 77.4626 30.788 75.0413 31.5003C71.7812 32.4591 68.6417 35.575 66.251 40.2249C65.1762 42.3143 63.8616 44.1878 63.3282 44.3888C62.7955 44.5891 62.3594 45.144 62.3594 45.6215C62.3594 47.2419 63.7768 47.3583 65.3903 45.87C66.2742 45.0549 66.9978 44.6913 66.9978 45.0627C66.9978 45.4341 67.7837 46.5101 68.7445 47.4533C70.067 48.7517 71.1537 49.1674 73.2171 49.1655C77.0491 49.1622 79.4451 47.4806 84.1802 41.4712C86.445 38.5973 89.0114 35.7865 89.8834 35.2257C91.579 34.1348 93.5026 33.8707 93.5026 34.7294C93.5026 35.0163 91.7135 38.2226 89.5269 41.8531C87.3402 45.4842 85.5512 48.6151 85.5512 48.8116C85.5512 49.0074 86.5424 49.1681 87.7544 49.1681C89.7793 49.1681 90.2193 48.7634 93.17 44.191C95.8264 40.0733 96.4632 39.4313 96.8555 40.4734C97.9011 43.2478 100.55 43.9217 104.27 42.3598C105.226 41.9591 105.43 42.2135 105.43 43.8066C105.43 44.8702 106.048 46.5114 106.803 47.454C108.56 49.6468 112.371 49.8101 114.968 47.8046L116.735 46.4405L118.088 48.1298C118.832 49.0588 120.106 49.8186 120.92 49.8186C122.871 49.8186 127.637 46.7488 130.936 43.3694C133.113 41.1388 133.406 40.5514 132.593 40.0577C131.857 39.6101 130.839 40.1813 128.621 42.2857C124.243 46.4398 121.995 47.3115 121.995 44.8558C121.995 44.1084 131.364 28.9607 134.718 24.2861L136 22.4972H133.39C130.838 22.4972 130.693 22.6254 126.899 28.2868ZM114.253 36.3205C111.62 39.052 110.731 40.8064 110.731 43.2705C110.731 45.0347 110.951 45.265 112.642 45.265C114.017 45.265 115.197 44.5644 116.856 42.7619C119.062 40.3647 120.535 36.2204 119.669 34.8458C118.854 33.5513 116.236 34.2643 114.253 36.3205Z" fill="#1F2937"/>
</svg>
