<svg width="102" height="81" viewBox="0 0 102 81" fill="none" xmlns="http://www.w3.org/2000/svg">
<path fill-rule="evenodd" clip-rule="evenodd" d="M29.4621 0.396684C15.3233 1.38739 9.24242 3.22782 4.9629 7.81063C0.923737 12.1365 -0.00904505 16.3648 6.58542e-05 30.3056C0.0087429 42.8111 1.30379 55.5671 3.34247 63.2222C6.09569 73.559 10.7544 77.6284 22.0354 79.5487C32.0492 81.2537 66.0172 81.5263 77.3247 79.9929C87.8535 78.5652 93.2979 75.6292 96.3713 69.7223C99.9983 62.7526 102.45 44.0578 101.931 27.3364C101.62 17.3338 101.312 15.3235 99.5141 11.5633C95.032 2.18785 85.0586 -0.13073 49.802 0.00558191C41.2117 0.0387045 32.0587 0.214934 29.4621 0.396684ZM35.5131 3.41127C31.4722 3.61425 28.059 3.88517 27.9285 4.01299C27.6421 4.29326 31.6036 23.7125 33.9421 33.4904C36.7105 45.0664 38.137 47.8007 42.5033 49.8993C44.906 51.0539 45.3181 51.1134 50.9174 51.1134C56.6122 51.1134 56.889 51.0713 59.3775 49.8301C64.7022 47.173 65.8658 43.9517 71.9272 15.0951C73.5333 7.44798 74.0791 4.08094 73.7303 3.96501C72.6838 3.6168 55.3327 2.91825 49.2358 2.97897C45.7294 3.01337 39.554 3.20828 35.5131 3.41127ZM17.0461 5.64662C13.8625 6.51375 11.6473 7.83653 9.54395 10.1262C6.09526 13.881 5.35337 17.7122 5.34079 31.8385C5.32864 45.3611 6.6315 57.2181 8.88146 64.0652C10.1101 67.8029 10.7405 68.9338 12.8356 71.1585C14.8964 73.3471 17.5468 74.768 20.9508 75.5094C22.2632 75.7957 23.7075 76.1303 24.16 76.253C24.9362 76.4641 24.967 76.2747 24.7015 72.925C23.7179 60.5193 20.5183 9.81922 20.5174 6.63138C20.5169 4.83129 20.2831 4.76505 17.0461 5.64662ZM80.2346 25.5283C78.9929 46.5013 77.5933 67.7766 77.0896 73.3467L76.8071 76.4713L78.2723 76.1838C90.3273 73.8202 93.5981 68.727 95.8498 48.8135C96.7253 41.067 96.8342 23.1307 96.0337 18.4154C94.8567 11.4809 91.4622 7.62888 84.7787 5.64322C83.6763 5.31582 82.4763 5.04616 82.1114 5.04362C81.5422 5.0398 81.2763 7.93845 80.2346 25.5283ZM45.381 58.14C42.7532 58.6483 41.5059 59.6148 40.2828 62.0897C39.2104 64.2605 37.5752 69.51 36.4051 74.5391L35.7959 77.1571L39.836 77.4535C44.3897 77.7877 65.435 77.569 65.8289 77.1834C65.9695 77.0458 65.4198 74.3722 64.6076 71.2421C61.9108 60.8523 60.8006 59.0569 56.518 58.1579C54.0008 57.6296 48.0696 57.6198 45.381 58.14Z" fill="#1F2937"/>
</svg>
