<svg width="137" height="69" viewBox="0 0 137 69" fill="none" xmlns="http://www.w3.org/2000/svg">
<path fill-rule="evenodd" clip-rule="evenodd" d="M55.1354 0.599222C20.0283 4.57491 -3.01021 20.2123 0.318946 37.8064C3.64031 55.3624 33.6468 68.9744 69.0813 69C81.0809 69.0087 96.878 66.5855 106.76 63.2195C120.963 58.3823 130.434 51.6935 135.168 43.1558C136.875 40.0793 137 39.4973 137 34.6677C137 29.9145 136.849 29.1815 135.181 25.8636C133.092 21.7081 128.876 17.2676 123.852 13.9289C119.469 11.0169 110.469 6.86409 104.684 5.08495C90.8768 0.838438 69.8382 -1.06603 55.1354 0.599222ZM64.0458 6.56765C61.4596 7.69726 59.5923 10.0033 57.0361 15.2269C53.2035 23.0578 53.4251 27.7849 57.7038 29.46C60.7328 30.6457 62.1663 30.5504 68.8224 28.7205C77.0344 26.4624 81.9864 24.6468 89.7563 21.0454C96.1072 18.1013 104.978 12.6603 104.978 11.7089C104.978 8.58329 69.6037 4.14061 64.0458 6.56765ZM36.5677 9.91124C15.1983 15.7331 3.20092 27.0155 6.41981 38.2636C6.81688 39.6515 8.20858 42.205 9.51229 43.9383C11.8156 46.9991 18.2991 52.1235 19.8428 52.1028C20.2811 52.0973 22.7482 47.7418 25.6196 41.9074C31.6826 29.5864 35.3915 23.3515 41.6506 14.962C44.2613 11.4621 46.2545 8.45796 46.0796 8.28685C45.4737 7.69453 43.4126 8.04655 36.5677 9.91124ZM114.619 21.1893C108.119 35.2748 100.013 49.1542 93.8857 56.6888C92.3292 58.603 91.0556 60.3179 91.0556 60.5004C91.0556 61.2649 94.6008 60.7184 100.837 58.9921C109.286 56.6539 112.559 55.3592 117.951 52.2226C131.772 44.1808 135.317 32.9049 126.899 23.7591C124.499 21.1517 118.51 16.6938 117.407 16.6938C117.014 16.6938 115.759 18.7165 114.619 21.1893ZM70.7286 39.5845C63.2545 41.556 53.4179 45.1257 46.7819 48.2737C39.1339 51.9022 32.9746 56.0594 33.2413 57.4129C33.6501 59.4918 53.5805 62.9547 65.8357 63.0762C71.5712 63.1329 72.2752 63.0261 74.4677 61.7635C77.265 60.1528 80.1085 55.8954 81.9853 50.51C84.2786 43.9269 83.2929 40.246 78.9179 39.057C76.1885 38.3154 75.3309 38.3704 70.7286 39.5845Z" fill="#1F2937"/>
</svg>
