<svg width="198" height="47" viewBox="0 0 198 47" fill="none" xmlns="http://www.w3.org/2000/svg">
<path fill-rule="evenodd" clip-rule="evenodd" d="M10.8718 5.4807C5.89898 8.49497 1.38433 11.5654 0.839186 12.3052C0.0793098 13.3349 -0.105177 17.3324 0.0513344 29.4113L0.254724 45.1744L12.7432 45.379L25.2323 45.5835L36.5602 38.8213C42.7904 35.1018 48.2282 32.0546 48.6448 32.0486C49.0607 32.0426 52.2968 35.0778 55.8353 38.7936L62.2705 45.5491H73.9725H85.6746L74.3786 34.3336C68.1665 28.1657 63.2367 22.975 63.425 22.7996C63.6133 22.6243 70.5716 18.3869 78.8887 13.3844L94.0106 4.28833L94.2125 23.9201C94.3455 36.8727 94.6986 43.892 95.2498 44.5508C95.9008 45.328 99.8597 45.5491 113.146 45.5491H130.206L153.173 30.5602C165.804 22.3163 176.459 15.5712 176.849 15.5712C177.269 15.5712 177.559 21.991 177.559 31.2856V47L187.01 41.3537C192.209 38.2487 196.802 35.0778 197.218 34.3074C198.35 32.2104 198.213 2.61856 197.066 1.48166C196.469 0.889593 193.277 0.58232 187.724 0.58232H179.289L167.272 8.3181C160.662 12.5735 146.578 21.7212 135.974 28.6468C125.37 35.5724 116.269 41.4016 115.748 41.601C115.007 41.8843 114.803 37.6971 114.803 22.1716C114.803 7.7785 114.556 2.13592 113.896 1.48166C113.244 0.835633 108.207 0.58232 96.0074 0.58232H79.0255L50.3725 17.8196C34.6132 27.3001 21.4035 35.0568 21.0186 35.0568C20.6149 35.0568 20.233 27.6358 20.1158 17.528L19.9132 0L10.8718 5.4807Z" fill="#1F2937"/>
</svg>
