<svg width="139" height="101" viewBox="0 0 139 101" fill="none" xmlns="http://www.w3.org/2000/svg">
<path fill-rule="evenodd" clip-rule="evenodd" d="M52.2062 0.726264C20.3473 5.88078 -0.109058 25.5772 0.000437398 50.9923C0.106323 75.5473 19.1428 94.1508 49.7401 99.6007C61.5349 101.701 79.9806 101.406 91.9703 98.9244C104.705 96.2889 117.932 89.7347 124.61 82.7507L126.683 80.5825H121.408H116.134L112.323 83.3077C100.87 91.4967 83.8166 95.6644 65.0815 94.8543C48.0074 94.1153 35.5527 89.9614 25.2836 81.5801C13.1332 71.6629 7.71022 53.9382 12.4648 39.6814C17.3193 25.1239 30.351 13.4959 47.3396 8.56324C57.6881 5.55829 71.7679 4.17728 72.5019 6.09418C72.6974 6.60414 69.8108 10.9678 65.4238 16.7938C52.7951 33.5649 41.7548 49.3389 39.3796 54.0039C37.2932 58.1017 37.1061 58.8787 37.1061 63.4419C37.1061 68.0738 37.2318 68.5735 38.9368 70.7309C39.9728 72.0414 42.3245 73.8329 44.3514 74.8559L47.9352 76.6643L88.4683 76.8355L129.001 77.0061L131.253 74.6346C133.784 71.9685 136.779 65.2973 138.236 59.0801C138.925 56.139 139.123 53.1564 138.93 48.6342C138.455 37.5391 134.384 28.417 125.972 19.5944C120.95 14.3278 116.498 11.1432 109.301 7.66929C102.143 4.21465 102.135 4.21405 100.521 6.83019C99.7607 8.06352 99.41 9.16302 99.7427 9.27393C101.444 9.84237 110.168 15.1681 113.09 17.4225C120.438 23.0913 126.194 32.2068 127.929 40.9232C129.633 49.4871 128.947 57.0275 125.925 62.9506L124.617 65.5125H92.8373C62.8127 65.5125 61.0019 65.4516 60.0609 64.41C59.5135 63.8036 59.0652 62.5064 59.0652 61.5274C59.0652 57.3494 77.0682 30.9638 93.7596 10.6778C98.8481 4.49375 98.0744 3.01448 88.8455 1.28024C81.327 -0.13272 59.5501 -0.461849 52.2062 0.726264Z" fill="#1F2937"/>
</svg>
