<svg width="117" height="95" viewBox="0 0 117 95" fill="none" xmlns="http://www.w3.org/2000/svg">
<path fill-rule="evenodd" clip-rule="evenodd" d="M47.0142 0.431661C44.6073 0.645541 40.4736 1.25943 37.8267 1.79581C17.5974 5.89782 5.84288 15.8808 1.24696 32.8631C0.096179 37.1168 0 38.2268 0 47.2806C0 56.3732 0.0932938 57.4388 1.27581 61.8743C1.97744 64.5059 3.5793 68.7046 4.8354 71.2047C6.73542 74.987 7.84821 76.4746 11.4612 80.0652C16.1335 84.7083 19.8071 87.106 25.7466 89.3884C47.0157 97.5627 76.2685 96.7273 95.3692 87.4003C99.7208 85.2758 100.989 84.359 104.801 80.5872C111.306 74.1507 114.966 66.7294 116.569 56.7278C117.445 51.2669 116.916 38.1795 115.607 32.9262C110.773 13.5224 94.8003 2.60827 67.9803 0.38477C61.593 -0.144908 53.2909 -0.126248 47.0142 0.431661ZM51.149 8.8266C50.4877 8.92182 47.9991 9.23427 45.6187 9.52135C36.7923 10.585 28.381 14.422 23.4085 19.6537C21.2488 21.9255 19.0675 25.1672 19.4945 25.4696C19.8042 25.6887 30.8225 30.4855 35.5199 32.4463C44.4078 36.1564 48.3929 39.1857 54.7788 47.0849C56.7802 49.5611 58.5009 51.587 58.6024 51.587C58.7038 51.587 59.4978 50.2415 60.3663 48.5965C61.4016 46.6361 63.5234 44.0313 66.5261 41.0341C71.4899 36.0785 74.4642 34.2937 86.0139 29.3371C88.9233 28.0883 92.556 26.4404 94.0866 25.6744L96.8696 24.282L96.0102 22.8164C94.4305 20.1221 88.8915 15.389 85.2117 13.5884C81.1424 11.5975 74.4349 9.80653 68.2207 9.05196C64.2067 8.56439 53.918 8.42898 51.149 8.8266ZM89.8947 42.0604C76.2402 46.9136 74.7994 47.5471 70.8786 50.419C67.5441 52.8612 65.2642 55.6172 61.191 62.1284L58.2172 66.8821L56.0228 62.9427C53.0749 57.6522 46.5309 51.0932 41.6965 48.5835C38.071 46.7017 15.6608 39.0297 14.9914 39.4412C14.3489 39.8364 14.5827 53.9306 15.2982 57.9216C17.3334 69.2807 22.755 76.8598 32.1425 81.469C43.4061 86.9993 64.5241 87.9515 79.2813 83.594C87.4642 81.1781 94.3646 75.7574 97.9526 68.9266C101.497 62.1786 103.272 50.8941 102.272 41.4633L101.883 37.7991L89.8947 42.0604Z" fill="#1F2937"/>
</svg>
