<svg width="101" height="101" viewBox="0 0 101 101" fill="none" xmlns="http://www.w3.org/2000/svg">
<path fill-rule="evenodd" clip-rule="evenodd" d="M45.5018 0.187246C33.9156 1.1446 22.9581 6.30134 14.4844 14.7846C7.8831 21.3931 3.54543 28.8055 1.1388 37.5897C0.115337 41.3262 -0.021626 42.9249 0.00245544 50.8378C0.0280419 59.1515 0.133398 60.1704 1.38413 64.2243C8.48162 87.2304 29.5519 102.248 52.8682 100.918C62.2218 100.385 71.1861 97.3639 78.8967 92.1461C97.3787 79.6395 105.518 55.8455 98.4995 34.8401C90.9269 12.176 69.5521 -1.79946 45.5018 0.187246ZM41.3648 5.35548C29.0763 7.86811 18.216 15.214 11.5038 25.554C6.93439 32.5925 4.77208 39.5124 4.38427 48.3381C4.07723 55.3221 4.80519 60.0029 7.2309 66.6494C9.86781 73.8744 7.86353 74.6147 26.2086 59.6415C35.0525 52.423 42.4349 46.1395 42.614 45.6775C43.0299 44.6082 49.3919 7.01524 49.3919 5.63044C49.3919 4.72158 49.1 4.60059 47.0089 4.64159C45.6985 4.66758 43.1584 4.98854 41.3648 5.35548ZM51.1424 5.71943C51.2879 6.33834 52.7674 15.2805 54.43 25.5915C56.0931 35.9025 57.5856 44.7697 57.7472 45.2961C58.0929 46.4234 57.2094 45.663 75.6427 60.6938C83.6397 67.2143 90.4021 72.4141 90.67 72.2491C91.5741 71.6922 94.0569 65.5911 95.0644 61.4492C100.233 40.2033 90.2651 18.8905 70.6784 9.3084C65.5074 6.77877 57.5861 4.59459 53.5826 4.59459C51.034 4.59459 50.893 4.65958 51.1424 5.71943ZM30.8372 66.3975C20.2228 70.3644 11.3664 73.7814 11.1567 73.9903C10.9465 74.1998 11.3749 75.2626 12.1094 76.3525C18.1292 85.2862 28.6473 92.4676 39.639 95.1492C45.3036 96.531 54.9221 96.657 60.0465 95.4167C68.3335 93.411 76.1655 89.2901 81.8823 83.9274C84.8348 81.1578 89.5276 75.2986 89.5276 74.3818C89.5276 73.9288 72.7103 67.4018 53.9027 60.5563L50.1355 59.185L30.8372 66.3975Z" fill="#1F2937"/>
</svg>
