<svg width="126" height="101" viewBox="0 0 126 101" fill="none" xmlns="http://www.w3.org/2000/svg">
<path fill-rule="evenodd" clip-rule="evenodd" d="M52.875 0.726498C42.7359 2.97315 35.2496 6.93414 27.9214 13.9296C23.5558 18.0972 20.0548 22.7635 17.55 27.7549C16.6106 29.6264 15.4159 31.5103 14.895 31.9422C14.3741 32.3734 12.1388 32.9984 9.927 33.3302C7.04194 33.7637 5.90625 34.1669 5.90625 34.7582C5.90625 35.4365 7.09088 35.5825 12.6068 35.5825H19.3072L22.0056 30.248C26.9758 20.4236 33.2595 14.2171 43.0312 9.48009C46.125 7.98026 50.5547 6.32601 52.875 5.80436C58.8634 4.45782 68.1981 4.57013 73.9688 6.05816C82.6599 8.29977 92.2759 14.166 97.4998 20.4141C100.413 23.8983 104.23 30.1599 105.166 32.9883L105.93 35.3017H112.871C118.406 35.3017 119.812 35.1445 119.812 34.5246C119.812 33.9838 118.71 33.6301 116.178 33.3594C111.678 32.8782 110.287 31.8478 107.968 27.2793C101.098 13.7415 88.1342 3.92887 73.008 0.817465C67.9033 -0.232583 57.4166 -0.279752 52.875 0.726498ZM0 50.4629V57.7627H1.6875H3.375L3.3975 52.2878L3.42056 46.813L8.69625 52.2878C13.4426 57.2135 14.1739 57.7627 15.9857 57.7627H18V50.4629V43.1631H16.3125H14.625V48.3459V53.5288L9.41119 48.3459C4.70306 43.6656 3.99431 43.1631 2.09869 43.1631H0V50.4629ZM25.3125 50.4629V57.7627H27H28.6875V50.4629V43.1631H27H25.3125V50.4629ZM36.2559 44.5416C34.5578 46.2363 34.4593 48.6828 36.0219 50.3568C37.0586 51.468 37.7263 51.5859 42.9846 51.5859C47.3895 51.5859 48.9645 51.7841 49.4798 52.4035C50.8241 54.0213 49.5056 54.3935 42.4356 54.3935H35.4375V56.0781V57.7627H43.0566C50.3966 57.7627 50.7268 57.7121 52.0566 56.3841C52.9273 55.5155 53.4375 54.3643 53.4375 53.2705C53.4375 52.1767 52.9273 51.0255 52.0566 50.1569C50.7651 48.867 50.2931 48.7783 44.7266 48.7783C39.7907 48.7783 38.7186 48.625 38.4317 47.8793C37.8529 46.3733 39.3834 45.9881 45.9844 45.9791L52.3125 45.9707V44.5669V43.1631H44.9747C37.9333 43.1631 37.5806 43.2187 36.2559 44.5416ZM61.4413 43.5387C60.2589 44.0138 58.9719 47.0421 59.3814 48.3852C60.2443 51.2148 61.1252 51.5859 66.9786 51.5859C73.2026 51.5859 74.25 51.8347 74.25 53.3137C74.25 54.2717 73.6431 54.3733 67.0781 54.5171L59.9062 54.6743L59.7285 56.2185L59.5502 57.7627H67.1057C73.8973 57.7627 74.8108 57.6453 76.1428 56.5986C78.1228 55.0443 78.2122 51.7707 76.3234 49.9991C75.1556 48.9047 74.4058 48.7783 69.0711 48.7783C64.5345 48.7783 63.0495 48.5947 62.8228 48.0045C62.2018 46.3885 63.7639 45.9707 70.425 45.9707H77.0625V44.5669V43.1631L69.6094 43.2074C65.5104 43.2316 61.8345 43.3809 61.4413 43.5387ZM89.4414 44.988C88.8452 45.9915 86.8449 49.2135 84.996 52.1474L81.6339 57.4819L83.4154 57.6678C84.7873 57.8104 85.4618 57.5201 86.3539 56.4044C87.4474 55.0342 87.7956 54.9551 92.7051 54.9551C97.6995 54.9551 97.9239 55.009 98.5399 56.3589C99.0371 57.4482 99.6013 57.7627 101.059 57.7627C102.092 57.7627 102.938 57.5987 102.938 57.3988C102.938 57.1984 101.001 53.9134 98.6338 50.099C94.5011 43.4393 94.2542 43.1631 92.4272 43.1631C90.8781 43.1631 90.3234 43.5017 89.4414 44.988ZM107.438 50.4629V57.7627H109.125H110.812V52.2985V46.8343L116.307 52.2985C121.29 57.2539 121.997 57.7627 123.901 57.7627H126V50.4629V43.1631H124.312H122.625L122.61 48.6379L122.596 54.1128L117.233 48.6379C112.243 43.5449 111.715 43.1631 109.654 43.1631H107.438V50.4629ZM90.9259 48.9692C90.1074 50.3641 89.4375 51.6499 89.4375 51.8263C89.4375 52.0031 90.8297 52.1474 92.5312 52.1474C94.2328 52.1474 95.625 52.0205 95.625 51.865C95.625 51.7095 94.9027 50.4241 94.0196 49.008L92.4148 46.4339L90.9259 48.9692ZM5.90625 65.624C5.24869 66.6859 6.1605 67.1457 9.64688 67.5096C11.5689 67.7101 13.6991 68.239 14.3809 68.6849C15.0626 69.1307 16.6618 71.4229 17.9342 73.7785C27.1766 90.883 43.9256 101 63 101C81.8651 101 98.5387 91.0139 107.608 74.2838C108.906 71.8889 110.602 69.4665 111.375 68.9011C112.179 68.3137 114.288 67.7185 116.297 67.5113C119.217 67.2098 119.812 66.9722 119.812 66.1058C119.812 65.1478 119.267 65.0625 113.164 65.0625H106.515L103.604 70.9096C97.5263 83.1138 86.6261 91.7135 73.1796 94.9125C69.1852 95.8626 67.1203 96.0154 61.3125 95.7907C53.2682 95.4791 49.4572 94.5784 42.9874 91.4597C33.6133 86.9411 26.244 79.4948 21.7356 69.9859L19.4062 65.0732L12.8301 65.0681C9.04669 65.0647 6.1065 65.3011 5.90625 65.624Z" fill="#1F2937"/>
</svg>
