<svg width="87" height="95" viewBox="0 0 87 95" fill="none" xmlns="http://www.w3.org/2000/svg">
<path fill-rule="evenodd" clip-rule="evenodd" d="M27.3827 0.472192C21.1285 0.883693 9.73739 2.09479 4.24133 2.93231L0.666644 3.47723L0.250731 5.34982C-0.350605 8.05571 0.212708 28.297 1.06284 34.5327C4.46619 59.4953 14.7805 76.9876 33.4519 89.4618C38.2124 92.6424 42.6757 95 43.9361 95C45.2552 95 52.7229 90.5896 57.4829 86.9998C70.74 77.0016 80.0445 62.8289 84.1938 46.3127C86.4573 37.3037 86.9559 32.1082 86.9789 17.2974L87 3.49736L83.0099 2.92247C64.3708 0.23765 44.3502 -0.644339 27.3827 0.472192ZM31.8423 2.12943C19.5038 2.86536 2.7171 4.92193 2.15802 5.76553C1.64634 6.53797 1.736 23.2237 2.28664 29.6935C4.16717 51.7825 11.4527 68.2206 24.8952 80.7047C28.913 84.4358 36.1333 89.5194 40.8919 91.9664L43.6042 93.3615L47.9854 91.0989C60.0685 84.859 70.8794 73.703 77.0951 61.0593C83.6877 47.6493 86.0217 32.9686 85.4363 8.59595L85.357 5.28755L79.4647 4.47438C68.2511 2.92669 59.7197 2.30312 47.3334 2.12569C40.4915 2.02738 33.5205 2.02925 31.8423 2.12943ZM25.0356 4.2492C19.5358 4.68318 5.86931 6.38021 4.49811 6.80014C3.7475 7.03 3.67661 7.96489 3.67661 17.6733C3.67661 33.1793 5.02387 43.0385 8.4859 52.8668C11.786 62.2353 16.7389 70.0894 23.862 77.2497C29.1327 82.5478 33.4796 85.8309 39.7366 89.2385L43.6409 91.3648L47.0128 89.606C64.1962 80.6433 76.6177 64.6238 81.1692 45.5557C82.8625 38.4642 83.5014 32.1494 83.7971 19.5885C84.0576 8.51449 84.0083 7.11146 83.3497 6.85912C82.2363 6.43311 68.1098 4.72578 61.2308 4.186C54.1166 3.62797 32.4342 3.66589 25.0356 4.2492ZM29.805 10.329C29.6017 10.7499 29.5022 12.0139 29.5829 13.1379L29.7298 15.1809L33.2092 15.3199C35.6756 15.4187 36.8008 15.282 37.075 14.8518C37.6251 13.9867 37.5683 9.79721 37.006 9.79721C36.7478 9.79721 36.5365 10.8356 36.5365 12.1042V14.4113L33.9195 14.7376C32.4797 14.9169 31.1193 14.8794 30.8964 14.6542C30.6729 14.4291 30.419 13.1913 30.3321 11.9039C30.2265 10.3459 30.0505 9.81922 29.805 10.329ZM40.1075 10.5378C39.6296 11.7798 39.7892 14.2582 40.3858 14.8532C40.721 15.1875 42.3368 15.415 44.376 15.415H47.8028V13.7765C47.8028 12.1436 47.7958 12.138 45.6627 12.138C44.3553 12.138 43.6352 12.3201 43.8127 12.6061C43.9723 12.8636 44.7238 13.0742 45.4834 13.0742C46.4166 13.0742 46.8639 13.3093 46.8639 13.7989C46.8639 14.3902 46.3255 14.4979 43.93 14.3841L40.9961 14.2446V12.6061V10.9676L44.1647 10.829C48.4539 10.6418 48.2065 9.79721 43.8629 9.79721C41.1313 9.79721 40.3319 9.95498 40.1075 10.5378ZM50.6194 12.6061V15.415L54.2574 15.3607C58.1495 15.3026 58.0593 15.1772 53.788 14.7081C51.9009 14.5007 51.0888 14.21 51.0888 13.7428C51.0888 13.2376 51.7779 13.0742 53.9054 13.0742C55.47 13.0742 56.7219 12.8664 56.7219 12.6061C56.7219 12.3453 55.4573 12.138 53.8664 12.138C51.7911 12.138 51.0634 11.9778 51.2043 11.5528C51.3273 11.182 52.5501 10.9166 54.5438 10.829C58.6884 10.646 58.1401 9.79721 53.8777 9.79721H50.6194V12.6061ZM21.6322 10.608L19.6371 10.7873V13.6365V16.4856L23.0302 16.171C24.8966 15.9983 26.6344 15.6462 26.8926 15.3888C27.2057 15.0765 26.2312 15.0255 23.969 15.2347C21.1018 15.5007 20.576 15.4389 20.576 14.8345C20.576 14.0096 21.9364 13.5578 24.4488 13.5489C25.4397 13.5452 26.2091 13.3116 26.2091 13.0139C26.2091 12.6445 25.3604 12.5808 23.3926 12.8027C21.1121 13.0602 20.576 12.9933 20.576 12.4497C20.576 11.6431 21.9866 11.2166 24.6835 11.2082C25.781 11.2045 26.6786 10.991 26.6786 10.7335C26.6786 10.2747 25.6336 10.2485 21.6322 10.608ZM60.5205 11.1211C59.9192 12.2419 59.8586 14.4557 60.406 15.3157C60.652 15.7029 62.0373 15.9543 64.2717 16.018L67.7535 16.1172L67.899 13.828C67.9793 12.5691 67.8736 11.3763 67.6643 11.1773C67.4554 10.9784 65.8776 10.6694 64.1586 10.4905C61.3129 10.1947 60.9876 10.2508 60.5205 11.1211ZM11.5395 11.5322L9.77917 11.7264V14.5068C9.77917 16.0484 9.98854 17.2876 10.2486 17.2876C10.5068 17.2876 10.718 16.8962 10.718 16.4178C10.718 15.6968 11.2147 15.4964 13.6313 15.2446C17.006 14.893 17.4191 14.6088 17.2093 12.7802C17.0694 11.5593 16.883 11.431 15.1776 11.387C14.1448 11.3599 12.508 11.4254 11.5395 11.5322ZM61.2599 11.5139C61.0876 11.6853 60.9468 12.4156 60.9468 13.1356C60.9468 14.7717 62.0645 15.415 64.9059 15.415H67.0493V13.5972C67.0493 12.1075 66.8587 11.7279 65.9931 11.4966C64.5703 11.1165 61.6476 11.1272 61.2599 11.5139ZM69.9593 11.4268C70.14 11.6202 70.985 11.9193 71.837 12.0921C73.2984 12.3879 73.3946 12.5317 73.5298 14.6126C73.7171 17.5048 74.5602 17.472 74.5602 14.5728V12.3261L76.3205 12.5171C77.5392 12.6492 77.9363 12.5569 77.6115 12.2166C77.3533 11.9465 75.4521 11.5795 73.3866 11.4006C71.3211 11.2218 69.7791 11.2335 69.9593 11.4268ZM11.7742 12.4685C11.1138 12.5953 10.718 13.0101 10.718 13.5752C10.718 14.3317 11.056 14.4787 12.792 14.4787C15.4705 14.4787 16.3512 14.1187 16.3512 13.0242C16.3512 12.3009 16.0277 12.1497 14.5908 12.2016C13.6228 12.2367 12.3549 12.3566 11.7742 12.4685ZM37.4834 21.8164C36.4197 21.9648 35.1081 22.7288 33.728 24.0041C32.5619 25.0822 30.9738 26.452 30.1993 27.0484C29.4247 27.6449 30.9034 27.01 33.4853 25.6379L38.1795 23.1427L45.6904 23.0486C50.2833 22.991 52.7454 23.1085 52.0276 23.3515C51.3822 23.5696 49.9035 23.7958 48.7417 23.8533L46.6292 23.9587L49.105 24.3182C50.4668 24.5162 52.6848 25.1052 54.034 25.6262C55.3831 26.1477 57.4012 26.6791 58.5184 26.8069C59.7028 26.9422 61.9344 27.8391 63.8718 28.9575C65.6988 30.0123 67.2761 30.7936 67.377 30.6934C67.9126 30.1588 62.4743 26.2858 58.379 24.2854L53.6706 21.9854L46.3945 21.7869C42.3927 21.6779 38.3828 21.6914 37.4834 21.8164ZM32.8102 27.6378C31.6648 28.1448 29.7195 29.4992 28.4882 30.648L26.2495 32.7364L28.2244 32.7079C29.3106 32.692 31.3545 32.3179 32.767 31.8764C34.7921 31.243 35.6071 30.6803 36.6239 29.2132C37.3332 28.1898 37.9209 27.1945 37.9293 27.0016C37.9589 26.3369 34.8898 26.7184 32.8102 27.6378ZM44.5168 29.6265C41.7519 30.1995 40.7614 30.6564 40.7614 31.3596C40.7614 32.0323 43.6624 31.8526 44.9862 31.0979C46.4837 30.2445 48.6985 30.207 49.0153 31.03C49.1496 31.3793 48.7938 32.4523 48.2243 33.4143C47.2048 35.138 47.2015 35.2017 48.0023 37.7362C48.9675 40.7886 49.4852 40.7914 48.7149 37.7405C48.2295 35.8173 48.2821 35.4212 49.2524 33.6999C50.1129 32.1732 50.2377 31.5342 49.8781 30.508C49.35 29.002 48.337 28.8354 44.5168 29.6265ZM56.7665 30.1939C55.3709 30.8259 54.3175 31.4308 54.4255 31.5384C54.533 31.6461 55.6094 31.5239 56.8167 31.2669C59.3169 30.7351 59.7948 30.9102 62.8733 33.4873C64.0084 34.4377 65.9321 35.63 67.1484 36.137C69.6664 37.1871 70.0846 38.0302 70.5893 43.0745C70.8738 45.9199 70.7855 46.3689 69.442 48.9264C68.6416 50.4497 67.5436 52.2483 67.0024 52.9229C66.4611 53.5975 66.0917 54.5179 66.1818 54.9678C66.286 55.4907 67.3207 54.1602 69.0444 51.2863L71.7436 46.7865L71.7366 41.9851C71.7323 39.092 71.4962 36.7185 71.1427 36.0135C70.5865 34.9049 60.9341 28.9552 59.7934 29.0184C59.5239 29.0329 58.1621 29.5624 56.7665 30.1939ZM23.9634 32.2725C23.1156 32.7884 22.3101 33.5014 22.173 33.8581C22.0359 34.2144 20.1418 35.9142 17.9636 37.6356C15.786 39.3565 14.004 41.0652 14.004 41.4323C14.004 42.3606 14.4688 42.267 15.7325 41.083C17.1144 39.7881 17.7637 40.3513 16.5009 41.7501C14.8607 43.5675 14.7894 43.9827 15.9146 45.177C17.2924 46.6395 17.5829 46.6072 17.9144 44.9546C18.1693 43.684 18.4016 43.5581 21.5149 43.0034C23.3452 42.6771 24.9398 42.2539 25.0581 42.0633C25.4332 41.458 22.4302 39.2905 21.2163 39.2905C19.3283 39.2905 20.308 38.577 24.0822 37.2044C26.0265 36.4971 27.6174 35.8379 27.6174 35.7391C27.6174 35.6403 26.2974 35.6815 24.6835 35.8304L21.7496 36.1005L23.2752 35.1277C24.1141 34.5926 24.8009 33.7724 24.8009 33.3052C24.8009 32.838 25.0543 32.2027 25.3642 31.8938C26.18 31.0801 25.7205 31.2047 23.9634 32.2725ZM26.2091 34.4321C26.2091 35.0542 26.3363 35.0865 26.9133 34.609C27.3006 34.2883 27.6174 33.9466 27.6174 33.8497C27.6174 33.7523 27.3006 33.6727 26.9133 33.6727C26.526 33.6727 26.2091 34.0145 26.2091 34.4321ZM57.1707 41.2918C58.0673 45.1203 58.5456 46.1634 60.0126 47.4873C62.0293 49.3074 62.3551 50.6253 62.3551 56.9687C62.3551 63.9515 63.0648 62.711 55.3268 69.2519C52.4328 71.698 49.8655 74.0677 49.6218 74.5186C48.1882 77.1659 47.616 73.6075 48.7271 68.957C49.2106 66.9327 49.5472 65.2179 49.4754 65.1463C49.2266 64.8977 46.3945 72.8131 46.4067 73.7227C46.4138 74.225 46.7935 75.4666 47.2508 76.4824L48.0826 78.3293L49.174 76.5681C49.7744 75.5995 53.1688 72.4067 56.7177 69.4729C62.4245 64.7554 63.2348 63.9066 63.7263 62.1309C64.4083 59.6685 64.9411 50.2859 64.5219 48.1254C64.3313 47.1446 62.9545 45.0393 60.8862 42.5675C56.4107 37.2175 56.1994 37.145 57.1707 41.2918ZM37.5651 42.0994C37.5909 43.0006 37.581 44.0956 37.5435 44.5323C37.5059 44.9696 35.2813 48.2569 32.5995 51.8378C26.8598 59.5018 26.8903 59.4484 26.5053 62.4699C26.2448 64.5147 26.3673 65.0573 27.4583 66.6832C30.7339 71.565 37.2994 78.7038 39.5878 79.8718C40.8576 80.5197 40.7849 80.3667 38.8499 78.3152C36.5201 75.8458 34.2894 73.131 30.5138 68.1705C26.9917 63.5438 27.1334 62.3346 31.7949 57.2612C33.7514 55.1316 34.9367 53.2155 36.4286 49.7709C38.4326 45.1447 38.6734 43.8301 37.9195 41.6312C37.5561 40.5699 37.5228 40.6139 37.5651 42.0994ZM27.8521 44.2042C28.6267 44.5684 29.5313 44.8755 29.8617 44.8872C31.0081 44.9274 30.994 46.3104 29.8265 48.2972C29.1816 49.395 28.2352 50.6707 27.7244 51.1318C26.4917 52.2446 23.6141 52.6968 22.6809 51.9244C22.2852 51.5967 21.8641 51.4263 21.7444 51.5452C21.512 51.7774 23.1184 57.8989 23.5156 58.2949C23.6461 58.4251 24.4638 58.2041 25.3332 57.8034C26.7044 57.1714 26.7466 57.1068 25.651 57.3132C24.222 57.5833 24.023 57.3891 23.7921 55.501C23.6376 54.2417 23.8043 54.0924 26.4021 53.1603C28.9708 52.2385 29.2933 51.9557 30.7386 49.3557C31.5977 47.8108 32.3032 46.2729 32.3061 45.9377C32.3122 45.2903 30.1838 44.2781 27.8521 43.8193L26.4438 43.5422L27.8521 44.2042ZM19.0987 46.4836C18.457 46.9517 18.4284 47.1834 18.9278 47.8646C19.4775 48.615 19.5541 48.5799 19.8399 47.4428C20.2221 45.926 20.093 45.7589 19.0987 46.4836ZM26.227 50.0771C25.3332 50.8387 24.7624 51.4623 24.959 51.4623C25.759 51.4623 27.9916 50.0448 28.2497 49.373C28.6586 48.3103 28.0512 48.5219 26.227 50.0771ZM40.8759 59.6067C39.5221 63.6997 38.4142 67.3798 38.4142 67.7847C38.4142 68.6845 44.5173 81.1115 44.814 80.8156C44.9304 80.6995 44.1718 78.4674 43.1282 75.8551C42.0007 73.0322 41.2308 70.3315 41.2308 69.1971C41.2308 68.1475 41.7721 64.5653 42.433 61.2368C44.3764 51.4562 43.7789 50.8313 40.8759 59.6067Z" fill="#1F2937"/>
</svg>
