<svg width="70" height="95" viewBox="0 0 70 95" fill="none" xmlns="http://www.w3.org/2000/svg">
<path fill-rule="evenodd" clip-rule="evenodd" d="M23.3625 3.02174C22.5031 4.67603 16.895 15.3411 10.9002 26.7221L0 47.4149L12.4665 71.1442L24.9329 94.8736L27.6977 94.9724C30.0083 95.0554 30.5479 94.9703 30.9824 94.4558C31.7601 93.5354 55.6667 47.971 55.6667 47.4097C55.6667 47.001 47.6727 31.5686 42.3738 21.7475L40.8216 18.8704L39.1474 21.9993L37.4736 25.1284L43.307 36.1517C46.5155 42.2144 49.1404 47.2717 49.1404 47.3898C49.1404 48.0871 28.0412 87.4606 27.798 87.2168C27.2992 86.7168 6.8917 47.8522 6.8917 47.4025C6.8917 47.1704 11.3443 38.5412 16.7861 28.2266C22.2283 17.9121 27.8031 7.34239 29.1747 4.73801L31.6684 0.00309948L28.2964 0.00860946L24.9247 0.0144636L23.3625 3.02174ZM30.0883 16.9613C25.1827 26.29 19.5735 36.964 17.6236 40.682L14.0781 47.4418L21.5579 61.6141C28.2242 74.2452 29.0877 75.7197 29.4996 75.1715C30.0973 74.3753 32.3096 70.014 32.3096 69.6315C32.3096 69.47 29.7366 64.4689 26.592 58.5173C23.447 52.5658 20.8808 47.5416 20.8891 47.3522C20.9052 46.9817 41.4842 7.92297 41.8905 7.49218C42.0248 7.34996 46.6062 15.7178 52.0714 26.0875C57.5366 36.4575 62.3052 45.4886 62.6683 46.1566L63.3281 47.3715L50.9963 70.7534C44.2135 83.6134 38.6106 94.2685 38.5453 94.431C38.48 94.5939 39.9398 94.6824 41.7892 94.628L45.1515 94.5292L57.5758 70.9665L70 47.4035L67.9954 43.5901C66.8928 41.4926 61.3074 30.8661 55.5829 19.9758L45.1752 0.175278L42.0914 0.0878115L39.0076 0L30.0883 16.9613Z" fill="#1F2937"/>
</svg>
