<svg width="93" height="92" viewBox="0 0 93 92" fill="none" xmlns="http://www.w3.org/2000/svg">
<path fill-rule="evenodd" clip-rule="evenodd" d="M34.9603 1.29678C28.6133 2.91893 23.4261 5.38088 18.3332 9.18846C6.38076 18.1246 -0.0212214 30.9418 5.28501e-05 45.8905C0.00524168 49.3107 0.332138 53.6154 0.727008 55.4561C4.52264 73.1571 18.795 87.2183 36.9653 91.1593C42.5474 92.37 51.5843 92.2602 57.2246 90.913C71.0035 87.6221 82.2311 78.6628 88.495 65.9606C92.0307 58.7912 93 54.4865 93 45.9531C93 37.4042 92.0333 33.1262 88.4618 25.867C82.2705 13.2828 71.3688 4.61495 57.2406 1.04232C51.371 -0.441823 41.313 -0.326909 34.9603 1.29678ZM41.9518 1.16288C26.0184 2.59214 12.0361 12.345 5.21638 26.7874C2.21309 33.1477 1.49184 36.3007 1.18726 44.414C0.955317 50.5727 1.07362 52.2452 2.01643 56.1502C5.30667 69.7748 14.3871 80.8585 27.0463 86.7017C33.5832 89.7192 36.6431 90.3908 45.1341 90.6704C51.9558 90.8956 53.1269 90.7991 57.6817 89.6361C74.5994 85.3166 86.9809 72.7057 91.132 55.5654C92.2486 50.9534 92.2486 40.9527 91.132 36.3407C87.7639 22.4324 79.2849 11.7874 66.5593 5.48912C59.3862 1.93907 50.5746 0.389772 41.9518 1.16288ZM37.6969 4.94584C24.8021 7.7982 13.9845 16.2547 8.32346 27.9083C5.08822 34.5677 4.4365 37.651 4.45467 46.2096C4.46919 53.1106 4.5849 53.9884 6.05386 58.3511C9.95223 69.9303 17.5217 78.5566 28.2704 83.6698C34.8384 86.7935 38.0887 87.4769 46.4313 87.4876C54.5642 87.4984 59.0048 86.5673 65.0068 83.5939C75.5313 78.3791 82.8802 70.0739 86.7381 59.0349C88.3871 54.3172 88.4416 53.8986 88.4416 45.9531C88.4416 38.0075 88.3871 37.5889 86.7381 32.8712C84.5946 26.7376 81.7615 21.9805 77.6857 17.6732C72.268 11.9469 65.4255 7.76331 58.0174 5.64713C52.9209 4.19171 42.7015 3.83876 37.6969 4.94584ZM39.8223 8.23015C27.7209 10.4084 17.296 18.1708 11.897 29.0236C8.888 35.0726 8.05986 38.7247 8.05986 45.9531C8.05986 53.1814 8.888 56.8336 11.897 62.8825C16.7994 72.738 25.9753 80.1423 36.8319 83.0044C42.1251 84.3998 52.0726 84.2572 57.0684 82.7141C74.1593 77.4351 85.0881 63.0969 85.0881 45.9531C85.0881 28.92 74.1739 14.4992 57.3278 9.27465C53.2707 8.01623 44.0636 7.46679 39.8223 8.23015ZM42.7991 12.1588C37.4219 13.2059 36.313 13.5337 36.313 14.077C36.313 14.4217 38.2397 16.7452 40.5938 19.2399C42.948 21.7352 45.3063 24.4378 45.8335 25.2458C46.7779 26.6925 46.7763 26.7151 45.7334 26.7151C45.1507 26.7151 43.2017 25.4802 41.4017 23.9709C37.1697 20.4224 31.1761 16.4548 30.047 16.4548C28.4535 16.4548 19.5443 23.6513 20.2656 24.3557C20.3875 24.4747 22.5886 25.9517 25.1571 27.6374C27.7255 29.3232 30.6443 31.4122 31.6431 32.2792C33.4307 33.8311 33.439 33.8557 32.1583 33.8762C31.4428 33.888 28.2906 32.8604 25.1534 31.5933C17.6379 28.5578 16.9748 28.5747 15.3009 31.8406C13.7852 34.7971 12.1897 41.0456 12.805 41.6145C13.0349 41.8274 15.0461 42.4897 17.2747 43.0863C22.5237 44.4915 26.0008 46.2619 29.0502 49.0824C31.7822 51.609 34.0481 55.9861 34.5691 59.7434C34.884 62.015 34.8441 62.113 33.6014 62.113C32.8889 62.113 30.7605 61.4204 28.8723 60.5739C25.8783 59.2319 24.8457 59.0349 20.8005 59.0349C15.7025 59.0349 14.52 59.2899 14.52 60.3903C14.52 60.7935 16.0564 63.1929 17.9342 65.722L21.3485 70.3212L24.0311 70.3053C25.9541 70.2935 27.3016 69.9313 28.7892 69.0253L30.8648 67.7612L47.5645 67.7587L64.2637 67.7561L64.4282 69.1669C64.5709 70.393 64.8075 70.5685 66.235 70.5069C68.2129 70.4212 72.8206 68.341 74.9698 66.5629L76.5265 65.2752L75.0482 63.7413C73.4085 62.0396 68.2083 59.5346 66.0098 59.3868C64.82 59.3068 64.5657 59.5182 64.4282 60.7022C64.2964 61.8324 63.9991 62.113 62.9338 62.113C61.6693 62.113 61.6174 62.0047 61.8909 59.9327C62.0491 58.7332 62.5976 56.0209 63.1097 53.9048C63.7915 51.0863 64.0401 47.999 64.0385 42.362C64.0359 34.9684 63.9674 34.4687 62.2883 29.6223C59.7889 22.4078 54.3022 14.6418 50.2352 12.5626C48.9183 11.889 45.216 11.6884 42.7991 12.1588ZM49.9887 51.0165C46.2206 54.2208 50.2637 60.2287 54.6379 57.9252C56.3009 57.049 57.0352 55.8963 57.0352 54.1613C57.0352 52.4263 56.3009 51.2735 54.6379 50.3973C52.9215 49.4934 51.5677 49.6739 49.9887 51.0165Z" fill="#1F2937"/>
</svg>
