<svg width="171" height="101" viewBox="0 0 171 101" fill="none" xmlns="http://www.w3.org/2000/svg">
<path fill-rule="evenodd" clip-rule="evenodd" d="M73.3469 0.365794C54.4908 2.33652 36.8002 8.22468 22.607 17.254C16.6093 21.0697 6.58743 31.2089 4.02671 36.0517C-1.83408 47.1351 -1.30933 57.2565 5.68058 67.9496C12.0311 77.6648 26.2994 87.8001 41.7439 93.5658C64.0663 101.9 92.6761 103.335 116.65 97.324C134.591 92.8255 148.927 85.3039 159.253 74.9703C165.719 68.5004 169.44 61.9218 170.646 54.8304C174.551 31.8689 145.665 8.06677 106.032 1.58992C97.2594 0.156089 81.1328 -0.448392 73.3469 0.365794ZM74.3977 2.92268C49.7827 5.0949 26.7522 14.7249 13.5474 28.3671C5.28956 36.8993 2.08182 44.0489 2.72502 52.4889C4.17637 71.5234 27.6399 89.1026 61.098 96.2218C68.5993 97.818 70.1041 97.9235 85.3353 97.9235C100.664 97.9235 102.039 97.8256 109.853 96.1738C139.422 89.9225 162.216 74.7574 167.223 58.0037C176.166 28.0765 126.088 -1.63904 74.3977 2.92268ZM49.9878 22.8965C47.9728 28.0475 46.1184 32.4886 45.8668 32.7659C45.6146 33.0425 37.6994 34.9292 28.2761 36.9581C18.8535 38.9875 11.5739 40.806 12.0992 40.9999C12.6246 41.1932 20.2189 42.8361 28.9754 44.6496C37.7319 46.4636 45.2191 48.2556 45.6133 48.6321C46.0082 49.0085 47.9824 53.5797 50.0011 58.7908C52.0199 64.0018 53.8642 68.482 54.0998 68.7473C54.3354 69.012 56.3829 64.6157 58.6487 58.9771L62.7691 48.7255L81.0055 44.9155C91.0356 42.8197 99.3877 40.9595 99.566 40.7826C99.7437 40.6052 91.5279 38.6654 81.3086 36.4717C71.0893 34.2786 62.5417 32.2921 62.315 32.0572C62.0876 31.8222 60.2676 27.7929 58.2698 23.103C56.2721 18.4131 54.4157 14.3409 54.1444 14.0535C53.8731 13.7667 52.0021 17.746 49.9878 22.8965ZM128.792 21.8397C128.11 23.403 127.358 25.2853 127.123 26.0224C126.765 27.1468 125.566 27.6034 119.707 28.8484C115.864 29.6651 112.719 30.5058 112.719 30.7162C112.719 30.9265 115.849 31.7723 119.673 32.5953L126.628 34.0917L128.328 38.39C129.263 40.7542 130.267 42.5424 130.558 42.3636C130.85 42.1849 131.687 40.2521 132.42 38.0685L133.753 34.098L141.347 32.5833C145.524 31.7508 148.823 30.8785 148.677 30.6454C148.532 30.4124 145.134 29.5824 141.127 28.801L133.84 27.3805L131.937 23.1889L130.034 18.9973L128.792 21.8397ZM99.5176 46.4737C98.8241 48.0371 98.0663 49.913 97.8332 50.6426C97.4791 51.7517 96.2653 52.2071 90.4173 53.4243C86.5714 54.2246 83.4248 55.059 83.4248 55.2776C83.4248 55.4967 86.5701 56.3526 90.4154 57.1801L97.4053 58.684L99.105 62.9811C100.04 65.3447 101.008 67.1543 101.257 67.0021C101.505 66.8499 102.332 65.0269 103.095 62.952C103.901 60.7608 104.941 59.0472 105.576 58.8659C106.177 58.6941 109.607 57.9102 113.197 57.1238C116.787 56.3375 119.724 55.5188 119.724 55.3041C119.724 55.0893 116.305 54.2461 112.127 53.4306L104.529 51.9475L102.654 47.7894L100.779 43.6314L99.5176 46.4737ZM138.977 47.7819L137.074 51.9324L130.31 53.4047C126.59 54.2145 123.545 55.054 123.545 55.2706C123.545 55.4866 126.053 56.1991 129.118 56.8535C137.152 58.5684 137.055 58.5084 138.777 62.856C139.625 64.9941 140.53 66.8732 140.789 67.0324C141.049 67.1916 141.927 65.4792 142.741 63.228L144.221 59.135L151.555 57.4662C155.589 56.5484 159.106 55.6035 159.369 55.366C159.632 55.1291 156.382 54.2726 152.146 53.4629L144.443 51.9911L143.219 49.0742C140.72 43.1254 141.064 43.2296 138.977 47.7819ZM113.094 67.5586C111.678 70.8621 110.941 71.8417 109.62 72.1746C108.698 72.407 105.364 73.2054 102.211 73.9482L96.4799 75.2993L102.848 76.7262C106.351 77.5107 109.669 78.2769 110.222 78.4285C110.775 78.5801 111.961 80.4769 112.857 82.6434C113.753 84.81 114.734 86.4876 115.035 86.3714C115.338 86.2551 116.273 84.4979 117.113 82.4659L118.641 78.7721L123.163 77.7924C125.65 77.253 129.26 76.4843 131.186 76.0845C135.322 75.2254 135.112 75.1155 125.23 72.9711C119.675 71.7659 118.216 71.2183 117.806 70.1843C117.525 69.4762 116.754 67.6521 116.093 66.1304L114.891 63.3645L113.094 67.5586ZM71.1619 67.0684C70.9397 67.4247 70.1563 69.312 69.4208 71.2619L68.0834 74.8067L61.903 76.1502C52.5447 78.184 52.481 78.2958 59.9268 79.6128C63.5689 80.2565 66.9543 80.9892 67.4498 81.2399C67.9459 81.4913 69.1304 83.6471 70.0831 86.0309L71.8147 90.3652L72.768 88.1033C73.2921 86.859 73.9328 85.1555 74.1926 84.3173C75.0078 81.6871 75.6357 81.3871 83.4566 79.8926C87.654 79.0905 90.7255 78.2466 90.2816 78.0179C89.8377 77.7893 86.609 76.9612 83.1064 76.1786C79.6038 75.396 76.3699 74.5578 75.9197 74.3159C75.4701 74.0733 74.306 72.198 73.3335 70.1477C72.3611 68.098 71.3842 66.7122 71.1619 67.0684Z" fill="#1F2937"/>
</svg>
