<svg width="85" height="95" viewBox="0 0 85 95" fill="none" xmlns="http://www.w3.org/2000/svg">
<path fill-rule="evenodd" clip-rule="evenodd" d="M33.2156 0.249999C20.8049 1.67649 10.8791 3.9863 1.4157 7.65093L0 8.1993L1.14996 10.5865C2.47708 13.3403 1.74168 13.3569 10.2987 10.3829C30.825 3.24994 54.2224 3.33199 75.6324 10.6119C79.4181 11.8992 82.576 12.8823 82.6501 12.7961C82.7243 12.7099 83.2836 11.6427 83.8928 10.425L85 8.21021L83.5699 7.64937C75.1081 4.33111 62.9112 1.40127 53.6317 0.458235C48.6991 -0.0428806 36.8169 -0.163875 33.2156 0.249999ZM28.0657 8.58306C19.5175 9.70005 4.11886 14.2745 4.11886 15.6963C4.11886 16.5703 8.65486 20.6098 11.4528 22.2279C14.4526 23.9629 15.4486 24.1711 15.4486 23.065C15.4486 22.6584 16.0295 21.6297 16.7391 20.7791C18.1821 19.0499 20.5675 18.3473 26.6392 17.8638C30.1921 17.5808 30.3744 17.6208 30.6334 18.7383C30.9955 20.3003 42.2278 93.6896 42.2278 94.493C42.2278 97.16 43.4205 89.9549 48.3902 57.2718C51.5146 36.7224 54.1879 19.3973 54.3315 18.7715C54.5772 17.6976 54.8028 17.6483 58.3232 17.8965C64.3135 18.3192 66.7767 19.0359 68.2315 20.7791C68.9412 21.6297 69.5221 22.6584 69.5221 23.065C69.5221 24.2277 70.6319 23.9478 73.9299 21.9538C77.2582 19.9415 80.8518 16.6939 80.8518 15.6989C80.8518 14.4017 68.1502 10.4151 59.4799 8.9907C51.2576 7.64003 51.7417 7.4697 46.9132 13.4182C44.5952 16.2743 42.6187 18.6111 42.5214 18.6111C42.4235 18.6111 40.4491 16.2743 38.1332 13.4182C33.5297 7.74077 33.7388 7.84151 28.0657 8.58306Z" fill="#1F2937"/>
</svg>
