<svg width="159" height="101" viewBox="0 0 159 101" fill="none" xmlns="http://www.w3.org/2000/svg">
<path fill-rule="evenodd" clip-rule="evenodd" d="M68.5451 0.500273C26.5052 4.70437 -2.38419 27.279 0.155099 53.9427C1.95328 72.8303 19.7338 89.3284 46.2727 96.7345C67.1612 102.564 94.0714 102.406 114.143 96.3377C142.337 87.8131 159 70.8931 159 50.7895C159 33.9693 148.078 19.9719 127.405 10.3012C110.326 2.31105 87.8554 -1.43082 68.5451 0.500273ZM63.4353 7.77234C35.9525 11.9163 25.6978 23.1617 41.7753 31.5257C46.548 34.0089 57.5243 37.3015 59.6463 36.8865C60.4748 36.7243 61.3727 34.7513 62.3533 30.9333C65.324 19.3681 71.9464 9.69658 77.6187 8.63813C85.4004 7.18601 93.5222 16.6808 97.0725 31.3795C98.6226 37.798 98.5407 37.7576 106.097 35.8463C115.898 33.367 123.948 28.5339 124.984 24.5057C126.01 20.5133 123.121 16.926 116.053 13.4164C110.143 10.4817 104.576 9.00136 94.5496 7.69924C84.1233 6.34458 72.7265 6.37123 63.4353 7.77234ZM75.1036 22.1581C72.7858 24.5575 70.3745 30.1604 68.95 36.454L68.4764 38.548H79.5105H90.5445L90.0522 36.0732C88.8149 29.852 86.7827 25.2093 84.0851 22.4414C80.5098 18.7726 78.4386 18.7071 75.1036 22.1581ZM16.7537 31.0285C12.7548 36.9802 11.2976 42.6973 11.75 50.657C12.2134 58.7903 14.2152 63.963 19.6238 70.9967C28.947 83.1224 47.6933 92.4504 67.0262 94.5856L71.9768 95.1323L70.6069 93.3018C67.7813 89.5264 63.7895 80.5996 62.23 74.5703C61.3422 71.1383 60.3725 64.295 60.0753 59.3629L59.5347 50.395L51.1094 48.3132C36.2052 44.6314 26.4397 38.7894 21.727 30.7353L19.5036 26.9356L16.7537 31.0285ZM138.039 29.801C135.106 37.7203 120.575 46.0752 104.314 49.1934L99.9441 50.031L99.4449 57.9915C98.5618 72.0909 94.5629 85.4106 89.1246 92.3697L87.1494 94.897H89.4437C93.1298 94.897 103.728 92.7421 109.548 90.8095C127.554 84.8304 140.868 73.5362 145.929 59.95C147.998 54.3943 148.149 42.8397 146.219 37.7866C144.938 34.4323 140.306 27.1305 139.459 27.1275C139.223 27.1267 138.584 28.3298 138.039 29.801ZM67.726 54.389C67.7267 62.4141 72.207 75.1597 76.0701 78.1256C78.9043 80.3019 81.2041 80.0453 84.0149 77.24C87.8242 73.4364 90.6607 64.777 91.284 55.0484L91.5196 51.369L79.6228 51.241L67.7252 51.1123L67.726 54.389Z" fill="#1F2937"/>
</svg>
