<svg width="104" height="101" viewBox="0 0 104 101" fill="none" xmlns="http://www.w3.org/2000/svg">
<path fill-rule="evenodd" clip-rule="evenodd" d="M42.6045 0.496726C22.4013 4.25696 6.53639 18.604 1.22692 37.9161C0.124525 41.9256 0 43.1975 0 50.4269C0 57.7004 0.120766 58.9168 1.25747 63.0729C3.6991 72.001 8.61995 80.2292 15.3269 86.5982C23.2481 94.1201 32.8859 98.8994 43.4846 100.561C49.1629 101.451 59.9778 100.932 65.4861 99.5054C84.7118 94.5252 99.6242 78.9715 103.287 60.0788C104.238 55.1722 104.238 45.6817 103.287 40.775C100.239 25.0548 89.5053 11.7177 74.1845 4.61519C67.2233 1.38839 61.9655 0.237367 53.2685 0.0359505C48.3834 -0.0767141 44.8718 0.0750385 42.6045 0.496726ZM45.8703 4.94767C41.7225 5.49489 37.0568 6.83675 37.0568 7.48285C37.0568 8.2085 51.5825 39.8433 51.9175 39.847C52.2418 39.8507 66.3126 9.41102 66.7191 7.82636C66.9531 6.91493 66.6383 6.75812 62.8015 5.87657C57.8059 4.72878 50.5473 4.33054 45.8703 4.94767ZM26.0079 12.3716C22.2998 14.7426 17.2028 19.4 14.3608 23.014L12.2251 25.7304L24.288 49.3449C30.9226 62.333 36.5375 72.9598 36.7659 72.9598C36.9938 72.9598 39.1441 68.4592 41.5439 62.958C43.9442 57.4567 46.1151 52.6908 46.3684 52.367C46.7053 51.9362 48.2147 51.8125 51.9758 51.9072L57.1222 52.0364L61.8466 62.5128C64.4452 68.2748 66.7614 72.9272 66.994 72.8513C67.2261 72.7754 72.8495 62.2231 79.4902 49.4014L91.5635 26.0891L90.6251 24.3701C88.5655 20.5993 75.8583 9.6782 74.8283 10.7943C74.6685 10.9676 70.7683 19.2832 66.1623 29.2736C61.5558 39.2639 57.5902 47.6968 57.3496 48.0127C57.0494 48.4081 55.3934 48.5875 52.0472 48.5875C47.5169 48.5875 47.1344 48.5162 46.4986 47.5528C46.1227 46.984 42.0796 38.4477 37.5135 28.5838C32.9474 18.7199 29.168 10.6039 29.1144 10.5482C29.0613 10.4921 27.6633 11.313 26.0079 12.3716ZM82.3923 61.9748C74.7737 76.91 68.2176 89.3022 67.8234 89.5128C67.4291 89.7239 66.7722 89.7133 66.3638 89.4898C65.9555 89.2663 62.5961 82.5506 58.8985 74.5666C55.2012 66.5821 52.0233 60.2126 51.8367 60.4118C51.6502 60.6109 48.6061 67.0852 45.0724 74.7992C41.5387 82.5133 38.3133 89.0755 37.9045 89.3817C37.4336 89.7349 36.8782 89.7901 36.3871 89.533C35.9614 89.31 29.3823 77.0098 21.7674 62.1987C14.1531 47.3882 7.79855 35.2659 7.64724 35.2609C7.23561 35.2471 5.90624 40.2085 5.29114 44.0542C4.57359 48.5401 5.02517 57.0727 6.21544 61.5306C9.80129 74.9584 19.4837 86.2667 32.392 92.1031C38.5384 94.8825 44.0607 96.0464 51.3889 96.1085C55.0269 96.1393 58.9351 95.9089 60.552 95.5682C79.0884 91.6621 93.0272 78.9527 97.7676 61.6345C98.8541 57.6646 99.0087 56.2289 98.9969 50.197C98.9866 44.6456 98.7906 42.6011 97.9927 39.7219C97.4472 37.7547 96.8307 35.8467 96.6225 35.4825C96.364 35.0305 91.8459 43.4417 82.3923 61.9748Z" fill="#1F2937"/>
</svg>
