<svg width="102" height="101" viewBox="0 0 102 101" fill="none" xmlns="http://www.w3.org/2000/svg">
<path fill-rule="evenodd" clip-rule="evenodd" d="M41.0047 0.768636C21.842 4.65836 6.49797 19.0231 1.47114 37.7796C-0.13926 43.7876 -0.478985 53.5954 0.70786 59.8262C4.34237 78.909 17.8629 93.6879 37.0146 99.5122C41.3954 100.845 42.6365 100.978 50.8677 100.998C58.6495 101.019 60.5032 100.852 64.1766 99.8049C72.9804 97.2947 79.536 93.5134 86.4067 86.9812C95.5962 78.245 100.584 67.9954 101.75 55.4514C102.791 44.2451 100.6 34.4021 94.8916 24.6387C93.0615 21.5079 92.5163 20.1126 92.8932 19.5213C93.9206 17.9103 94.7294 18.3402 96.754 21.5756C97.9957 23.5601 99.1929 24.868 99.7716 24.8718C100.656 24.8772 100.73 23.9509 100.73 12.9528V1.02773H88.6757C74.7224 1.02773 74.4182 1.16921 80.1777 4.99172L83.7349 7.35179L82.5031 8.49659L81.2714 9.64139L77.7974 7.45641C69.7185 2.37526 60.7871 -0.0726209 50.5937 0.0016395C47.2786 0.0260316 42.9636 0.370774 41.0047 0.768636ZM42.6485 13.2162C40.6896 13.6504 36.7444 15.1443 33.8814 16.5351C29.5253 18.6518 27.9138 19.8259 24.0037 23.7324C19.2716 28.4613 15.5779 34.2855 14.2541 39.1065L13.6958 41.1392H50.9225H88.1486L87.805 39.6486C87.1179 36.6684 83.199 29.4109 80.6264 26.3532C75.8155 20.6352 70.0122 16.7379 62.6484 14.2791C57.1843 12.4546 48.2277 11.9787 42.6485 13.2162ZM35.2584 46.2924C32.5433 47.2491 31.6897 48.3657 31.6897 50.9605C31.6897 52.4961 32.0343 53.2534 33.1148 54.0946C37.3674 57.4033 44.8403 55.3576 44.8403 50.8852C44.8403 48.4275 44.0534 47.3418 41.5576 46.3537C38.8924 45.2988 38.1017 45.2913 35.2584 46.2924ZM77.8884 46.0496C75.9525 46.6296 73.8813 48.8791 73.8813 50.4017C73.8813 53.2555 77.0922 55.7744 80.7306 55.7744C83.2894 55.7744 86.3448 54.1635 87.0697 52.4322C88.8631 48.1495 83.4462 44.3833 77.8884 46.0496ZM14.1555 46.4962C14.1555 46.7597 14.6284 47.0979 15.207 47.247C15.8086 47.4031 17.156 49.1642 18.3576 51.3665L20.4568 55.214L23.1965 55.215L25.9363 55.2156L27.8765 51.5654C28.9439 49.5577 30.3614 47.6741 31.0272 47.3798C33.0781 46.4729 32.3833 46.0176 28.9499 46.0176C27.1236 46.0176 25.6623 46.2583 25.6623 46.5596C25.6623 46.8578 26.0321 47.1017 26.4842 47.1017C27.6234 47.1017 27.5242 47.6638 25.8639 50.6022L24.4212 53.1553L22.8502 50.3128C21.9856 48.7495 21.2787 47.3873 21.2787 47.286C21.2787 47.1846 21.7719 47.1017 22.3746 47.1017C22.9774 47.1017 23.4705 46.8578 23.4705 46.5596C23.4705 46.2409 21.5527 46.0176 18.813 46.0176C16.2514 46.0176 14.1555 46.2333 14.1555 46.4962ZM45.6622 46.5596C45.4759 46.8578 45.8315 47.1017 46.4518 47.1017C47.4748 47.1017 47.58 47.4296 47.58 50.625C47.58 53.7868 47.4677 54.1483 46.4841 54.1483C45.8814 54.1483 45.3882 54.3922 45.3882 54.6903C45.3882 55.0226 48.0364 55.2324 52.2375 55.2324H59.0868V53.3672C59.0868 51.5991 57.9969 50.0656 57.5926 51.2652C57.1241 52.6555 55.9345 53.6187 54.2923 53.938L52.5115 54.2838V50.6928C52.5115 47.8622 52.6857 47.1017 53.3334 47.1017C53.7855 47.1017 54.1553 46.8578 54.1553 46.5596C54.1553 46.2469 52.4309 46.0176 50.0781 46.0176C47.8353 46.0176 45.8485 46.2615 45.6622 46.5596ZM56.3471 46.5596C56.3471 46.8578 56.8227 47.1017 57.4046 47.1017C58.1537 47.1017 59.1235 48.2877 60.7306 51.167L62.9991 55.2324H65.655H68.3109L70.4446 51.3026C71.9618 48.5083 72.9251 47.3228 73.7777 47.1993C76.2845 46.8377 74.8358 46.0176 71.6895 46.0176C68.324 46.0176 67.8501 46.2577 69.1339 47.3131C69.7328 47.8053 69.5931 48.3999 68.3668 50.5784L66.8676 53.242L65.4429 50.4608C63.7328 47.1223 63.7306 47.1017 65.1142 47.1017C65.7169 47.1017 66.2101 46.8578 66.2101 46.5596C66.2101 46.2382 64.2008 46.0176 61.2786 46.0176C58.3564 46.0176 56.3471 46.2382 56.3471 46.5596ZM36.934 47.9532C35.9192 48.9577 35.7872 52.5644 36.7307 53.4978C38.4036 55.1527 40.4567 53.5699 40.4567 50.625C40.4567 47.5657 38.6847 46.222 36.934 47.9532ZM79.1388 48.2768C77.9722 49.9241 78.0363 51.5844 79.3262 53.1396C80.1897 54.1803 80.5733 54.3077 81.381 53.8209C82.9968 52.8479 83.5705 50.5204 82.6116 48.8303C81.541 46.944 80.2303 46.7347 79.1388 48.2768ZM14.2541 62.1435C15.6004 67.0474 19.236 72.7871 23.9867 77.5121C27.8919 81.3948 29.5466 82.5987 33.8814 84.7083C50.1975 92.6488 69.0128 88.7 80.6264 74.8968C83.199 71.8391 87.1179 64.5816 87.805 61.6014L88.1486 60.1108H50.9225H13.6958L14.2541 62.1435Z" fill="#1F2937"/>
</svg>
