<svg width="36" height="36" viewBox="0 0 36 36" fill="none" xmlns="http://www.w3.org/2000/svg">
<path fill-rule="evenodd" clip-rule="evenodd" d="M17.1368 0.0934028C16.2275 0.349908 16.4798 0.115769 8.3936 8.20759C4.19343 12.4107 0.664222 15.9887 0.550861 16.1587C-0.318613 17.4625 -0.143623 19.2071 0.968365 20.3213C1.62186 20.9761 2.40324 21.298 3.34298 21.2995L3.85187 21.3004L3.85292 26.9446C3.85405 33.1451 3.84794 33.0461 4.28215 33.9083C4.60321 34.5459 5.36059 35.2787 6.02784 35.5973C6.31738 35.7355 6.74169 35.8828 6.9708 35.9243C7.22791 35.971 8.60025 36 10.5578 36H13.7282L13.9603 35.8417C14.0879 35.7547 14.2584 35.5942 14.3392 35.485C14.4838 35.2894 14.4865 35.2173 14.5211 30.5969C14.5499 26.7468 14.5739 25.8757 14.6549 25.7314C14.8846 25.322 15.1202 25.0903 15.4933 24.9067L15.8899 24.7115H17.9605C19.9125 24.7115 20.0494 24.72 20.3479 24.8584C20.522 24.9392 20.7713 25.1123 20.9019 25.2431C21.3832 25.7254 21.3612 25.487 21.4 30.632C21.4346 35.2168 21.4372 35.2895 21.5819 35.485C21.6627 35.5942 21.8332 35.7547 21.9608 35.8417L22.1929 36H25.3633C27.3208 36 28.6932 35.971 28.9503 35.9243C30.38 35.6646 31.6931 34.3676 31.9922 32.9195C32.0444 32.6671 32.0692 30.7304 32.0692 26.9236V21.3004H32.5829C33.5034 21.3004 34.31 20.9654 34.9615 20.3126C35.3893 19.8839 35.757 19.2256 35.8348 18.7493C35.8586 18.6033 35.9055 18.4669 35.939 18.4462C35.9726 18.4254 36 18.1869 36 17.9161C36 17.6453 35.9723 17.4409 35.9386 17.4618C35.9048 17.4827 35.8579 17.3817 35.8343 17.2374C35.8108 17.093 35.6945 16.7692 35.576 16.5177C35.3763 16.0939 34.8043 15.5027 27.731 8.4086C23.5347 4.20001 19.9626 0.663734 19.7929 0.550146C19.064 0.0621045 17.9356 -0.131945 17.1368 0.0934028ZM0.0148714 17.9947C0.0148714 18.2848 0.0272954 18.4036 0.0423868 18.2585C0.0575484 18.1134 0.0575484 17.8761 0.0423868 17.731C0.0272954 17.5859 0.0148714 17.7046 0.0148714 17.9947Z" fill="#2563EB"/>
</svg>
