<?xml version="1.0" standalone="no"?>
<!DOCTYPE svg PUBLIC "-//W3C//DTD SVG 20010904//EN" "http://www.w3.org/TR/2001/REC-SVG-20010904/DTD/svg10.dtd">
<svg xmlns="http://www.w3.org/2000/svg" version="1.0" width="480.000000pt" height="270.000000pt" viewBox="0 0 480.000000 270.000000" preserveAspectRatio="xMidYMid meet">
<metadata>
Created by potrace 1.16, written by Peter Selinger 2001-2019
<meta name="Producer" content="Online-Convert"/></metadata>
<g transform="translate(0.000000,270.000000) scale(0.100000,-0.100000)" fill="#000000" stroke="none">
<path d="M783 2145 c-123 -62 -205 -176 -207 -290 l-1 -60 40 3 c139 13 278 166 292 323 l6 59 -30 0 c-17 0 -62 -16 -100 -35z"/>
<path d="M3980 1520 l0 -590 70 0 70 0 0 590 0 590 -70 0 -70 0 0 -590z"/>
<path d="M805 1765 c-33 -7 -91 -25 -130 -40 -84 -32 -116 -30 -235 14 -54 19 -104 31 -136 31 -78 0 -174 -34 -243 -86 l-61 -46 0 -421 0 -422 46 -70 c151 -226 229 -264 412 -196 113 42 186 42 290 0 65 -26 87 -30 143 -27 54 3 75 9 110 33 54 38 158 176 209 280 60 121 60 124 -1 160 -64 37 -121 106 -149 182 -18 48 -21 74 -18 148 3 79 8 98 38 154 20 36 54 81 82 105 26 22 48 46 48 52 0 20 -90 95 -143 119 -44 20 -159 47 -192 44 -5 0 -37 -7 -70 -14z"/>
<path d="M1727 1740 c-64 -16 -137 -52 -137 -67 0 -18 27 -83 35 -83 3 0 25 10 48 22 36 19 58 23 144 23 87 0 106 -3 130 -21 35 -25 60 -76 65 -129 l3 -40 -85 -7 c-254 -19 -384 -109 -398 -273 -6 -81 13 -137 66 -188 96 -93 271 -90 380 8 l49 45 7 -50 7 -50 62 0 62 0 -3 272 c-2 150 -7 296 -13 324 -16 81 -64 152 -129 188 -50 28 -64 31 -155 33 -55 1 -117 -2 -138 -7z m293 -485 c0 -65 -5 -95 -19 -123 -37 -72 -104 -112 -186 -112 -91 0 -135 47 -135 144 0 44 5 60 26 86 47 55 139 87 257 89 l57 1 0 -85z"/>
<path d="M2573 1731 c-60 -20 -112 -58 -145 -103 l-23 -33 -5 70 -5 70 -63 3 -62 3 2 -573 3 -573 70 0 70 0 5 218 5 219 21 -29 c36 -48 118 -86 199 -91 220 -14 376 141 392 389 14 208 -73 371 -228 430 -63 24 -167 24 -236 0z m143 -106 c60 -17 113 -69 146 -140 19 -42 23 -66 23 -155 -1 -126 -23 -187 -90 -249 -119 -110 -321 -52 -365 104 -18 66 -9 270 14 315 36 68 92 114 161 131 46 11 57 10 111 -6z"/>
<path d="M3432 1736 c-54 -18 -117 -61 -144 -99 -26 -36 -36 -26 -40 43 l-3 55 -63 3 -62 3 2 -573 3 -573 70 0 70 0 3 217 2 218 39 -39 c88 -88 245 -106 375 -42 134 66 206 202 206 393 0 178 -71 312 -203 380 -53 27 -190 35 -255 14z m135 -111 c101 -30 163 -123 171 -258 6 -98 -12 -185 -50 -242 -97 -146 -320 -130 -394 28 -21 45 -24 67 -24 162 0 61 5 127 10 147 22 76 98 150 173 168 48 12 59 11 114 -5z"/>
<path d="M4429 1727 c-102 -43 -164 -109 -211 -226 -19 -47 -22 -75 -22 -181 0 -108 3 -133 24 -185 32 -82 114 -164 195 -195 73 -28 229 -37 320 -18 l60 13 3 59 3 58 -28 -7 c-248 -62 -418 17 -440 206 l-6 49 237 0 236 0 0 184 0 183 -37 26 c-90 62 -230 76 -334 34z m199 -92 c71 -30 114 -91 127 -178 l7 -47 -216 0 c-119 0 -216 4 -216 8 0 36 37 120 68 154 65 72 151 95 230 63z"/>
</g>
</svg>
