<svg width="41" height="41" viewBox="0 0 41 41" fill="none" xmlns="http://www.w3.org/2000/svg">
<circle cx="20.5" cy="20.5" r="20.5" fill="white"/>
<path d="M14 19C13.4477 19 13 19.4477 13 20C13 20.5523 13.4477 21 14 21L14 19ZM28.7071 20.7071C29.0976 20.3166 29.0976 19.6834 28.7071 19.2929L22.3431 12.9289C21.9526 12.5384 21.3195 12.5384 20.9289 12.9289C20.5384 13.3195 20.5384 13.9526 20.9289 14.3431L26.5858 20L20.9289 25.6569C20.5384 26.0474 20.5384 26.6805 20.9289 27.0711C21.3195 27.4616 21.9526 27.4616 22.3431 27.0711L28.7071 20.7071ZM14 20L14 21L28 21L28 20L28 19L14 19L14 20Z" fill="#2563EB"/>
</svg>
