<svg width="32" height="36" viewBox="0 0 32 36" fill="none" xmlns="http://www.w3.org/2000/svg">
<path d="M32 32.4C32 33.3548 31.6254 34.2705 30.9586 34.9456C30.2918 35.6207 29.3874 36 28.4444 36H3.55556C2.61256 36 1.70819 35.6207 1.0414 34.9456C0.374602 34.2705 0 33.3548 0 32.4C0 29.5357 1.12381 26.7886 3.12419 24.7632C5.12458 22.7379 7.83769 21.6 10.6667 21.6H21.3333C24.1623 21.6 26.8754 22.7379 28.8758 24.7632C30.8762 26.7886 32 29.5357 32 32.4ZM16 18C17.7581 18 19.4766 17.4722 20.9384 16.4832C22.4002 15.4943 23.5395 14.0887 24.2123 12.4442C24.885 10.7996 25.0611 8.99002 24.7181 7.24419C24.3751 5.49836 23.5285 3.89472 22.2854 2.63604C21.0423 1.37737 19.4584 0.520203 17.7341 0.172937C16.0099 -0.17433 14.2226 0.0038995 12.5984 0.685088C10.9741 1.36628 9.58588 2.51983 8.60916 3.99987C7.63243 5.47991 7.11111 7.21997 7.11111 9C7.11111 11.387 8.04762 13.6761 9.71461 15.364C11.3816 17.0518 13.6425 18 16 18Z" fill="#2563EB"/>
</svg>
