<svg width="36" height="35" viewBox="0 0 36 35" fill="none" xmlns="http://www.w3.org/2000/svg">
<path fill-rule="evenodd" clip-rule="evenodd" d="M1.15011 0.0637279C0.729282 0.163562 0.376404 0.45843 0.168057 0.884365C0.00192108 1.22394 -0.0208959 1.34175 0.0140426 1.68019C0.063812 2.16281 0.303247 2.55288 0.718444 2.82785L1.01549 3.0246L2.80349 3.06025C4.49251 3.09391 4.60346 3.10446 4.80795 3.25036C4.92703 3.3353 5.06386 3.4797 5.11206 3.57126C5.16026 3.66282 6.35694 7.20337 7.7713 11.4392C10.8125 20.5471 10.6117 19.6695 10.1149 21.6805C9.75082 23.1543 9.71723 23.7728 9.95852 24.5603C10.3504 25.8391 11.2649 26.7799 12.5376 27.2139L13.0052 27.3733L22.6734 27.3752L32.3415 27.377L32.6558 27.2111C32.8287 27.1199 33.0663 26.9085 33.184 26.7414C33.3775 26.4665 33.3979 26.3847 33.3979 25.8795C33.3979 25.3743 33.3775 25.2925 33.184 25.0176C33.0663 24.8505 32.8287 24.6391 32.6558 24.5479L32.3415 24.382H22.9742C15.1748 24.382 13.5673 24.3655 13.3714 24.2837C13.068 24.1569 12.827 23.8479 12.827 23.5858C12.827 23.2282 13.1957 21.8897 13.3474 21.6969C13.6601 21.2994 13.279 21.3157 22.2819 21.3157C28.6574 21.3157 30.669 21.2952 30.894 21.2279C31.0611 21.178 31.3135 21.0144 31.4801 20.8481C31.7687 20.5599 31.8018 20.4684 33.8866 14.2136C35.0492 10.7253 36.0002 7.77549 36 7.65855C35.9989 7.08108 35.6582 6.5312 35.1366 6.265C34.8711 6.12958 34.598 6.12659 22.4022 6.12616C14.1608 6.12595 9.85064 6.1012 9.67766 6.05314C9.16734 5.91137 9.05647 5.6921 8.21766 3.16458C7.52973 1.09152 7.41329 0.797509 7.17129 0.521254C6.72914 0.0165206 6.57334 -0.00729703 3.77634 0.00118887C2.45995 0.00525355 1.2781 0.0333498 1.15011 0.0637279ZM11.294 29.0419C10.232 29.3933 9.48849 30.177 9.22004 31.2278C8.65981 33.4202 10.7061 35.4667 12.8983 34.9064C13.8099 34.6734 14.4772 34.1192 14.9136 33.2325C15.1313 32.7902 15.1443 32.7199 15.1443 31.978C15.1443 31.2425 15.1298 31.1614 14.9172 30.7127C14.6024 30.048 14.1358 29.5719 13.4832 29.2493C12.9955 29.0082 12.8914 28.9841 12.2645 28.9666C11.8365 28.9547 11.4721 28.9829 11.294 29.0419ZM29.5475 29.0419C28.4856 29.3933 27.7421 30.177 27.4736 31.2278C26.9134 33.4202 28.9596 35.4667 31.1518 34.9064C32.0634 34.6734 32.7308 34.1192 33.1672 33.2325C33.3849 32.7902 33.3979 32.7199 33.3979 31.978C33.3979 31.2425 33.3833 31.1614 33.1708 30.7127C32.856 30.048 32.3894 29.5719 31.7367 29.2493C31.249 29.0082 31.1449 28.9841 30.5181 28.9666C30.0901 28.9547 29.7256 28.9829 29.5475 29.0419Z" fill="#2563EB"/>
</svg>
