<svg width="39" height="34" viewBox="0 0 39 34" fill="none" xmlns="http://www.w3.org/2000/svg">
<path fill-rule="evenodd" clip-rule="evenodd" d="M24.5568 1.86805C22.1528 2.8953 20.0742 3.81945 19.9379 3.92178C19.4706 4.2725 19.4636 4.32829 19.4643 7.69493C19.465 10.7773 19.5185 11.8639 19.7305 13.0972C19.9844 14.5747 20.2925 15.5486 20.9065 16.8141C22.1947 19.469 24.3734 21.5997 28.0916 23.8411C28.6996 24.2076 28.8223 24.2535 29.1938 24.2535C29.5653 24.2535 29.6881 24.2076 30.2961 23.8411C33.2839 22.04 35.295 20.2821 36.6605 18.278C37.4502 17.119 38.1646 15.4497 38.4713 14.0462C38.6549 13.2062 38.8429 11.9627 38.8648 11.4439C38.8741 11.2243 38.9029 11.8134 38.9289 12.7528C38.955 13.6922 38.9609 12.2444 38.942 9.53535C38.9044 4.14269 38.9155 4.26825 38.4498 3.92527C38.0521 3.63248 29.4737 -0.000531328 29.1811 5.8287e-08C29.02 0.000227795 27.3366 0.68025 24.5568 1.86805ZM1.69852 7.42848C0.964046 7.68195 0.487496 8.12414 0.196884 8.82192C0.0982898 9.05877 0.0793616 9.544 0.0793616 11.8394V14.5747H8.8096H17.5398L17.4335 14.0243C17.1775 12.699 17.0944 11.7187 17.0541 9.54552L17.0122 7.28713L9.55296 7.28963C2.57606 7.29191 2.06827 7.30087 1.69852 7.42848ZM32.3592 7.41633C32.1171 7.51654 31.7164 7.97353 30.0689 10.0288L28.0721 12.5198L27.2856 11.3366C26.3548 9.93662 26.1543 9.75428 25.545 9.75428C25.035 9.75428 24.6612 9.98862 24.4448 10.4439C24.1747 11.0125 24.2522 11.1899 25.7449 13.4191C27.1961 15.5862 27.3826 15.7852 27.9661 15.7881C28.5353 15.7908 28.6418 15.6812 31.3377 12.315C32.7555 10.5447 33.9507 9.0051 33.9938 8.89381C34.107 8.60147 34.0302 8.0981 33.8295 7.81662C33.6408 7.55199 33.1456 7.2891 32.8426 7.29267C32.7381 7.29396 32.5206 7.3496 32.3592 7.41633ZM0.0206766 25.7908L0.0413532 32.1484L0.240517 32.5725C0.493654 33.1115 0.901332 33.5186 1.44113 33.7714L1.86576 33.9703L19.309 33.99C38.4776 34.0115 37.1324 34.0433 37.8759 33.5514C38.274 33.2882 38.6551 32.766 38.7863 32.3039C38.8344 32.1348 38.902 31.9642 38.9368 31.9245C38.9716 31.8848 39 29.042 39 25.6071C39 20.6347 38.9806 19.3694 38.9048 19.3985C38.8524 19.4185 38.6899 19.6124 38.5437 19.8294C37.8091 20.9191 36.261 22.5397 34.9711 23.5693C33.6002 24.6634 31.2207 26.1915 30.4006 26.5043C29.822 26.7252 28.9723 26.7703 28.3582 26.6131C27.4028 26.3684 25.0939 24.9215 23.1789 23.3676C22.2119 22.5829 20.7594 21.0719 20.1098 20.1748L19.5777 19.4399L9.78885 19.4365L0 19.4331L0.0206766 25.7908ZM0.0396048 25.6959C0.0396048 29.1613 0.0489549 30.59 0.0603574 28.8709C0.0716839 27.1517 0.0717599 24.3164 0.0603574 22.5702C0.0489549 20.8239 0.0396048 22.2305 0.0396048 25.6959ZM5.56626 24.4192C5.42738 24.4875 5.22213 24.6634 5.11016 24.81C4.81879 25.1915 4.81924 25.8213 5.11122 26.2035C5.50256 26.7159 5.53388 26.7207 8.51723 26.7207C11.5006 26.7207 11.5319 26.7159 11.9232 26.2035C12.0898 25.9855 12.128 25.8553 12.128 25.5061C12.128 25.1569 12.0898 25.0267 11.9232 24.8087C11.5315 24.2957 11.5023 24.2913 8.50576 24.2932C6.17363 24.2948 5.78526 24.3114 5.56626 24.4192Z" fill="#2563EB"/>
</svg>
