<svg width="32" height="32" viewBox="0 0 32 32" fill="none" xmlns="http://www.w3.org/2000/svg">
<path fill-rule="evenodd" clip-rule="evenodd" d="M6.37658 0.0912047C3.93708 0.530245 1.89418 2.2157 1.07976 4.46109C0.691068 5.53292 0.689256 5.55844 0.302013 15.7075C-0.0974062 26.175 -0.0970437 25.9819 0.28172 27.167C0.635116 28.2727 1.18137 29.1628 2.00536 29.9756C2.86602 30.8246 3.96071 31.4517 5.19956 31.8054L5.77937 31.9709L15.7772 31.9912C26.7923 32.0135 26.3654 32.0286 27.5636 31.5729C28.7612 31.1172 30.1053 30.0108 30.8746 28.8473C31.3606 28.1122 31.6797 27.336 31.8553 26.4615L32 25.7409L31.6245 15.8805C31.3427 8.48052 31.2211 5.88724 31.1373 5.48774C30.5879 2.86922 28.7022 0.908302 26.0366 0.18386L25.4206 0.0164225L16.1798 0.00319643C8.47964 -0.00781354 6.84521 0.00684252 6.37658 0.0912047ZM6.6422 2.37199C4.9053 2.74847 3.49527 4.10363 3.10251 5.774C2.95807 6.38841 2.23961 25.2624 2.33839 25.8489C2.42551 26.3665 2.53046 26.6686 2.81406 27.2179C3.38655 28.3268 4.31693 29.1052 5.56194 29.5167L6.06928 29.6844L15.7812 29.7048C22.8244 29.7195 25.6298 29.7026 25.9909 29.6433C27.427 29.4071 28.7929 28.2462 29.4028 26.7433C29.7966 25.7731 29.7962 25.9756 29.4199 15.8606C29.2302 10.7629 29.0398 6.36689 28.9968 6.09164C28.7265 4.36365 27.5727 3.03301 25.8554 2.46907L25.3481 2.30249L16.216 2.28934C8.81571 2.27876 7.00017 2.29441 6.6422 2.37199ZM8.40745 4.70195C7.87699 4.9782 7.74516 5.55208 7.92265 6.81129C8.73062 12.5412 15.2652 15.5405 20.2923 12.4888C22.5428 11.1226 24.0797 8.4219 24.0797 5.83341C24.0797 5.04741 23.6329 4.55453 22.9201 4.55453C22.2131 4.55453 21.7613 5.04748 21.7595 5.82068C21.7573 6.78598 21.3231 8.12198 20.7379 8.96389C19.9215 10.1385 18.621 10.9855 17.1852 11.2778C14.4795 11.8285 11.8474 10.5435 10.7126 8.11776C10.3885 7.42535 10.2344 6.8138 10.1848 6.02422C10.1583 5.6027 10.0967 5.28348 10.0082 5.10954C9.74914 4.60015 8.97936 4.40411 8.40745 4.70195Z" fill="white"/>
</svg>
