<svg width="40" height="40" viewBox="0 0 40 40" fill="none" xmlns="http://www.w3.org/2000/svg">
<path fill-rule="evenodd" clip-rule="evenodd" d="M18.5596 0.108047C17.2389 0.402406 15.964 1.12772 15.0759 2.09005C14.7897 2.40014 14.3927 2.83151 14.1938 3.04859C13.98 3.2819 13.6375 3.534 13.3562 3.66515C12.8862 3.88421 12.8581 3.88701 11.1106 3.88833L9.34097 3.88965L8.55904 4.1616C7.43906 4.55111 6.7442 4.99088 5.8765 5.85938C5.0088 6.72787 4.56943 7.42336 4.18027 8.54436L3.90857 9.32701L3.90725 11.0983C3.90594 12.8474 3.90314 12.8755 3.68428 13.3459C3.55324 13.6275 3.30138 13.9703 3.06828 14.1842C2.85139 14.3833 2.42042 14.7807 2.11061 15.0671C-0.703537 17.6692 -0.703537 22.3224 2.11061 24.9244C2.42042 25.2109 2.85139 25.6082 3.06828 25.8073C3.30138 26.0213 3.55324 26.3641 3.68428 26.6457C3.90314 27.1161 3.90594 27.1442 3.90725 28.8933L3.90857 30.6645L4.18027 31.4472C4.56943 32.5681 5.0088 33.2637 5.8765 34.1323C6.73811 34.9949 7.4393 35.4373 8.5713 35.8329L9.34097 36.1019L11.1106 36.1032C12.8581 36.1045 12.8862 36.1073 13.3562 36.3264C13.6375 36.4576 13.98 36.7097 14.1938 36.943C14.3927 37.16 14.7897 37.5914 15.0759 37.9015C16.4142 39.3516 18.266 40.089 20.3245 39.9914C22.2572 39.8998 23.8358 39.1534 25.0627 37.7511C25.8903 36.8051 26.186 36.5402 26.6623 36.3179C27.1095 36.1093 27.1592 36.1045 28.8894 36.1032L30.659 36.1019L31.4287 35.8329C32.5605 35.4374 33.2619 34.9948 34.1236 34.1323C34.9854 33.2698 35.4275 32.5678 35.8227 31.4349L36.0914 30.6645L36.0927 28.8933C36.0941 27.1442 36.0969 27.1161 36.3157 26.6457C36.4468 26.3641 36.6986 26.0213 36.9317 25.8073C37.1486 25.6082 37.5796 25.2109 37.8894 24.9244C40.7035 22.3224 40.7035 17.6692 37.8894 15.0671C37.5796 14.7807 37.1486 14.3833 36.9317 14.1842C36.6986 13.9703 36.4468 13.6275 36.3157 13.3459C36.0969 12.8755 36.0941 12.8474 36.0927 11.0983L36.0914 9.32701L35.8227 8.55664C35.4274 7.42361 34.9854 6.72177 34.1236 5.85938C33.2558 4.99088 32.5609 4.55111 31.441 4.1616L30.659 3.88965L28.8894 3.88833C27.1592 3.88701 27.1095 3.88224 26.6623 3.67364C26.186 3.45137 25.8903 3.18642 25.0627 2.24048C24.2262 1.28441 23.1075 0.573683 21.8784 0.217536C21.0644 -0.0183301 19.3764 -0.0740219 18.5596 0.108047ZM26.7082 12.6564C26.3137 12.8409 25.8303 13.3343 22.059 17.4007C20.4622 19.1225 19.016 20.6753 18.8453 20.8513L18.5349 21.1714L17.3538 20.1207C16.7042 19.5427 16.0245 19.001 15.8434 18.9167C15.4082 18.7144 14.6353 18.7141 14.1905 18.9163C13.1615 19.3842 12.7319 20.6258 13.2485 21.6393C13.3958 21.9283 14.3387 22.819 17.1504 25.3251C17.9458 26.0342 18.7655 26.1829 19.5815 25.7662C19.8138 25.6476 21.2821 24.1255 24.414 20.7568C26.8883 18.0953 29.0166 15.7761 29.1434 15.6028C30.0769 14.3281 29.1209 12.4947 27.5259 12.5006C27.2245 12.5018 26.9113 12.5614 26.7082 12.6564Z" fill="#2563EB"/>
</svg>
