<svg width="24" height="24" viewBox="0 0 24 24" fill="none" xmlns="http://www.w3.org/2000/svg">
<path fill-rule="evenodd" clip-rule="evenodd" d="M2.91685 0.0128628C2.86056 0.0247309 2.68785 0.0592611 2.53305 0.0894942C1.44532 0.302098 0.417673 1.2915 0.0939028 2.4378C0.0082909 2.741 9.71866e-07 3.00487 9.71866e-07 5.43042C9.71866e-07 8.38779 -0.0031205 8.35454 0.344444 9.08807C0.632291 9.69554 1.20727 10.2687 1.82221 10.5614C2.54763 10.9066 2.52102 10.9041 5.44989 10.9041C8.38009 10.9041 8.35 10.907 9.08316 10.5598C9.69083 10.272 10.2642 9.69723 10.557 9.08249C10.9023 8.35731 10.8998 8.38391 10.8998 5.456C10.8998 2.52809 10.9023 2.5547 10.557 1.82951C10.2797 1.2472 9.69196 0.645098 9.13433 0.37213C8.38971 0.00759377 8.47062 0.0160856 5.60341 0.00298966C4.18209 -0.00350713 2.97313 0.000943469 2.91685 0.0128628ZM16.0171 0.0128628C15.9608 0.0247309 15.7881 0.0592611 15.6333 0.0894942C14.5455 0.302098 13.5179 1.2915 13.1941 2.4378C13.1085 2.741 13.1002 3.00487 13.1002 5.43042C13.1002 8.38779 13.0971 8.35454 13.4447 9.08807C13.7325 9.69554 14.3075 10.2687 14.9224 10.5614C15.6478 10.9066 15.6212 10.9041 18.5501 10.9041C21.4803 10.9041 21.4502 10.907 22.1834 10.5598C22.791 10.272 23.3644 9.69723 23.6572 9.08249C24.0025 8.35731 24 8.38391 24 5.456C24 2.52809 24.0025 2.5547 23.6572 1.82951C23.3799 1.2472 22.7922 0.645098 22.2345 0.37213C21.4899 0.00759377 21.5708 0.0160856 18.7036 0.00298966C17.2823 -0.00350713 16.0733 0.000943469 16.0171 0.0128628ZM2.91685 13.1088C2.86056 13.1206 2.68785 13.1552 2.53305 13.1854C1.44532 13.398 0.417673 14.3874 0.0939028 15.5337C0.0082909 15.8369 9.71866e-07 16.1008 9.71866e-07 18.5263C9.71866e-07 21.4837 -0.0031205 21.4504 0.344444 22.184C0.632291 22.7914 1.20727 23.3646 1.82221 23.6573C2.54763 24.0025 2.52102 24 5.44989 24C8.38009 24 8.35 24.0029 9.08316 23.6557C9.69083 23.3679 10.2642 22.7931 10.557 22.1784C10.9023 21.4532 10.8998 21.4798 10.8998 18.5519C10.8998 15.624 10.9023 15.6506 10.557 14.9254C10.2797 14.3431 9.69196 13.741 9.13433 13.468C8.38971 13.1035 8.47062 13.112 5.60341 13.0989C4.18209 13.0924 2.97313 13.0968 2.91685 13.1088ZM16.0171 13.1088C15.9608 13.1206 15.7881 13.1552 15.6333 13.1854C14.5455 13.398 13.5179 14.3874 13.1941 15.5337C13.1085 15.8369 13.1002 16.1008 13.1002 18.5263C13.1002 21.4837 13.0971 21.4504 13.4447 22.184C13.7325 22.7914 14.3075 23.3646 14.9224 23.6573C15.6478 24.0025 15.6212 24 18.5501 24C21.4803 24 21.4502 24.0029 22.1834 23.6557C22.791 23.3679 23.3644 22.7931 23.6572 22.1784C24.0025 21.4532 24 21.4798 24 18.5519C24 15.624 24.0025 15.6506 23.6572 14.9254C23.3799 14.3431 22.7922 13.741 22.2345 13.468C21.4899 13.1035 21.5708 13.112 18.7036 13.0989C17.2823 13.0924 16.0733 13.0968 16.0171 13.1088Z" fill="black"/>
</svg>
