<svg width="95" height="88" viewBox="0 0 95 88" fill="none" xmlns="http://www.w3.org/2000/svg">
<path fill-rule="evenodd" clip-rule="evenodd" d="M62.8307 0.0902195C62.5672 0.135186 61.7481 0.267979 61.0104 0.385466C54.397 1.43863 47.9463 5.71081 44.1387 11.5591C41.097 16.231 39.8943 20.6518 40.0802 26.4772C40.2105 30.559 40.832 33.0596 42.6025 36.6254C47.0496 45.5817 55.68 50.9392 65.6089 50.9072C71.2139 50.889 76.3679 49.1532 80.8746 45.7654C90.0419 38.8743 93.4247 26.7144 89.1535 16.0063C88.7858 15.0844 88.5476 14.2234 88.6241 14.0929C88.8197 13.7586 90.8258 11.4592 92.5037 9.64564C94.2536 7.75419 94.8257 6.62123 94.8225 5.05334C94.8142 0.989353 90.3732 -1.37836 86.9728 0.868231C86.604 1.11181 85.4019 2.39 84.3013 3.70857C83.2009 5.02694 82.2731 6.10574 82.2398 6.10574C82.2063 6.10574 81.5548 5.64537 80.7917 5.08281C77.8233 2.89401 74.2545 1.26853 70.7823 0.523426C69.1371 0.170585 64.0027 -0.109163 62.8307 0.0902195ZM62.3555 3.25756C54.1501 4.4508 47.181 10.1445 44.3482 17.9692C42.7448 22.3983 42.6755 28.042 44.17 32.499C46.4173 39.202 51.7525 44.5081 58.5196 46.7701C61.0463 47.6147 63.0294 47.87 66.2796 47.769C69.967 47.6543 72.1239 47.1379 75.1991 45.6337C83.4544 41.5956 88.3614 33.3384 87.8651 24.3205C87.7975 23.09 87.6536 21.6956 87.5455 21.222C87.1662 19.5594 86.3329 17.0023 86.1876 17.0549C86.1068 17.0842 84.2541 19.2608 82.0704 21.8918C72.4814 33.4452 69.7852 36.4786 68.4997 37.1604C67.3886 37.7493 64.9776 37.7511 63.8845 37.1634C63.463 36.9369 60.4347 34.0539 57.1548 30.7568C52.4666 26.0438 51.1365 24.5983 50.9351 23.9966C50.5929 22.9744 50.6387 21.1046 51.0281 20.2133C51.8247 18.3884 53.7195 17.1655 55.7505 17.1655C57.679 17.1655 58.3069 17.5897 62.3967 21.6545C64.6003 23.8444 66.1502 25.2462 66.2474 25.1366C66.5553 24.7895 79.5964 9.2574 79.8798 8.90054C80.1402 8.57257 80.1009 8.48895 79.4008 7.88335C78.4022 7.01961 75.8709 5.50358 74.4227 4.9018C70.5761 3.3031 66.1698 2.70285 62.3555 3.25756ZM89.0347 3.17567C88.8513 3.2237 84.1189 8.70288 78.5179 15.3518C72.9169 22.0008 67.9833 27.8066 67.5545 28.254C66.9301 28.9052 66.6419 29.0672 66.109 29.0672C65.4972 29.0672 65.0859 28.7121 61.0104 24.6663C56.6513 20.3388 56.5639 20.2653 55.7791 20.2653C54.8379 20.2653 53.8605 21.0221 53.8019 21.7961C53.7057 23.0653 53.7651 23.1411 58.9507 28.3573C61.7696 31.1929 64.4124 33.7613 64.8234 34.0646C65.3014 34.4174 65.8048 34.6162 66.2207 34.6162C67.3765 34.6162 68.5162 33.3696 80.3893 19.1172C84.2907 14.4341 88.252 9.75796 89.1918 8.72584C91.379 6.32388 91.7629 5.78696 91.7629 5.12969C91.7629 3.63585 90.5627 2.77633 89.0347 3.17567ZM33.2913 46.1014C30.5136 46.5694 28.9692 47.3118 20.2114 52.3888C16.7407 54.4008 13.8344 56.047 13.7532 56.047C13.6717 56.047 13.2579 55.453 12.8333 54.7271C11.599 52.6163 10.4536 51.9078 8.53292 52.0668C7.73316 52.133 6.99568 52.4548 4.67439 53.7499C3.09615 54.6306 1.48571 55.679 1.0958 56.0799C-0.0835251 57.2918 -0.323988 58.9225 0.43783 60.5436C0.980837 61.6997 14.6194 85.762 15.1743 86.5432C15.3895 86.8461 16.0363 87.3092 16.6115 87.5723C18.3015 88.345 19.1166 88.1634 22.5126 86.2585C25.8348 84.3948 26.2594 84.0649 26.8164 82.9159C27.4807 81.5457 27.3007 80.2308 26.1783 78.2524C25.6844 77.3816 25.3159 76.6143 25.3594 76.5473C25.4029 76.4802 26.0703 76.091 26.8422 75.6823L28.2461 74.9395L39.1676 77.8648C45.1744 79.4736 50.6063 80.9028 51.2386 81.0405C53.849 81.6096 57.1707 81.1953 59.5546 80.0038C60.705 79.4288 91.1785 60.7422 92.3962 59.8651C94.5452 58.3169 95.5303 55.1524 94.7155 52.4131C93.9825 49.9478 92.212 48.3652 89.5796 47.8222C88.0958 47.516 86.3526 47.7058 84.2476 48.4029C81.9405 49.1669 81.4358 49.4377 71.0022 55.5068C63.3689 59.947 60.3588 61.596 59.8875 61.596C59.8574 61.596 60.0427 60.9718 60.2994 60.2087C60.8662 58.5237 60.805 57.1568 60.0936 55.6048C59.0492 53.3266 57.534 52.2849 54.1903 51.5463C51.1294 50.8703 48.2163 49.9811 42.6095 48.0118C36.7541 45.955 35.5838 45.7151 33.2913 46.1014ZM33.5545 49.1769C32.9966 49.2716 31.9188 49.5908 31.1595 49.886C29.3038 50.6076 15.2799 58.7157 15.3523 59.0251C15.4487 59.4363 23.64 73.8323 23.7806 73.8373C23.8536 73.84 24.7235 73.3685 25.7135 72.7897C26.7033 72.2109 27.6738 71.7373 27.8696 71.7373C28.0656 71.7373 32.5846 72.9085 37.912 74.3402C51.4705 77.9836 52.5331 78.243 53.8983 78.243C55.3108 78.243 56.9751 77.8391 58.2989 77.1751C58.8275 76.9099 66.3675 72.3274 75.0541 66.9917C92.792 56.0967 91.8574 56.7898 91.8582 54.5309C91.8599 50.567 88.1435 49.635 82.8533 52.2727C81.7915 52.8021 65.4656 62.2251 65.0341 62.5577C64.4114 63.0376 61.5877 64.2771 60.5192 64.5398C58.113 65.1311 54.764 64.8586 50.1927 63.6996C45.4951 62.5085 41.103 61.2035 40.7655 60.8985C39.9187 60.1331 40.627 58.3431 41.7768 58.3431C42.0391 58.3431 43.8011 58.7776 45.6923 59.3086C50.103 60.5468 53.5887 61.405 54.2037 61.4035C57.0736 61.3972 58.6713 58.1969 56.8431 56.1174C56.0851 55.2552 55.4871 54.9601 53.7849 54.6077C51.0857 54.0487 47.3548 52.9267 42.0416 51.076C36.4663 49.1338 35.3186 48.877 33.5545 49.1769ZM6.09226 56.4842C3.33182 58.0597 3.05016 58.2662 3.05016 58.7139C3.05016 58.8923 6.31337 64.8014 10.3018 71.8456C16.003 81.9148 17.6542 84.6889 18.0254 84.8207C18.4205 84.9612 18.9025 84.7612 20.9768 83.5971C23.8078 82.008 24.1266 81.7711 24.1266 81.255C24.1266 80.8859 10.1796 56.0703 9.60954 55.4251C9.44687 55.241 9.13302 55.0933 8.91229 55.0969C8.69157 55.1006 7.42257 55.7249 6.09226 56.4842ZM7.244 58.8215C6.20473 59.3856 6.08843 60.8629 7.02538 61.599C8.76648 62.9668 10.8611 60.4536 9.16674 59.0298C8.50782 58.4761 7.98474 58.4194 7.244 58.8215Z" fill="#1F2937"/>
</svg>
