<svg width="88" height="88" viewBox="0 0 88 88" fill="none" xmlns="http://www.w3.org/2000/svg">
<path fill-rule="evenodd" clip-rule="evenodd" d="M41.0403 2.51749C38.3952 5.16279 38.1918 5.51132 38.888 6.20747C39.5096 6.82913 39.939 6.6566 41.465 5.17173L42.9046 3.77067V10.2555C42.9046 16.3057 42.9268 16.7603 43.2385 17.0422C43.6794 17.4413 44.417 17.4262 44.7933 17.0105C45.0624 16.7131 45.0954 15.972 45.0954 10.2237V3.77067L46.535 5.17173C47.4094 6.02252 48.1263 6.57261 48.3607 6.57261C48.8647 6.57261 49.4772 5.95059 49.4772 5.43866C49.4772 4.84475 44.5981 0 44 0C43.6754 0 42.889 0.668946 41.0403 2.51749ZM12.8997 12.9314C12.6408 13.2173 12.5975 13.7623 12.5975 16.7306C12.5975 19.2262 12.6614 20.2771 12.8257 20.4861C13.2172 20.984 13.7766 21.0349 14.3033 20.6207C14.7741 20.2502 14.7884 20.1819 14.7884 18.2943V16.3497L19.4066 20.955C21.9465 23.4878 24.1686 25.5602 24.3444 25.5602C24.7576 25.5602 25.5602 24.7576 25.5602 24.3444C25.5602 24.1686 23.4878 21.9465 20.955 19.4066L16.3497 14.7884H18.2943C20.1819 14.7884 20.2502 14.7741 20.6207 14.3033C21.0349 13.7766 20.984 13.2172 20.4861 12.8257C20.2769 12.6612 19.2198 12.5975 16.6988 12.5975C13.5429 12.5975 13.1724 12.63 12.8997 12.9314ZM67.5139 12.8257C67.016 13.2172 66.9651 13.7766 67.3793 14.3033C67.7498 14.7741 67.8181 14.7884 69.7057 14.7884H71.6503L67.045 19.4066C64.5122 21.9465 62.4398 24.1686 62.4398 24.3444C62.4398 24.7576 63.2424 25.5602 63.6556 25.5602C63.8314 25.5602 66.0535 23.4878 68.5934 20.955L73.2116 16.3497V18.2943C73.2116 20.1819 73.2259 20.2502 73.6967 20.6207C74.2234 21.0349 74.7828 20.984 75.1743 20.4861C75.3388 20.2769 75.4025 19.2198 75.4025 16.6988C75.4025 13.5429 75.37 13.1724 75.0686 12.8997C74.7827 12.6408 74.2377 12.5975 71.2694 12.5975C68.7738 12.5975 67.7229 12.6614 67.5139 12.8257ZM41.3065 22.0973C34.0708 23.0089 27.5351 27.6561 24.24 34.2324C22.652 37.4016 22.0272 40.1662 22.0325 44C22.0413 50.2086 24.0925 55.163 28.4647 59.5353C31.1305 62.201 33.8271 63.8665 37.2448 64.9581C39.8627 65.7941 41.0929 65.9757 44.0913 65.9686C47.025 65.9617 48.5227 65.7269 51.0778 64.8733C56.4337 63.084 61.219 58.8567 63.8564 53.5851C64.5042 52.2899 65.4185 49.5018 65.7422 47.834C66.0393 46.3037 66.0393 41.6963 65.7422 40.166C64.8544 35.5914 62.8123 31.7417 59.5353 28.4647C56.3165 25.246 52.6687 23.263 48.3365 22.3774C46.5723 22.0168 43.0572 21.8768 41.3065 22.0973ZM41.8413 24.6732C40.0678 25.551 38.0706 27.9267 36.8853 30.5683C36.581 31.2468 36.332 31.8631 36.332 31.9383C36.332 32.0846 39.875 32.612 41.7635 32.747L42.9046 32.8284V28.5553C42.9046 26.205 42.8429 24.2822 42.7676 24.2823C42.6924 24.2823 42.2754 24.4583 41.8413 24.6732ZM45.0954 28.5553V32.8284L46.2365 32.747C48.125 32.612 51.6681 32.0846 51.6681 31.9383C51.6681 31.8631 51.419 31.2468 51.1147 30.5683C49.9097 27.8825 47.9001 25.5129 46.1166 24.6745C45.6576 24.4587 45.24 24.2822 45.1887 24.2822C45.1374 24.2822 45.0954 26.205 45.0954 28.5553ZM36.1224 25.8092C34.0314 26.7221 31.4204 28.4353 30.4173 29.5528C30.0715 29.9379 30.0726 29.939 31.0563 30.3702C32.5998 31.0468 33.9782 31.4576 34.129 31.2856C34.2046 31.1993 34.5039 30.5585 34.7936 29.8618C35.0835 29.1649 35.8249 27.8299 36.4415 26.895C37.0579 25.96 37.5524 25.1959 37.5404 25.1972C37.5285 25.1985 36.8903 25.4738 36.1224 25.8092ZM51.5488 26.8951C52.1667 27.8195 52.911 29.1503 53.2028 29.8523C53.4945 30.5543 53.7954 31.1993 53.871 31.2856C54.0218 31.4576 55.4004 31.0468 56.9462 30.3691L57.9338 29.9362L57.4939 29.4669C56.3695 28.2672 53.3665 26.3633 51.3663 25.5819L50.4255 25.2144L51.5488 26.8951ZM27.7383 32.6456C26.0781 34.9526 24.6502 38.6833 24.3172 41.5844L24.1648 42.9115L28.103 42.8624L32.0415 42.8133L32.1804 40.7268C32.2567 39.5794 32.5324 37.6076 32.793 36.3451C33.0533 35.0826 33.2784 33.9388 33.293 33.8031C33.3091 33.6529 32.8426 33.3944 32.0988 33.1411C31.4275 32.9127 30.3399 32.474 29.6821 32.1662L28.4861 31.6064L27.7383 32.6456ZM58.6058 32.0388C58.1539 32.2682 57.127 32.6838 56.3237 32.9622C55.5203 33.2406 54.807 33.517 54.7386 33.5766C54.6701 33.6359 54.772 34.3419 54.965 35.1452C55.432 37.0889 55.8672 40.2633 55.8672 41.724V42.9046H59.8508H63.8343L63.6824 41.5809C63.4832 39.8456 62.7716 37.3609 61.9876 35.6641C61.4134 34.4213 59.8548 31.8827 59.5526 31.6983C59.4838 31.6563 59.0577 31.8094 58.6058 32.0388ZM35.537 34.2804C35.2707 34.7116 34.4929 39.2325 34.3866 40.9673L34.2682 42.9046H38.5864H42.9046V39.0032V35.1018L42.2199 34.9886C41.8435 34.9263 41.2066 34.8739 40.805 34.8723C40.0791 34.8692 36.9408 34.4376 36.0878 34.2234C35.8423 34.1619 35.5945 34.1875 35.537 34.2804ZM51.3029 34.3331C50.7302 34.4717 48.7633 34.716 46.0539 34.9851L45.0954 35.0802V38.9924V42.9046H49.4136H53.7318L53.6134 40.9673C53.5089 39.2626 52.731 34.7142 52.4721 34.2952C52.3613 34.1159 52.1754 34.1219 51.3029 34.3331ZM2.51749 41.0403C0.668946 42.889 0 43.6754 0 44C0 44.5981 4.84475 49.4772 5.43866 49.4772C5.95059 49.4772 6.57261 48.8647 6.57261 48.3607C6.57261 48.1263 6.02252 47.4094 5.17173 46.535L3.77067 45.0954H10.2555C16.3057 45.0954 16.7603 45.0732 17.0422 44.7615C17.4413 44.3206 17.4262 43.583 17.0105 43.2067C16.7131 42.9376 15.972 42.9046 10.2237 42.9046H3.77067L5.17173 41.465C6.6566 39.939 6.82913 39.5096 6.20747 38.888C5.51132 38.1918 5.16279 38.3952 2.51749 41.0403ZM81.7925 38.888C81.1709 39.5096 81.3434 39.939 82.8283 41.465L84.2293 42.9046H77.7445C71.6943 42.9046 71.2397 42.9268 70.9578 43.2385C70.5587 43.6794 70.5738 44.417 70.9895 44.7933C71.2869 45.0624 72.028 45.0954 77.7763 45.0954H84.2293L82.8283 46.535C81.9775 47.4094 81.4274 48.1263 81.4274 48.3607C81.4274 48.8647 82.0494 49.4772 82.5613 49.4772C83.1553 49.4772 88 44.5981 88 44C88 43.6754 87.3311 42.889 85.4825 41.0403C82.8372 38.3952 82.4887 38.1918 81.7925 38.888ZM24.3176 46.4191C24.65 49.3158 26.0789 53.0485 27.7372 55.3527L28.4837 56.3901L29.8061 55.7807C30.5334 55.4455 31.5805 55.0285 32.1328 54.8538C32.6851 54.6792 33.193 54.4866 33.2614 54.4258C33.3299 54.365 33.228 53.6581 33.0351 52.8548C32.568 50.9111 32.1328 47.7367 32.1328 46.276V45.0954H28.1492H24.1657L24.3176 46.4191ZM34.3866 47.0327C34.5024 48.9249 35.3057 53.4511 35.5735 53.7205C35.6475 53.795 36.321 53.7404 37.0699 53.5991C37.8188 53.458 39.0066 53.292 39.7095 53.2301C40.4124 53.1683 41.419 53.0731 41.9461 53.0187L42.9046 52.9198V49.0076V45.0954H38.5864H34.2682L34.3866 47.0327ZM45.0954 49.0076V52.9198L46.0539 53.0187C46.581 53.0731 47.5876 53.1683 48.2905 53.2301C48.9934 53.292 50.1812 53.458 50.9301 53.5991C51.679 53.7404 52.3525 53.795 52.4265 53.7205C52.6943 53.4511 53.4976 48.9249 53.6134 47.0327L53.7318 45.0954H49.4136H45.0954V49.0076ZM55.989 45.2172C55.922 45.284 55.8672 45.8153 55.8672 46.3975C55.8672 47.7457 55.4181 50.9661 54.967 52.854C54.7751 53.6568 54.6513 54.3469 54.6918 54.3875C54.7324 54.428 55.2394 54.6206 55.8185 54.8156C56.3976 55.0106 57.4666 55.4448 58.1939 55.7801L59.5163 56.3901L60.2628 55.3527C61.9211 53.0485 63.35 49.3158 63.6824 46.4191L63.8343 45.0954H59.9725C57.8485 45.0954 56.0558 45.1502 55.989 45.2172ZM41.5353 55.2598C39.9686 55.3578 36.332 55.9183 36.332 56.0617C36.332 56.1369 36.581 56.7532 36.8853 57.4317C38.0903 60.1175 40.0999 62.4871 41.8834 63.3255C42.3424 63.5413 42.76 63.7178 42.8113 63.7178C42.8626 63.7178 42.9046 61.7871 42.9046 59.4274C42.9046 56.0993 42.8534 55.1442 42.6763 55.1698C42.5509 55.1879 42.0373 55.2284 41.5353 55.2598ZM45.0954 59.4447C45.0954 61.795 45.1374 63.7178 45.1887 63.7178C45.24 63.7178 45.6576 63.5413 46.1166 63.3255C47.9001 62.4871 49.9097 60.1175 51.1147 57.4317C51.419 56.7532 51.6681 56.1369 51.6681 56.0617C51.6681 55.9154 48.125 55.388 46.2365 55.253L45.0954 55.1716V59.4447ZM32.3079 57.1251C31.5506 57.408 30.7418 57.7406 30.5106 57.8644L30.0902 58.0893L30.5181 58.5459C31.6322 59.7347 34.6432 61.6405 36.6389 62.4201L37.5849 62.7898L36.5048 61.1914C35.9109 60.3123 35.1412 58.9396 34.7943 58.141C34.4476 57.3422 34.056 56.6713 33.9242 56.6497C33.7925 56.6284 33.065 56.8422 32.3079 57.1251ZM53.6904 57.0171C53.1672 58.3929 52.3291 59.9802 51.4327 61.2925L50.4081 62.7926L51.3577 62.4216C53.3578 61.6402 56.3669 59.7356 57.4832 58.5445L57.9124 58.0866L57.3919 57.8206C56.7726 57.5042 54.2776 56.5975 54.0262 56.5975C53.9292 56.5975 53.778 56.7863 53.6904 57.0171ZM19.4066 67.045L14.7884 71.6503V69.7057C14.7884 67.8181 14.7741 67.7498 14.3033 67.3793C13.7766 66.9651 13.2172 67.016 12.8257 67.5139C12.6612 67.7231 12.5975 68.7802 12.5975 71.3012C12.5975 74.4571 12.63 74.8276 12.9314 75.1003C13.2173 75.3592 13.7623 75.4025 16.7306 75.4025C19.2262 75.4025 20.2771 75.3386 20.4861 75.1743C20.984 74.7828 21.0349 74.2234 20.6207 73.6967C20.2502 73.2259 20.1819 73.2116 18.2943 73.2116H16.3497L20.955 68.5934C23.4878 66.0535 25.5602 63.8314 25.5602 63.6556C25.5602 63.2424 24.7576 62.4398 24.3444 62.4398C24.1686 62.4398 21.9465 64.5122 19.4066 67.045ZM62.8881 62.8881C62.6416 63.1345 62.4398 63.4799 62.4398 63.6556C62.4398 63.8314 64.5122 66.0535 67.045 68.5934L71.6503 73.2116H69.7057C67.8181 73.2116 67.7498 73.2259 67.3793 73.6967C66.9651 74.2234 67.016 74.7828 67.5139 75.1743C67.7231 75.3388 68.7802 75.4025 71.3012 75.4025C74.4571 75.4025 74.8276 75.37 75.1003 75.0686C75.3592 74.7827 75.4025 74.2377 75.4025 71.2694C75.4025 68.7738 75.3386 67.7229 75.1743 67.5139C74.7828 67.016 74.2234 66.9651 73.6967 67.3793C73.2259 67.7498 73.2116 67.8181 73.2116 69.7057V71.6503L68.5934 67.045C66.0535 64.5122 63.8314 62.4398 63.6556 62.4398C63.4799 62.4398 63.1345 62.6416 62.8881 62.8881ZM43.2067 70.9895C42.9376 71.2869 42.9046 72.028 42.9046 77.7763V84.2293L41.465 82.8283C40.5906 81.9775 39.8737 81.4274 39.6393 81.4274C39.1354 81.4274 38.5228 82.0494 38.5228 82.5613C38.5228 83.1553 43.4019 88 44 88C44.5981 88 49.4772 83.1553 49.4772 82.5613C49.4772 82.0494 48.8647 81.4274 48.3607 81.4274C48.1263 81.4274 47.4094 81.9775 46.535 82.8283L45.0954 84.2293V77.7445C45.0954 71.6943 45.0732 71.2397 44.7615 70.9578C44.3206 70.5587 43.583 70.5738 43.2067 70.9895Z" fill="#1F2937"/>
</svg>
