<svg width="66" height="88" viewBox="0 0 66 88" fill="none" xmlns="http://www.w3.org/2000/svg">
<path fill-rule="evenodd" clip-rule="evenodd" d="M50.3257 0.343651C49.7322 0.813264 49.5665 1.59232 49.9154 2.27103C50.3671 3.1499 51.3634 3.29346 52.0708 2.58154C52.7676 1.8807 52.5564 0.58435 51.68 0.18259C51.0745 -0.0948918 50.8454 -0.067572 50.3257 0.343651ZM29.7734 4.71587C28.7251 5.05353 27.4417 6.19381 26.9427 7.23124C25.9028 9.39217 26.8919 12.3539 28.995 13.3783L29.7896 13.7653V20.2584C29.7896 24.6369 29.8538 26.8934 29.9866 27.1867C30.185 27.6246 30.8163 28.0183 31.3201 28.0183C31.4694 28.0183 31.825 27.7835 32.1104 27.4964L32.6292 26.9744V20.3624V13.7503L33.2775 13.4407C34.8668 12.682 35.8147 11.1256 35.8181 9.2695C35.8218 7.33142 34.7165 5.57421 33.0546 4.8755C32.1422 4.49196 30.6881 4.42125 29.7734 4.71587ZM3.58196 4.78836C-0.0531094 5.72295 -1.23954 10.3543 1.51489 12.8578C1.88866 13.1976 2.45357 13.5837 2.77001 13.7155L3.34556 13.9555V22.0271V30.0987L3.74489 30.4646C4.15787 30.8431 9.08941 33.6301 9.88362 33.9338C10.9229 34.3313 11.9557 33.2089 11.5212 32.1536C11.3581 31.7575 10.7307 31.3245 8.6601 30.179L6.00771 28.712V21.3391V13.9663L6.73199 13.6378C8.35643 12.9007 9.53878 10.7357 9.32208 8.89471C8.99943 6.15506 6.16212 4.12519 3.58196 4.78836ZM50.2537 5.59313C49.7723 6.00936 49.7537 6.09007 49.6958 7.99119L49.6362 9.95857L47.2319 11.2658C45.9097 11.9847 44.7137 12.7471 44.5742 12.96C44.3716 13.2696 44.3318 14.0328 44.3762 16.7706C44.4301 20.1213 44.4402 20.2011 44.8504 20.5348C45.4144 20.9939 45.9955 20.9641 46.5955 20.4454L47.0935 20.0149L47.1822 17.1888L47.271 14.3629L49.6896 13.0512C51.3506 12.1502 52.1706 11.6017 52.3074 11.2996C52.5669 10.7266 52.5685 6.56629 52.3095 5.99418C52.115 5.56457 51.4816 5.16263 50.9996 5.16263C50.8631 5.16263 50.5275 5.35636 50.2537 5.59313ZM15.4546 6.532C15.3306 6.58236 15.1108 6.85323 14.9665 7.13411C14.752 7.55158 14.7041 8.62562 14.7041 13.0241V18.4036L15.2228 18.9255C15.879 19.5856 16.3688 19.5856 17.0249 18.9255L17.5437 18.4036V13.0212C17.5437 7.5423 17.5004 7.14446 16.8492 6.64146C16.5633 6.42058 15.8651 6.36594 15.4546 6.532ZM29.8605 7.91245C29.222 8.55491 29.0969 9.17951 29.4302 10.0612C29.6311 10.5928 30.5823 11.2321 31.1739 11.2329C31.8069 11.234 32.5958 10.7453 32.8924 10.1682C33.3414 9.29468 33.2379 8.59633 32.5582 7.91245C32.0636 7.4148 31.8204 7.30535 31.2094 7.30535C30.5983 7.30535 30.3552 7.4148 29.8605 7.91245ZM3.46252 7.85067C3.20766 8.05226 2.90808 8.52277 2.79698 8.89631C2.2138 10.8544 4.77691 12.2432 6.0858 10.6782C6.76962 9.86054 6.72755 8.69597 5.9889 8.00191C5.29763 7.35213 4.17704 7.28517 3.46252 7.85067ZM60.137 10.6755C58.7963 11.1181 57.5194 12.2609 57.0192 13.4657C56.6107 14.4501 56.6341 16.1498 57.07 17.1411C57.4865 18.0884 58.3274 18.9735 59.2712 19.458L59.9605 19.8119V22.8368V25.8618L58.4076 26.7794C57.5536 27.2842 56.6751 27.8638 56.4554 28.0674C55.6292 28.8334 56.2209 30.3396 57.3483 30.3396C57.9265 30.3396 61.9584 27.9754 62.4479 27.3494C62.7725 26.9343 62.8002 26.6196 62.8002 23.3552V19.8119L63.4884 19.4585C64.3891 18.9962 65.5234 17.6856 65.786 16.8035C66.4683 14.5126 65.4756 12.0777 63.4265 11.0158C62.6616 10.6192 60.8689 10.4339 60.137 10.6755ZM60.7081 13.4012C60.0367 13.5939 59.4297 14.4545 59.4288 15.2156C59.4279 15.8487 59.8619 16.7033 60.3057 16.9422C60.7706 17.1926 62.1164 17.1644 62.4534 16.8972C64.2741 15.4537 62.931 12.7632 60.7081 13.4012ZM14.0332 22.9433C10.6448 24.6421 10.6303 29.7955 14.0096 31.3286L14.7041 31.6438V33.4831C14.7041 34.4947 14.7951 35.5235 14.9064 35.7692C15.0489 36.0838 16.1815 36.8317 18.7342 38.2958C21.6712 39.9807 22.3352 40.4314 22.2315 40.6698C21.0575 43.3687 21.0077 46.103 22.0832 48.8061C22.7075 50.3752 23.448 51.2311 24.1809 51.2311C24.8584 51.2311 25.5301 50.6154 25.5301 49.9946C25.5301 49.769 25.2307 48.975 24.8646 48.2297C24.2166 46.9108 24.199 46.8226 24.199 44.8977C24.199 43.0348 24.2319 42.8536 24.7661 41.7617C25.8322 39.5827 27.8132 38.0828 30.2116 37.6382C33.3098 37.0638 36.6957 38.8944 38.0962 41.9008C38.5249 42.8213 38.5746 43.1321 38.5746 44.8922C38.5746 46.6617 38.5264 46.9603 38.0866 47.9047C37.4849 49.1969 37.4739 49.6935 38.0342 50.257C38.9436 51.1722 39.9671 50.6242 40.6758 48.8432C41.7735 46.0845 41.7304 43.6312 40.5324 40.6677C40.4365 40.4307 41.1017 39.9561 43.8622 38.2917C46.1941 36.8859 47.3771 36.068 47.5132 35.7673C47.624 35.5226 47.7147 34.4947 47.7147 33.4831V31.6438L48.4333 31.3177C50.5972 30.336 51.5743 27.2883 50.4517 25.0221C49.6304 23.3636 48.2001 22.4933 46.2853 22.4869C43.612 22.4778 41.6075 24.5148 41.6274 27.2205C41.6404 29.0068 42.7633 30.7528 44.3148 31.3993L44.8885 31.6384L44.8374 33.0781L44.7863 34.5177L42.0354 36.1904C40.5224 37.1104 39.1857 37.9061 39.0647 37.9587C38.9438 38.0112 38.4332 37.682 37.93 37.227C36.8844 36.281 34.9293 35.2862 33.5522 34.9995C32.3489 34.7488 30.4247 34.7488 29.2215 34.9995C27.8412 35.2869 25.8884 36.2817 24.8367 37.2332C23.7598 38.2073 24.2553 38.3346 20.3833 36.0903L17.6324 34.4959L17.5813 33.0728L17.5304 31.6498L18.2557 31.3208C20.4263 30.336 21.405 27.2917 20.2807 25.0221C19.4594 23.3636 18.0291 22.4933 16.1143 22.4869C15.2147 22.4838 14.7433 22.5872 14.0332 22.9433ZM15.3053 25.3363C14.667 25.596 14.1716 26.3957 14.1716 27.1675C14.1716 27.7346 14.2918 27.9963 14.775 28.4826C15.5551 29.2673 16.5296 29.3241 17.3465 28.6325C19.0343 27.2037 17.3605 24.5008 15.3053 25.3363ZM45.4763 25.3363C44.838 25.596 44.3426 26.3957 44.3426 27.1675C44.3426 27.7346 44.4628 27.9963 44.946 28.4826C45.7261 29.2673 46.7006 29.3241 47.5175 28.6325C49.2053 27.2037 47.5315 24.5008 45.4763 25.3363ZM52.8306 30.1096C52.3626 30.4017 51.9741 31.0252 51.9741 31.4845C51.9741 31.614 52.1397 31.9316 52.342 32.1903C52.6235 32.5505 52.8673 32.6609 53.381 32.6609C54.8116 32.6609 55.5728 31.0044 54.5236 30.174C53.9626 29.73 53.4688 29.7112 52.8306 30.1096ZM30.3112 40.2188C28.9694 40.5941 27.9791 41.4655 27.334 42.8388C27.0758 43.3884 27.0296 44.6315 26.9508 53.1436L26.8612 62.8236L25.8109 63.6787C24.5047 64.7422 23.5326 66.1439 23.0433 67.6695C22.6871 68.78 22.6704 69.1389 22.7233 74.544C22.787 81.0367 22.69 80.5554 24.5322 83.5238C25.0593 84.3732 25.8217 85.6494 26.2264 86.3597C26.631 87.07 27.1139 87.733 27.2994 87.8328C28.1882 88.3116 29.2571 87.6753 29.2571 86.6675C29.2571 86.1585 27.4753 82.8485 26.3889 81.3397C25.4607 80.0505 25.3526 79.3034 25.3526 74.1719C25.3526 69.0776 25.4455 68.4212 26.3584 67.061L26.856 66.3194L26.9677 67.4677C27.0543 68.3586 27.1688 68.6889 27.4779 68.9408C28.193 69.5233 29.1237 69.2972 29.5832 68.4293C29.7342 68.1437 29.7896 64.8011 29.7896 55.961V43.8826L30.3083 43.3607C31.1426 42.5215 32.6512 42.765 33.127 43.8158C33.2848 44.164 33.3391 47.3653 33.3391 56.3043C33.3391 68.1946 33.343 68.3298 33.707 68.7951C34.1262 69.3315 34.9956 69.433 35.568 69.0126C35.8908 68.7753 35.918 68.4468 36.0012 63.7897C36.099 58.3156 36.1276 58.1689 37.1875 57.7233C37.9643 57.3968 38.6643 57.5366 39.2178 58.1289C39.6361 58.5763 39.6402 58.6194 39.7282 63.5817C39.8168 68.5735 39.8179 68.5843 40.236 68.9246C40.8194 69.3996 41.6035 69.3594 42.1322 68.8273C42.5657 68.3912 42.5679 68.3714 42.5679 64.8182C42.5679 60.9469 42.6562 60.4855 43.481 60.0564C44.2606 59.6507 44.9778 59.7398 45.6265 60.3226L46.2061 60.8433L46.2608 64.6524C46.3124 68.245 46.3369 68.4841 46.6912 68.8635C47.194 69.4021 48.0627 69.3969 48.5712 68.8524C48.9355 68.4621 48.957 68.273 48.957 65.4598C48.957 62.0997 48.9991 61.9818 50.3412 61.5772C50.9305 61.3995 51.1368 61.4161 51.7042 61.687C52.8599 62.2388 52.8617 62.2532 52.8601 70.9116C52.8594 75.306 52.7807 79.1243 52.6778 79.7626C52.4208 81.3557 51.9395 82.5405 50.7298 84.5575C50.1491 85.5258 49.6724 86.5026 49.6705 86.7279C49.6625 87.6643 51.0967 88.3678 51.8385 87.7912C52.2027 87.5082 54.017 84.4975 54.4854 83.3995C54.6803 82.9424 54.993 81.9255 55.1804 81.1399C55.4924 79.8319 55.521 78.9811 55.5185 71.0512C55.516 62.7273 55.5018 62.3598 55.1547 61.5876C54.1367 59.3222 51.8316 58.2797 49.4082 58.9886L48.3774 59.29L47.8368 58.6302C46.7806 57.341 44.4278 56.7388 42.7487 57.3277C42.2512 57.5021 42.1421 57.4876 41.9976 57.2277C41.6221 56.5527 40.6978 55.6535 40.0241 55.3076C39.1701 54.8692 37.4853 54.6826 36.7406 54.9437L36.2046 55.1317L36.1473 49.3871C36.0932 43.9646 36.0688 43.5973 35.7125 42.8388C34.7397 40.7682 32.4017 39.634 30.3112 40.2188Z" fill="#1F2937"/>
</svg>
