<svg width="86" height="88" viewBox="0 0 86 88" fill="none" xmlns="http://www.w3.org/2000/svg">
<path fill-rule="evenodd" clip-rule="evenodd" d="M41.3724 0.107664C29.1087 1.37062 18.1361 7.99703 11.3294 18.2511C9.28746 21.3271 7.3053 25.6189 6.34505 29.0439C6.0793 29.9911 6.02758 30.0508 4.99819 30.5925C2.85686 31.7195 1.21795 33.6623 0.394051 36.0499C0.00500397 37.1774 0.00482987 37.1874 0.000302011 49.9228C-0.0037034 61.1539 0.0292107 62.7785 0.276501 63.602C1.23275 66.7842 3.64018 69.1866 6.84381 70.1549C7.78195 70.4385 8.54141 70.5189 10.4513 70.5366C12.7252 70.5576 12.8934 70.5362 13.2539 70.1814C13.7559 69.6869 13.7566 68.851 13.2554 68.3555C12.9056 68.0098 12.6504 67.9701 10.2223 67.8832C7.75966 67.7951 7.49687 67.7531 6.52634 67.2914C5.19863 66.6601 3.86291 65.3438 3.2069 64.0205L2.69507 62.9881V49.9971V37.0062L3.18791 36.0143C3.87354 34.6339 5.13751 33.4088 6.56552 32.7405L7.74538 32.1884H28.0337H48.3219L49.3177 32.6495C51.2201 33.5305 52.6809 35.2439 53.1962 37.1989C53.5885 38.6873 53.5885 61.307 53.1962 62.7954C52.6809 64.7504 51.2201 66.4638 49.3177 67.3448C48.3286 67.8028 48.288 67.8066 43.2716 67.9045C40.494 67.9587 38.2048 68.0169 38.1846 68.0335C37.4302 68.6581 37.4377 68.606 37.4377 73.2201C37.4377 80.031 37.826 80.0179 30.0961 73.4669C26.9024 70.7604 24.0544 68.3961 23.767 68.2128C23.2998 67.915 22.9712 67.8849 20.6604 67.9288L18.0762 67.978L17.6436 68.4754C17.1523 69.0403 17.1969 69.6336 17.7746 70.2148C18.0757 70.5178 18.3932 70.566 20.435 70.6181L22.7538 70.6775L28.6155 75.6344C31.8395 78.3606 34.7241 80.6762 35.0257 80.78C36.8437 81.4061 38.912 80.5417 39.7197 78.8181C40.002 78.2157 40.0428 77.6625 40.0461 74.3874L40.0499 70.645L42.9669 70.6436C46.4222 70.6421 48.3341 70.4509 49.7261 69.9674C51.8692 69.2232 53.8456 67.5175 54.9323 65.4741C56.0601 63.3534 56.0651 63.2852 56.0686 50.0718C56.0705 42.3772 56.0059 37.828 55.8854 37.1669C55.783 36.6053 55.3973 35.5265 55.0281 34.7694C53.9001 32.4566 51.8788 30.7243 49.4013 29.9474L48.0428 29.5214H31.3334C22.1434 29.5214 14.6242 29.4574 14.6242 29.3789C14.6242 28.8508 16.449 25.0743 17.609 23.2018C19.3377 20.4114 22.1849 17.1975 24.8119 15.0713C29.6073 11.1904 35.5696 8.70732 41.7853 8.00271C44.0353 7.74771 48.9727 7.88106 50.9883 8.25117C58.1586 9.56799 63.9394 12.624 68.9688 17.7568C71.5929 20.4346 73.3742 22.9825 75.0464 26.4493C77.3929 31.3145 78.4973 37.2137 78.0395 42.4368C77.9293 43.6934 77.8006 44.7595 77.7535 44.8059C77.7065 44.8524 77.5216 44.7595 77.3426 44.5993C77.1324 44.4114 76.9819 43.9718 76.9178 43.3596C76.7881 42.1164 76.2144 40.9775 75.2251 39.9989C72.6609 37.4629 68.0923 38.1883 66.4395 41.3939C65.7944 42.6448 58.026 63.9448 57.8978 64.8142C57.5945 66.8699 58.906 69.2857 60.8674 70.284C63.1207 71.4308 65.4914 71.0456 67.5479 69.1981C67.8736 68.9056 68.0975 68.7824 68.0455 68.9243C67.9934 69.0663 67.4527 70.4213 66.8438 71.9355C65.8759 74.3427 65.6274 74.8 64.866 75.5757C63.6313 76.8337 62.9151 77.0114 59.08 77.0114H56.0564L55.1174 76.0613C54.514 75.4506 53.7545 74.9127 52.9917 74.5557C51.8829 74.0367 51.6848 74.0008 49.9764 74.0089C48.3784 74.0164 48.0215 74.0749 47.1459 74.4727C44.9309 75.4795 43.1703 77.8573 42.9183 80.1821C42.3816 85.1336 47.2334 89.1417 52.0237 87.7041C53.315 87.3166 55.0723 86.1827 55.5888 85.4039L55.8809 84.9634L59.8509 84.8793C64.3272 84.7843 64.9812 84.665 67.3912 83.5046C68.5972 82.9239 69.163 82.5034 70.4444 81.2351C72.3555 79.3436 72.6634 78.7861 75.0586 72.8818L76.8386 68.4942L77.869 67.5698C78.4359 67.0616 79.0558 66.343 79.2467 65.9732C79.8548 64.7956 80.9708 61.6312 80.9729 61.079C80.9765 60.0729 79.6732 59.5303 78.9045 60.2177C78.7211 60.3816 78.2309 61.4478 77.8152 62.5868C76.4896 66.2191 75.8367 66.6185 71.7 66.3284C70.3428 66.2331 69.2215 66.1395 69.2079 66.1202C69.1299 66.0089 76.2087 47.0817 76.3156 47.1161C76.387 47.1391 77.349 47.8162 78.4535 48.6206C80.1101 49.8273 80.5368 50.232 80.8922 50.9342C81.4173 51.9716 81.4359 52.7832 80.9635 54.031C80.5014 55.2512 80.5697 55.9657 81.1921 56.4229C81.5712 56.7013 81.7664 56.7407 82.1322 56.612C82.874 56.3508 83.1757 55.752 84.0333 52.8362C85.0082 49.5217 85.5812 46.911 85.8595 44.5145C86.1339 42.1504 85.9843 35.8387 85.6019 33.6509C84.4522 27.0718 81.9112 21.2046 77.9446 15.9702C76.3943 13.9242 72.6759 10.1313 70.7871 8.66946C65.1466 4.3033 58.4642 1.41983 51.5332 0.361116C49.3578 0.0286858 43.5458 -0.116193 41.3724 0.107664ZM41.6172 2.69828C28.5133 3.98653 16.8307 12.1213 11.1268 23.9292C10.1556 25.9398 9.05149 28.7849 9.05149 29.277C9.05149 29.4673 9.35399 29.5214 10.422 29.5214H11.7928L12.2696 28.1879C13.9008 23.6274 16.8638 19.0495 20.5263 15.4308C25.7283 10.291 32.0312 7.04792 39.4731 5.68206C41.5404 5.30266 47.1884 5.15451 49.4034 5.42156C60.2924 6.73424 69.7854 12.7016 75.5197 21.8385C79.808 28.6714 81.5878 37.2261 80.3754 45.1793C80.2528 45.9837 80.1612 46.646 80.1718 46.6512C80.1824 46.6562 80.712 47.0578 81.3487 47.5435L82.5064 48.4265L82.6905 47.704C83.4036 44.9059 83.6241 38.897 83.1473 35.2513C81.6447 23.7615 74.8975 13.697 64.6494 7.65909C58.0091 3.74685 49.53 1.92054 41.6172 2.69828ZM70.0652 41.3245C69.764 41.4713 69.3518 41.7657 69.1494 41.9786C68.9317 42.2074 67.1011 46.8953 64.6691 53.4512C60.1916 65.5214 60.1499 65.6702 60.9191 66.9C62.0386 68.6895 64.779 68.8003 65.9055 67.1016C66.4005 66.3552 74.3571 44.5263 74.3571 43.9146C74.3571 41.9127 71.9004 40.4301 70.0652 41.3245ZM9.28049 44.1481C8.47471 44.4689 8.28437 45.5804 8.93202 46.1818L9.33518 46.5558H27.9821C45.8443 46.5558 46.6456 46.5424 47.0256 46.2386C47.5996 45.7793 47.563 44.9004 46.9481 44.3778L46.4739 43.9749L28.0674 43.9857C17.9005 43.9917 9.49069 44.0645 9.28049 44.1481ZM8.89005 50.7947C8.41115 51.396 8.43413 51.9838 8.95658 52.4998L9.38394 52.9223H27.8433C41.2696 52.9223 46.4215 52.8689 46.7377 52.7264C47.329 52.4603 47.5607 51.7545 47.2764 51.0861C47.1545 50.7995 46.922 50.5145 46.7597 50.4531C46.5975 50.3915 38.0918 50.3413 27.8579 50.3413H9.25089L8.89005 50.7947ZM9.27527 56.7877C8.66314 57.0527 8.41811 57.6239 8.60341 58.3537C8.84826 59.3174 8.52748 59.3002 25.3194 59.2493C40.1741 59.2042 40.7228 59.1913 41.0765 58.8749C41.5749 58.4292 41.5749 57.3951 41.0765 56.9494C40.7226 56.6328 40.1798 56.6203 25.2725 56.5835C12.3117 56.5513 9.7453 56.5841 9.27527 56.7877ZM70.723 69.2891C69.8169 71.6111 68.3351 75.1548 67.9837 75.8402C67.4628 76.8557 66.3552 77.9946 65.2866 78.6132C63.9843 79.3671 62.7172 79.5924 59.7792 79.5924H57.1164V80.9899V82.3874L60.2947 82.3031C62.8877 82.2343 63.6813 82.152 64.6048 81.8564C66.9905 81.093 69.1454 79.3801 70.3084 77.3225C70.9773 76.139 73.7358 69.2855 73.598 69.1492C73.54 69.0919 72.9053 69.0078 72.1876 68.9624C70.9386 68.8832 70.8759 68.8971 70.723 69.2891ZM48.1381 76.9037C46.6374 77.5942 45.4485 79.3911 45.4485 80.9689C45.4485 82.7317 46.845 84.6141 48.5736 85.1814C50.3508 85.7645 52.1255 85.2643 53.4149 83.8169C54.258 82.8706 54.5842 81.8284 54.46 80.4765C54.3491 79.267 54.0131 78.5846 53.0955 77.7047C51.8166 76.4783 49.7782 76.149 48.1381 76.9037Z" fill="#1F2937"/>
</svg>
