<svg width="29" height="29" viewBox="0 0 29 29" fill="none" xmlns="http://www.w3.org/2000/svg">
<path fill-rule="evenodd" clip-rule="evenodd" d="M8.96181 0.0314995C7.22189 0.106923 6.26949 0.257492 5.20979 0.624717C3.02124 1.38312 1.40855 2.99286 0.648761 5.17742C0.0897058 6.78477 -0.000333173 8.04146 9.23953e-07 14.232C0.000223655 18.1209 0.0503381 20.1948 0.166938 21.1417C0.315332 22.347 0.604326 23.3237 1.09105 24.2644C1.95497 25.9342 3.37911 27.1513 5.20979 27.7842C6.81368 28.3387 8.098 28.4308 14.2253 28.4305C18.0087 28.4303 20.2083 28.3772 21.1743 28.2628C23.2983 28.0111 24.914 27.2596 26.1889 25.9306C27.4353 24.6311 28.0977 23.1081 28.3521 20.9574C28.4573 20.0673 28.4563 8.2056 28.3509 7.36776C28.1369 5.66665 27.6258 4.26695 26.827 3.19473C26.43 2.66188 25.5866 1.85256 25.0556 1.4949C23.8512 0.683689 22.4589 0.253046 20.4896 0.0824119C19.6378 0.00860011 10.428 -0.0320853 8.96181 0.0314995ZM8.46211 2.6437C5.49299 2.81489 3.78699 3.91745 3.03894 6.14859C2.64866 7.31268 2.59504 8.28219 2.59348 14.2042C2.59187 20.3775 2.64777 21.2452 3.12998 22.5266C3.4109 23.2731 3.63759 23.6173 4.26129 24.2444C4.764 24.7499 4.88188 24.8374 5.40429 25.0921C6.41805 25.5863 7.20591 25.7357 9.24167 25.8199C10.9336 25.8898 17.5726 25.8898 19.2646 25.8199C20.7673 25.7578 21.2589 25.7023 21.9809 25.5131C22.9924 25.2482 23.721 24.8244 24.3907 24.1116C25.3015 23.142 25.6845 22.1073 25.8474 20.1754C25.8972 19.5859 25.9174 17.856 25.9174 14.2042C25.9174 7.93169 25.8776 7.27922 25.4168 5.99247C25.1469 5.23862 24.8367 4.74795 24.2815 4.19653C23.4218 3.34275 22.5425 2.95223 20.9476 2.71568C20.4371 2.63998 19.5413 2.62514 14.7821 2.61374C11.7196 2.60635 8.87556 2.61986 8.46211 2.6437ZM21.3083 5.00234C20.12 5.42543 19.776 6.92034 20.6632 7.80586C21.0113 8.1534 21.3302 8.28124 21.8538 8.28319C22.2307 8.28458 22.348 8.26095 22.6157 8.12978C23.1792 7.85354 23.4976 7.36849 23.5399 6.72186C23.5774 6.15004 23.4527 5.81444 23.056 5.41887C22.8442 5.20772 22.657 5.07871 22.4703 5.01535C22.1427 4.90413 21.6012 4.89807 21.3083 5.00234ZM12.9446 7.01527C12.3204 7.12743 11.4144 7.44002 10.8588 7.73488C9.52086 8.44487 8.36188 9.62714 7.68634 10.971C7.4395 11.462 7.14733 12.3607 7.04175 12.9537C6.91419 13.6703 6.92337 14.862 7.06197 15.5702C7.78222 19.2508 11.1433 21.8004 14.8517 21.4791C16.6729 21.3214 18.2292 20.5812 19.5042 19.2664C20.3109 18.4346 20.8294 17.5875 21.1852 16.5204C21.4461 15.7383 21.5472 15.0909 21.5472 14.2042C21.5472 12.9683 21.3341 12.0514 20.7917 10.9527C20.1115 9.57517 18.8786 8.34055 17.4922 7.64878C16.9969 7.40156 16.0956 7.11031 15.5126 7.00904C14.8949 6.90172 13.5584 6.90494 12.9446 7.01527ZM13.2943 9.56083C11.9983 9.84407 10.8098 10.6965 10.1524 11.8143C9.7564 12.4875 9.56702 13.1524 9.53384 13.986C9.50154 14.7966 9.59537 15.3803 9.85986 16.0152C10.3361 17.1582 11.3387 18.1453 12.5034 18.6177C13.4295 18.9933 14.7256 19.0326 15.7009 18.7147C16.434 18.4757 17.0191 18.1177 17.5654 17.574C18.1007 17.0413 18.4226 16.5652 18.6576 15.9587C19.736 13.1748 18.0627 10.1189 15.1531 9.55855C14.6614 9.46384 13.7329 9.46501 13.2943 9.56083Z" fill="#1F2937"/>
</svg>
