<svg width="24" height="24" viewBox="0 0 24 24" fill="none" xmlns="http://www.w3.org/2000/svg">
<path fill-rule="evenodd" clip-rule="evenodd" d="M0.33139 0.117945C0.0062336 0.345178 -0.0937141 0.767046 0.094565 1.11739C0.295573 1.49142 0.31837 1.49628 2.00185 1.52468L3.50227 1.54999L3.81915 1.70706C4.33791 1.96411 4.68659 2.36376 4.8572 2.89674C4.91073 3.06398 6.47892 15.3275 6.47892 15.5789C6.47892 15.6056 6.34494 15.6564 6.1812 15.6917C5.1386 15.917 4.35901 16.8351 4.26966 17.9429C4.19227 18.9029 4.65053 19.8051 5.4791 20.3241C5.84308 20.5521 6.30177 20.6591 6.91525 20.6591C7.40129 20.6591 7.40478 20.6599 7.37012 20.773C7.23242 21.2218 7.21655 21.7555 7.32753 22.2012C7.58972 23.2541 8.5224 24 9.57657 24C10.206 24 10.754 23.767 11.1968 23.3113C11.8437 22.6455 12.0643 21.6902 11.783 20.773L11.7481 20.6591H14.056H16.364L16.3315 20.773C16.0685 21.6959 16.2799 22.6164 16.9052 23.2703C17.8206 24.2277 19.2569 24.2341 20.1787 23.2848C21.2767 22.1542 21.0354 20.2453 19.6916 19.4323C19.1591 19.1101 19.5652 19.1274 12.7667 19.1389C7.78317 19.1474 6.55021 19.1365 6.37892 19.0829C5.94796 18.9478 5.65238 18.4486 5.72764 17.9828C5.77377 17.6974 6.00711 17.3795 6.25235 17.268C6.41203 17.1954 7.05702 17.1215 9.31036 16.9177C19.9272 15.9572 20.4391 15.9074 20.7571 15.8036C21.5963 15.5298 22.2941 14.8175 22.5709 13.9519C22.6533 13.6944 24 5.00106 24 4.72685C24 4.55252 23.8411 4.28783 23.6456 4.13627L23.5089 4.03037L15.0095 4.00506L6.50994 3.97975L6.42379 3.35348C6.37636 3.00901 6.30134 2.61038 6.2571 2.46763C5.93368 1.4247 5.10506 0.545027 4.10249 0.180359L3.69587 0.0324475L2.09802 0.0162491L0.500115 0L0.33139 0.117945ZM9.89117 6.75662C9.70004 6.8491 9.53596 7.03989 9.48369 7.23037C9.41559 7.47887 9.88706 12.6371 9.99824 12.8595C10.151 13.1651 10.4951 13.3306 10.8073 13.2487C10.9935 13.1998 11.2627 12.9268 11.3131 12.7358C11.366 12.5355 10.9179 7.36219 10.8273 7.12776C10.6991 6.7956 10.2107 6.60202 9.89117 6.75662ZM14.2599 6.79231C14.1493 6.8534 14.0411 6.96983 13.9816 7.09177C13.8876 7.28438 13.8843 7.38542 13.885 9.98886L13.8858 12.6864L13.9939 12.8836C14.2798 13.405 14.9891 13.3792 15.2395 12.8383C15.3325 12.6373 15.3363 12.5257 15.3363 9.97823C15.3363 7.40501 15.3334 7.32103 15.2366 7.11192C15.1641 6.95551 15.0804 6.86793 14.9309 6.7922C14.6758 6.66307 14.4939 6.66312 14.2599 6.79231ZM18.7737 6.74442C18.616 6.81023 18.4881 6.9344 18.4051 7.10225C18.3616 7.19028 18.2519 8.18856 18.0949 9.92478C17.8257 12.903 17.8243 12.8026 18.1407 13.0811C18.3264 13.2446 18.4779 13.2908 18.7032 13.2525C18.9247 13.2149 19.1309 13.0557 19.222 12.8519C19.2952 12.6882 19.7427 8.04885 19.7413 7.46738C19.7401 6.91698 19.2455 6.54756 18.7737 6.74442ZM9.21356 20.7434C9.00016 20.8613 8.89959 20.9657 8.79702 21.1759C8.58125 21.618 8.7583 22.15 9.19953 22.3855C9.81494 22.714 10.5568 22.118 10.4278 21.3987C10.3288 20.847 9.66979 20.4913 9.21356 20.7434ZM18.1543 20.7432C17.5545 21.0523 17.519 21.9123 18.0896 22.3145C18.4062 22.5376 18.8126 22.5089 19.1159 22.242C19.5501 21.8599 19.4817 21.0664 18.9896 20.7748C18.7575 20.6374 18.3868 20.6233 18.1543 20.7432Z" fill="black"/>
</svg>
