<svg width="25" height="18" viewBox="0 0 25 18" fill="none" xmlns="http://www.w3.org/2000/svg">
<path fill-rule="evenodd" clip-rule="evenodd" d="M2.17196 0.0550879C2.03796 0.0815331 1.74858 0.194117 1.52887 0.30532C0.804418 0.671921 0.238858 1.42185 0.0751392 2.23311C-0.0276723 2.74237 -0.0240178 4.30709 0.0802067 4.41655C0.149446 4.48919 1.34196 4.49691 12.479 4.49691H24.8013L24.9006 4.38494C24.9929 4.28095 25 4.20811 25 3.3589C25 2.85583 24.981 2.45715 24.9578 2.47224C24.9345 2.48733 24.9015 2.39219 24.8843 2.26083C24.794 1.56911 24.1744 0.709466 23.4969 0.335704C22.8429 -0.0250662 23.5689 -0.00312251 12.4531 0.00219722C6.4171 0.00511285 2.31848 0.0261874 2.17196 0.0550879ZM0.0238796 3.42274C0.0238796 3.9432 0.0311398 4.15614 0.0399592 3.89588C0.0488272 3.63563 0.0488272 3.20979 0.0399592 2.94959C0.0311398 2.68933 0.0238796 2.90227 0.0238796 3.42274ZM0.0802067 6.21411C0.0117469 6.28598 0.00365842 6.7754 0.00365842 10.8339C0.00365842 13.8317 0.0213459 15.4764 0.0557463 15.6768C0.243097 16.7688 1.17732 17.7495 2.21747 17.9462C2.41656 17.9838 5.61751 18.0006 12.4986 18C23.5611 17.999 22.8436 18.0211 23.4969 17.6607C24.1756 17.2864 24.794 16.4273 24.8847 15.733C24.902 15.6003 24.935 15.4794 24.9581 15.4645C24.9811 15.4495 25 13.3632 25 10.8281C25 8.29311 24.9864 6.23324 24.9698 6.25069C24.9532 6.26808 24.9078 6.2489 24.8689 6.20802C24.8074 6.14347 23.1847 6.13375 12.4775 6.13375C1.34181 6.13375 0.149446 6.14148 0.0802067 6.21411ZM0.0269981 10.8908C0.0269981 13.4369 0.0329426 14.4785 0.0402028 13.2054C0.0474629 11.9324 0.0474629 9.84928 0.0402028 8.57623C0.0329426 7.30323 0.0269981 8.34477 0.0269981 10.8908ZM4.34903 11.5395C4.26 11.5856 4.12844 11.7041 4.05667 11.8029C3.92979 11.9775 3.92609 12.0024 3.92609 12.6811C3.92609 13.3608 3.92964 13.3845 4.05735 13.5603C4.26585 13.8473 4.44467 13.9088 5.07114 13.9088C5.69761 13.9088 5.87643 13.8473 6.08493 13.5603C6.21264 13.3845 6.2162 13.3608 6.2162 12.6811C6.2162 12.0015 6.21264 11.9777 6.08493 11.802C5.87536 11.5135 5.69834 11.4533 5.06379 11.4547C4.65195 11.4555 4.46948 11.4772 4.34903 11.5395Z" fill="black"/>
</svg>
