<svg width="25" height="24" viewBox="0 0 25 24" fill="none" xmlns="http://www.w3.org/2000/svg">
<path fill-rule="evenodd" clip-rule="evenodd" d="M11.9251 0.0602859C11.6068 0.162806 11.2531 0.414207 11.0639 0.672518C10.975 0.793808 10.2861 2.15005 9.53304 3.68639C8.77999 5.22273 8.1211 6.54069 8.06887 6.61523C8.01665 6.68977 7.91025 6.78381 7.83242 6.82429C7.74977 6.86722 6.35747 7.0925 4.48379 7.3661C0.887298 7.8913 0.946058 7.87694 0.497874 8.33828C0.144242 8.7023 0.0141414 9.03745 0.0113619 9.59161C0.00950885 9.95083 0.0287704 10.0508 0.151313 10.3179C0.280926 10.6005 0.472858 10.8036 2.34542 12.6397C5.17506 15.4142 5.0375 15.2711 5.1004 15.5058C5.14834 15.6848 5.09314 16.0654 4.61375 18.8611C4.02551 22.2915 4.00976 22.4547 4.21993 22.9355C4.57142 23.7396 5.57936 24.1903 6.39678 23.9091C6.5577 23.8537 7.92917 23.1513 9.44449 22.3482C12.0877 20.9472 12.2105 20.8879 12.4678 20.8877C12.7252 20.8875 12.8459 20.9456 15.4641 22.3305C16.9646 23.1241 18.3238 23.8269 18.4844 23.8921C18.8899 24.0567 19.4347 24.0311 19.8441 23.8281C20.1824 23.6603 20.5746 23.2585 20.7153 22.9355C20.9246 22.455 20.9125 22.3308 20.3192 18.8562L19.7717 15.6504L19.8623 15.4401C19.9319 15.2787 20.4959 14.6975 22.2874 12.9414C24.3721 10.8979 24.637 10.6211 24.7622 10.3551C24.8393 10.1912 24.9024 10.0199 24.9024 9.9743C24.9025 9.92873 24.9244 9.87781 24.9512 9.86115C24.9781 9.84448 25 9.69854 25 9.53682C25 9.3533 24.9817 9.25416 24.9512 9.27307C24.9244 9.28974 24.9025 9.26979 24.9025 9.22882C24.9025 9.01275 24.6814 8.58905 24.4378 8.33828C23.9853 7.87258 24.0492 7.88816 20.4503 7.3638C18.5963 7.09368 17.1827 6.8656 17.1018 6.82351C17.0248 6.78352 16.919 6.68977 16.8668 6.61523C16.8146 6.54069 16.1618 5.23375 15.416 3.71089C14.6703 2.18803 13.9988 0.850851 13.9238 0.739411C13.6124 0.276647 13.1396 0.0246095 12.541 0.00216476C12.292 -0.00714638 12.0692 0.0138282 11.9251 0.0602859ZM0 9.59161C0 9.76681 0.00887493 9.83846 0.0196516 9.75088C0.0304771 9.66331 0.0304771 9.51992 0.0196516 9.43234C0.00887493 9.34477 0 9.41642 0 9.59161Z" fill="black"/>
</svg>
