<svg width="23" height="23" viewBox="0 0 23 23" fill="none" xmlns="http://www.w3.org/2000/svg">
<path d="M9.55879 19.1176C7.66824 19.1176 5.82014 18.557 4.24821 17.5067C2.67628 16.4563 1.45111 14.9634 0.727625 13.2168C0.00414107 11.4702 -0.185156 9.54813 0.183676 7.69395C0.552508 5.83974 1.46289 4.13653 2.79971 2.79971C4.13653 1.46289 5.83974 0.552508 7.69395 0.183676C9.54813 -0.185156 11.4702 0.00414107 13.2168 0.727625C14.9634 1.45111 16.4563 2.67628 17.5067 4.24821C18.557 5.82014 19.1176 7.66824 19.1176 9.55879C19.1176 10.814 18.8703 12.057 18.3899 13.2168C17.9096 14.3765 17.2054 15.4303 16.3179 16.3179C15.4303 17.2054 14.3765 17.9096 13.2168 18.3899C12.057 18.8703 10.814 19.1176 9.55879 19.1176ZM9.55879 1.91684C8.05238 1.91684 6.57979 2.36355 5.32725 3.20047C4.07472 4.03737 3.09848 5.22693 2.52201 6.61866C1.94552 8.01041 1.79469 9.54178 2.08858 11.0193C2.38246 12.4968 3.10787 13.8539 4.17306 14.9191C5.23826 15.9842 6.59539 16.7097 8.07287 17.0036C9.55029 17.2975 11.0817 17.1467 12.4735 16.5702C13.8652 15.9936 15.0548 15.0175 15.8917 13.7649C16.7286 12.5124 17.1753 11.0398 17.1753 9.5334C17.1753 7.51335 16.3729 5.57606 14.9445 4.14767C13.5161 2.71929 11.5788 1.91684 9.55879 1.91684Z" fill="white"/>
<path d="M21.2746 22.2276C21.1496 22.2281 21.0255 22.2038 20.91 22.1558C20.7945 22.1079 20.6896 22.0374 20.6018 21.9484L15.3591 16.7056C15.1909 16.5251 15.0993 16.2863 15.1037 16.0397C15.108 15.793 15.208 15.5578 15.3824 15.3833C15.5568 15.2089 15.7922 15.109 16.0388 15.1046C16.2855 15.1003 16.5241 15.1918 16.7047 15.36L21.9474 20.6028C22.1256 20.7813 22.2258 21.0232 22.2258 21.2756C22.2258 21.5278 22.1256 21.7698 21.9474 21.9484C21.8595 22.0374 21.7547 22.1079 21.6392 22.1558C21.5237 22.2038 21.3996 22.2281 21.2746 22.2276Z" fill="white"/>
</svg>
