<svg width="26" height="26" viewBox="0 0 26 26" fill="none" xmlns="http://www.w3.org/2000/svg">
<path fill-rule="evenodd" clip-rule="evenodd" d="M11.254 0.0842438C10.7609 0.257688 10.4456 0.552355 10.2509 1.02153C10.2072 1.12689 10.1112 1.69894 10.0375 2.29275C9.9638 2.88656 9.87868 3.39911 9.84829 3.4317C9.81791 3.46435 9.58528 3.57082 9.3314 3.66835C9.07746 3.76588 8.77057 3.89641 8.64944 3.95834C8.38429 4.09395 8.47504 4.14063 7.45966 3.34653C7.04117 3.01927 6.59605 2.69903 6.4705 2.63486C6.15925 2.47575 5.66731 2.44361 5.27464 2.55675C4.98444 2.64035 4.93361 2.68392 3.79882 3.82146C2.66403 4.95899 2.62055 5.00994 2.53716 5.30084C2.4243 5.69446 2.45635 6.18759 2.61508 6.4996C2.67909 6.62545 3.00592 7.08308 3.34142 7.51657C3.67692 7.95005 3.97291 8.33299 3.99918 8.36757C4.03134 8.40998 3.9723 8.60055 3.81799 8.95232C3.69204 9.23936 3.56279 9.55824 3.53073 9.66085C3.49872 9.76351 3.4451 9.86816 3.41168 9.89348C3.3782 9.9188 2.86013 10.0016 2.2603 10.0776C1.05409 10.2303 0.794115 10.3117 0.467744 10.6388C0.365531 10.7413 0.219136 10.9445 0.142439 11.0904L0.00294211 11.3556V12.9828V14.6099L0.135844 14.894C0.20894 15.0502 0.355335 15.2649 0.46115 15.371C0.794521 15.7051 1.04901 15.7854 2.2603 15.9388C2.86013 16.0148 3.3782 16.0976 3.41168 16.1229C3.4451 16.1483 3.49872 16.2529 3.53073 16.3556C3.56279 16.4582 3.69204 16.777 3.81799 17.0641C3.9723 17.4159 4.03134 17.6064 3.99918 17.6488C3.97291 17.6834 3.67692 18.0664 3.34142 18.4998C3.00592 18.9333 2.67909 19.391 2.61508 19.5168C2.45585 19.8299 2.42419 20.3224 2.53802 20.7156C2.62157 21.0041 2.67184 21.0639 3.72359 22.1272C5.03384 23.4519 5.11688 23.5075 5.7857 23.5076C6.35987 23.5077 6.4353 23.4698 7.48502 22.6535C7.91746 22.3171 8.30009 22.0199 8.33534 21.993C8.37927 21.9594 8.52262 22.0004 8.79187 22.1235C9.00771 22.2222 9.33936 22.3569 9.52877 22.4227C9.77733 22.509 9.87908 22.5706 9.89435 22.644C9.90602 22.6999 9.97415 23.2139 10.0457 23.7862C10.1907 24.9444 10.2751 25.2086 10.6063 25.5407C10.7122 25.6468 10.9263 25.7935 11.0822 25.8668L11.3656 26H12.9634H14.5613L14.8447 25.8668C15.0005 25.7935 15.2146 25.6468 15.3205 25.5407C15.6561 25.2043 15.7378 24.9441 15.8888 23.733C15.9634 23.134 16.0452 22.6166 16.0705 22.583C16.0959 22.5495 16.2003 22.4958 16.3027 22.4637C16.4051 22.4316 16.7232 22.302 17.0095 22.1757C17.3605 22.0211 17.5506 21.9619 17.5929 21.9941C17.6274 22.0204 18.0094 22.3171 18.4418 22.6535C18.8743 22.9898 19.3308 23.3174 19.4564 23.3816C19.7687 23.5412 20.26 23.5729 20.6522 23.4588C20.94 23.375 20.9997 23.3247 22.0605 22.2704C23.3819 20.9569 23.4374 20.8737 23.4375 20.2033C23.4376 19.6277 23.3998 19.5521 22.5854 18.4998C22.2499 18.0664 21.9539 17.6834 21.9277 17.6488C21.8955 17.6064 21.9546 17.4159 22.1089 17.0641C22.2348 16.777 22.3641 16.4582 22.3961 16.3556C22.4281 16.2529 22.4817 16.1482 22.5152 16.1228C22.5487 16.0974 23.0648 16.0154 23.6623 15.9406C24.8683 15.7896 25.1161 15.7112 25.461 15.3712C25.6561 15.179 25.8971 14.7397 25.898 14.5748C25.8983 14.5275 25.9214 14.4747 25.9493 14.4574C25.9812 14.4376 26 13.8796 26 12.9514C26 11.9812 25.9827 11.4875 25.9493 11.5082C25.9214 11.5255 25.8983 11.4982 25.898 11.4476C25.8971 11.2802 25.6596 10.8398 25.4649 10.6447C25.1302 10.3091 24.87 10.227 23.6623 10.0758C23.0648 10.001 22.5487 9.91901 22.5152 9.89363C22.4817 9.86821 22.4281 9.76351 22.3961 9.66085C22.3641 9.55824 22.2348 9.23936 22.1089 8.95232C21.9546 8.60055 21.8955 8.40998 21.9277 8.36757C21.9539 8.33299 22.2499 7.95005 22.5854 7.51657C22.9209 7.08308 23.2478 6.62545 23.3118 6.4996C23.4705 6.18759 23.5026 5.69446 23.3897 5.30084C23.3062 5.00963 23.264 4.96026 22.128 3.82522C21.0103 2.70843 20.9382 2.64645 20.6557 2.56026C20.2686 2.44224 19.7729 2.47306 19.4564 2.63486C19.3308 2.69903 18.8743 3.02664 18.4418 3.36296C18.0094 3.69927 17.6274 3.99597 17.5929 4.02231C17.5506 4.05455 17.3605 3.99536 17.0095 3.84068C16.7232 3.71442 16.4051 3.58486 16.3027 3.55272C16.2003 3.52064 16.0959 3.46689 16.0705 3.43338C16.0452 3.39982 15.9634 2.88239 15.8888 2.28344C15.7378 1.07228 15.6561 0.81214 15.3205 0.475726C15.2146 0.369656 15.0005 0.222908 14.8447 0.149635L14.5613 0.0164119L13.0395 0.00395397C11.6767 -0.0072327 11.4902 0.0011573 11.254 0.0842438ZM12.347 7.61709C11.8029 7.68589 11.196 7.8632 10.6999 8.09827C9.4992 8.66727 8.63417 9.53449 8.06406 10.741C7.0923 12.7973 7.55152 15.2844 9.19778 16.8812C10.8271 18.4615 13.2146 18.8742 15.2196 17.9221C16.4271 17.3487 17.2936 16.4821 17.8586 15.2829C19.1734 12.4923 17.8669 9.18287 14.9758 7.98056C14.2291 7.67003 13.13 7.51804 12.347 7.61709ZM0 13.0082C0 13.8332 0.00700018 14.1708 0.0155221 13.7582C0.0240441 13.3457 0.0240441 12.6707 0.0155221 12.2582C0.00700018 11.8457 0 12.1832 0 13.0082Z" fill="black"/>
</svg>
