<svg width="162" height="27" viewBox="0 0 162 27" fill="none" xmlns="http://www.w3.org/2000/svg">
<path d="M13.5 0L16.5309 9.32827H26.3393L18.4042 15.0935L21.4351 24.4217L13.5 18.6565L5.5649 24.4217L8.59584 15.0935L0.660737 9.32827H10.4691L13.5 0Z" fill="#FACC15"/>
<path d="M47.25 0L50.2809 9.32827H60.0893L52.1542 15.0935L55.1851 24.4217L47.25 18.6565L39.3149 24.4217L42.3458 15.0935L34.4107 9.32827H44.2191L47.25 0Z" fill="#FACC15"/>
<path d="M81 0L84.0309 9.32827H93.8393L85.9042 15.0935L88.9351 24.4217L81 18.6565L73.0649 24.4217L76.0958 15.0935L68.1607 9.32827H77.9691L81 0Z" fill="#FACC15"/>
<path d="M114.75 0L117.781 9.32827H127.589L119.654 15.0935L122.685 24.4217L114.75 18.6565L106.815 24.4217L109.846 15.0935L101.911 9.32827H111.719L114.75 0Z" fill="#FACC15"/>
<path d="M148.5 0L151.531 9.32827H161.339L153.404 15.0935L156.435 24.4217L148.5 18.6565L140.565 24.4217L143.596 15.0935L135.661 9.32827H145.469L148.5 0Z" fill="#FACC15"/>
</svg>
