<svg width="164" height="28" viewBox="0 0 164 28" fill="none" xmlns="http://www.w3.org/2000/svg">
<path d="M16.7666 10.0737L16.8789 10.4194H25.582L18.835 15.3218L18.541 15.5347L18.6533 15.8804L21.2305 23.811L14.4834 18.9097L14.1895 18.6958L13.8955 18.9097L7.14844 23.811L9.72656 15.8804L9.83887 15.5347L9.54492 15.3218L2.79785 10.4194H11.501L11.6133 10.0737L14.1895 2.14209L16.7666 10.0737Z" stroke="black"/>
<path d="M50.7588 10.0737L50.8711 10.4194H59.5742L52.8271 15.3218L52.5332 15.5347L52.6455 15.8804L55.2227 23.811L48.4756 18.9097L48.1816 18.6958L47.8877 18.9097L41.1406 23.811L43.7188 15.8804L43.8311 15.5347L43.5371 15.3218L36.79 10.4194H45.4932L45.6055 10.0737L48.1816 2.14209L50.7588 10.0737Z" stroke="black"/>
<path d="M84.7432 10.0737L84.8555 10.4194H93.5586L86.8115 15.3218L86.5176 15.5347L86.6299 15.8804L89.207 23.811L82.46 18.9097L82.166 18.6958L81.8721 18.9097L75.125 23.811L77.7031 15.8804L77.8154 15.5347L77.5215 15.3218L70.7744 10.4194H79.4775L79.5898 10.0737L82.166 2.14209L84.7432 10.0737Z" stroke="black"/>
<path d="M118.735 10.0737L118.848 10.4194H127.551L120.804 15.3218L120.51 15.5347L120.622 15.8804L123.199 23.811L116.452 18.9097L116.158 18.6958L115.864 18.9097L109.117 23.811L111.695 15.8804L111.808 15.5347L111.514 15.3218L104.767 10.4194H113.47L113.582 10.0737L116.158 2.14209L118.735 10.0737Z" stroke="black"/>
<path d="M152.728 10.0737L152.84 10.4194H161.543L154.796 15.3218L154.502 15.5347L154.614 15.8804L157.191 23.811L150.444 18.9097L150.15 18.6958L149.856 18.9097L143.109 23.811L145.688 15.8804L145.8 15.5347L145.506 15.3218L138.759 10.4194H147.462L147.574 10.0737L150.15 2.14209L152.728 10.0737Z" stroke="black"/>
</svg>
