<svg width="63" height="52" viewBox="0 0 63 52" fill="none" xmlns="http://www.w3.org/2000/svg">
<path d="M28.9443 0.376953C34.2406 -0.173981 39.7424 1.08272 44.2344 3.86914C47.9866 6.19665 51.1506 9.6424 53.0957 13.5156C53.2529 13.8286 53.3719 14.0768 53.4795 14.2607C53.5899 14.4496 53.706 14.6024 53.875 14.7129C54.0413 14.8215 54.2354 14.8741 54.4668 14.9121C54.6961 14.9497 54.9979 14.9779 55.3887 15.0215C55.7355 15.0602 56.475 15.2528 57.0195 15.4512C59.5354 16.3675 61.5231 18.4343 62.416 21.0723L62.7471 22.0498L62.75 26.0684C62.7516 28.3333 62.7429 29.5108 62.6387 30.334C62.537 31.137 62.3451 31.5979 61.9541 32.4346C60.8809 34.7314 59.1378 36.2909 56.6748 37.1504C56.2236 37.3078 55.9499 37.3888 55.583 37.4346C55.2072 37.4815 54.7293 37.4914 53.8691 37.4961L51.9854 37.5068L51.8604 37.5078L51.7852 37.6084L50.9521 38.7441C50.4392 39.4429 49.4882 40.4826 48.4863 41.4746C47.4842 42.4669 46.4489 43.3937 45.7715 43.874C42.9624 45.8659 39.8323 47.2626 36.6074 47.9658C36.307 48.0313 36.0289 48.0962 35.8223 48.1475C35.7195 48.173 35.6321 48.1956 35.5684 48.2139C35.5371 48.2228 35.5079 48.2321 35.4844 48.2402C35.4731 48.2442 35.4586 48.2495 35.4443 48.2559C35.4373 48.259 35.4263 48.2644 35.4141 48.2715C35.4065 48.2759 35.3764 48.2927 35.3486 48.3242C35.3288 48.3467 35.3133 48.3738 35.3096 48.3799C35.3013 48.3935 35.2913 48.4098 35.2812 48.4277C35.261 48.4637 35.2356 48.5118 35.2061 48.5674C35.1466 48.6793 35.0694 48.8277 34.9902 48.9844C34.8481 49.265 34.4312 49.8203 34.0645 50.2041C32.1147 52.2439 28.9539 52.2691 26.9355 50.2549C24.4957 47.8198 25.1763 43.769 28.3027 42.2031C28.7131 41.9977 28.9143 41.906 29.1709 41.8574C29.4379 41.8069 29.7724 41.8018 30.4512 41.8018C31.1451 41.8018 31.4744 41.8061 31.749 41.8613C32.0159 41.9151 32.2385 42.0185 32.7158 42.2539C33.1982 42.4918 33.6665 42.8224 34.0527 43.1836C34.4414 43.5471 34.7347 43.9292 34.8809 44.2646C34.9196 44.3535 34.9591 44.4439 35.0068 44.5166C35.0597 44.5969 35.132 44.6717 35.2402 44.7158C35.3394 44.7562 35.4439 44.7599 35.5391 44.7549C35.6351 44.7498 35.7512 44.7336 35.8857 44.7139H35.8867C36.302 44.6528 37.144 44.4081 38.0107 44.1191C38.8837 43.8281 39.8111 43.4823 40.4053 43.21C48.342 39.5722 53.1915 30.961 52.2441 22.1973C51.9732 19.692 51.1098 16.854 49.9678 14.7188C47.8976 10.8483 44.4376 7.49906 40.6084 5.66504C34.8317 2.89834 28.2413 2.89861 22.4521 5.66504C17.5441 8.01049 13.4626 12.6311 11.7871 17.7412C10.0401 23.0701 10.3781 28.3261 12.7969 33.4648C13.19 34.2999 13.3943 34.8476 13.4551 35.2656C13.5126 35.6621 13.441 35.9436 13.249 36.2578C13.0894 36.5191 12.7549 36.7703 12.2617 36.9814C11.7749 37.1898 11.1628 37.3473 10.4893 37.4395C9.13894 37.6241 7.58239 37.5432 6.36035 37.1338C3.94891 36.3257 2.18957 34.7565 1.0918 32.4336C0.696237 31.5966 0.478679 30.986 0.363281 30.0625C0.246191 29.1252 0.234194 27.8642 0.263672 25.7236C0.288659 23.9126 0.303435 22.9885 0.352539 22.3926C0.400284 21.8135 0.479153 21.5555 0.640625 21.0713C1.49393 18.5125 3.40111 16.4844 5.86328 15.5137C6.62047 15.2152 7.08028 15.1123 8.76562 14.877C8.86807 14.8626 8.97744 14.8416 9.08496 14.7881C9.19615 14.7327 9.28774 14.6518 9.37402 14.5439C9.53474 14.343 9.71185 14.0018 9.99414 13.4404C12.2839 8.88752 16.0796 5.14422 20.7627 2.82324C23.4507 1.49109 26.2384 0.658381 28.9443 0.376953ZM30.5508 45.0498C30.3968 45.0513 30.2252 45.0721 30.0713 45.1045C29.9221 45.1359 29.7668 45.1834 29.6553 45.2451H29.6543C28.8351 45.6996 28.5571 46.8568 29.0723 47.6416C30.0087 49.0677 32.1572 48.3816 32.1572 46.6904C32.1572 46.4593 32.1369 46.265 32.0518 46.0752C31.9684 45.8895 31.833 45.731 31.6514 45.5498C31.4735 45.3723 31.3152 45.2394 31.1357 45.1562C30.997 45.092 30.8582 45.0632 30.707 45.0537L30.5508 45.0498ZM29.6621 8.74609C30.9739 8.58192 33.1646 8.68663 34.6475 8.98828C40.8726 10.2542 45.649 15.037 46.9971 21.3613C47.1515 22.086 47.2334 23.2178 47.2354 24.3613C47.2373 25.505 47.1597 26.633 47.0078 27.3496C45.5642 34.1618 40.2878 39.0695 33.4287 39.9834C32.0836 40.1625 29.6444 40.0654 28.4316 39.7861L27.5068 39.5732L27.4121 39.5508L27.3281 39.5996L26.6621 39.9766C26.2954 40.1848 24.7415 41.0753 23.209 41.9551C21.6792 42.8332 20.8669 43.2783 20.3242 43.4521C20.0629 43.5358 19.8819 43.5496 19.7236 43.5264C19.5606 43.5024 19.399 43.4359 19.1758 43.3193C19.003 43.229 18.778 42.9918 18.5908 42.6953C18.4255 42.4335 18.3235 42.1792 18.3018 42.0078L18.2979 41.9395C18.299 41.9324 18.3021 41.9109 18.3105 41.8682C18.3216 41.812 18.3384 41.7346 18.3604 41.6387C18.4042 41.4472 18.4682 41.1856 18.5469 40.8721C18.7042 40.2451 18.9208 39.4149 19.1592 38.5332V38.5322L20.0273 35.3213L20.0605 35.1982L19.9795 35.0986L19.2637 34.2217C14.2986 28.1423 14.6845 19.2298 20.1631 13.5352C21.3238 12.3288 22.0846 11.7217 23.498 10.874C25.297 9.79509 27.582 9.00637 29.6621 8.74609ZM31.8496 12.1006C30.549 12.0716 29.6517 12.1134 29.0576 12.2402C26.0358 12.8862 23.3256 14.6133 21.5254 17.0449C20.6902 18.1731 19.8787 19.8912 19.5 21.3291C19.2203 22.391 19.1619 22.9184 19.1562 24.3545C19.1479 26.4752 19.4386 27.8246 20.2988 29.6367C20.9565 31.0222 21.5151 31.8301 22.6514 33.0449C23.2116 33.644 23.4472 33.9531 23.5205 34.3193C23.5964 34.6984 23.5068 35.1729 23.2568 36.1318C23.1485 36.5477 23.0565 36.9341 22.9951 37.2217C22.9646 37.3648 22.9407 37.487 22.9268 37.5771C22.92 37.621 22.9143 37.6629 22.9121 37.6982C22.9111 37.715 22.91 37.7389 22.9121 37.7637C22.9132 37.7759 22.9153 37.7962 22.9219 37.8193C22.927 37.8373 22.943 37.8872 22.9883 37.9326L22.9893 37.9336C23.0552 37.9991 23.1324 38.0064 23.1543 38.0078C23.1846 38.0098 23.2097 38.0062 23.2227 38.0039C23.2501 37.9992 23.2757 37.9903 23.293 37.9844C23.3302 37.9715 23.3752 37.9532 23.4229 37.9316C23.5205 37.8873 23.6539 37.8203 23.8115 37.7383C24.1279 37.5737 24.5545 37.34 25.0146 37.0762C25.9813 36.5218 26.4456 36.2706 26.8828 36.1924C27.3103 36.1159 27.7287 36.2019 28.626 36.4229C29.3188 36.5935 30.3316 36.6914 31.3174 36.7139C32.3017 36.7363 33.2898 36.6846 33.9326 36.543C36.4395 35.9909 38.5441 34.8557 40.2959 33.1074C46.254 27.1621 44.6187 17.119 37.0791 13.3311C35.3027 12.4387 34.0671 12.1501 31.8496 12.1006ZM7.60645 18.4189C7.49084 18.4228 7.35576 18.4737 7.22168 18.5312C7.07672 18.5935 6.8897 18.6834 6.65625 18.7998C5.16353 19.5443 4.04792 20.9897 3.69922 22.6279C3.64916 22.8634 3.615 23.3728 3.5918 23.9912C3.56822 24.6195 3.55534 25.3862 3.55371 26.1543C3.55208 26.9226 3.56114 27.6946 3.58203 28.333C3.60265 28.9632 3.63554 29.4845 3.68359 29.7373C4.10827 31.972 5.82129 33.6657 8.12207 34.1475C8.32195 34.1893 8.51397 34.2209 8.66309 34.2373C8.7368 34.2454 8.80661 34.251 8.86328 34.251C8.89067 34.2509 8.92265 34.249 8.9541 34.2441C8.96993 34.2417 8.9926 34.238 9.0166 34.2295C9.03733 34.2221 9.07968 34.2043 9.11914 34.165C9.16297 34.1215 9.17915 34.0732 9.18555 34.0508C9.19269 34.0256 9.19541 34.0039 9.19629 33.9902C9.19804 33.9627 9.1962 33.9372 9.19434 33.9199C9.1904 33.8835 9.1822 33.8409 9.17285 33.7988C9.15368 33.7126 9.12228 33.5974 9.08301 33.4639C9.00394 33.195 8.88698 32.8355 8.75098 32.4502C7.248 28.1924 6.96311 23.532 7.93262 19.0459C7.95417 18.9461 7.98027 18.8167 7.96289 18.708C7.95265 18.6441 7.92274 18.5563 7.84082 18.4912C7.76085 18.4278 7.67051 18.4168 7.60645 18.4189ZM55.4492 18.4219C55.3943 18.4156 55.2488 18.4069 55.1475 18.5312C55.0636 18.6342 55.0729 18.7597 55.0771 18.8076C55.0829 18.873 55.0986 18.9518 55.1162 19.0332C55.6356 21.4349 55.8271 24.6895 55.5791 26.8652C55.375 28.6558 54.8851 30.7946 54.3008 32.4502C54.1648 32.8355 54.0478 33.195 53.9688 33.4639C53.9295 33.5974 53.8981 33.7126 53.8789 33.7988C53.8696 33.8409 53.8614 33.8835 53.8574 33.9199C53.8556 33.9372 53.8537 33.9627 53.8555 33.9902C53.8564 34.0039 53.8591 34.0256 53.8662 34.0508C53.8726 34.0732 53.8888 34.1215 53.9326 34.165C53.9721 34.2043 54.0145 34.2222 54.0352 34.2295C54.0589 34.2379 54.0809 34.2416 54.0967 34.2441C54.1283 34.2491 54.161 34.2509 54.1885 34.251C54.245 34.251 54.3141 34.2454 54.3877 34.2373C54.5368 34.2209 54.7287 34.1893 54.9287 34.1475C57.2297 33.6658 58.9435 31.9722 59.3682 29.7373C59.4162 29.4845 59.4481 28.9631 59.4688 28.333C59.4896 27.6946 59.4997 26.9226 59.498 26.1543C59.4964 25.3862 59.4835 24.6195 59.46 23.9912C59.4368 23.3729 59.4026 22.8634 59.3525 22.6279C58.9512 20.7419 57.413 19.0028 55.6543 18.4707C55.5883 18.4507 55.5142 18.4293 55.4492 18.4219ZM25.1826 22.7168C25.3903 22.719 25.6126 22.789 25.9385 22.9609C27.442 23.7544 26.8842 26.0087 25.167 26.0088C23.4395 26.0088 22.8996 23.6932 24.4131 22.9453C24.7479 22.78 24.9745 22.7146 25.1826 22.7168ZM31.5205 22.7168C31.7188 22.7181 31.9373 22.782 32.2715 22.9434C33.7923 23.678 33.2604 26.0088 31.5254 26.0088C29.7996 26.0084 29.2591 23.6929 30.7998 22.9316C31.1151 22.7759 31.3239 22.7156 31.5205 22.7168ZM37.8682 22.7178C38.0702 22.7157 38.2901 22.7788 38.6309 22.9434C40.1515 23.6781 39.6197 26.0088 37.8848 26.0088C36.1586 26.0088 35.6101 23.7292 37.1133 22.96C37.4488 22.7883 37.6662 22.7199 37.8682 22.7178Z" fill="white" stroke="#1F2937" stroke-width="0.5"/>
</svg>
