<svg width="18" height="17" viewBox="0 0 18 17" fill="none" xmlns="http://www.w3.org/2000/svg">
<path d="M9.09082 0.5C11.8015 0.500083 13.999 2.69754 13.999 5.4082C13.9988 6.92571 13.3086 8.28149 12.2266 9.18164C12.9659 9.49173 13.6613 9.9114 14.2861 10.4326C15.6528 11.5727 16.6034 13.1287 16.998 14.8574L17.0703 15.2061V15.208L17.3301 16.6455L16.4541 16.8027L15.5781 16.9609L15.3184 15.5234V15.5225C15.0517 14.0658 14.2828 12.7485 13.1455 11.7998C12.0787 10.91 10.7509 10.3969 9.36816 10.3359L9.09082 10.3301C7.61077 10.33 6.17674 10.8482 5.03906 11.7949C3.90261 12.7408 3.13173 14.055 2.8623 15.5088L2.86328 15.5098L2.60352 16.9473L0.851562 16.6309L1.11133 15.1934V15.1904L1.18359 14.8428C1.58093 13.1167 2.53404 11.564 3.90039 10.4268C4.52345 9.90827 5.21654 9.49052 5.95312 9.18164C4.87165 8.28148 4.18287 6.92521 4.18262 5.4082C4.18262 2.69763 6.3803 0.500231 9.09082 0.5ZM9.09082 2.2793C7.36337 2.27953 5.96289 3.6807 5.96289 5.4082C5.96334 7.13533 7.36365 8.5359 9.09082 8.53613C10.8181 8.53605 12.2183 7.13542 12.2188 5.4082C12.2188 3.68061 10.8184 2.27938 9.09082 2.2793Z" fill="white"/>
</svg>
