<svg width="19" height="24" viewBox="0 0 19 24" fill="none" xmlns="http://www.w3.org/2000/svg">
<path fill-rule="evenodd" clip-rule="evenodd" d="M8.71662 0.0160857C7.72314 0.208607 7.47713 0.28785 6.88469 0.606042C4.94628 1.64714 3.76785 3.78515 3.87744 6.06207C3.96406 7.86185 4.72105 9.33033 6.15724 10.4848C6.632 10.8664 7.34203 11.218 7.98219 11.3885C8.99753 11.659 10.319 11.5912 11.2532 11.2208C12.7082 10.6439 13.9477 9.34845 14.5002 7.82748C15.0581 6.29135 14.9117 4.3122 14.1372 2.92174C13.3285 1.47006 12.0195 0.457274 10.4971 0.105469C10.1744 0.0309202 8.95569 -0.030249 8.71662 0.0160857ZM4.44357 11.6356C1.86439 11.9468 0.325868 14.3769 0.033431 18.6013C-0.0342701 19.5788 0.00311917 20.5934 0.125079 21.0894C0.472887 22.5039 1.44643 23.4994 2.86344 23.8897L3.26403 24H9.51782H15.7716L16.2026 23.8744C17.5678 23.4766 18.4537 22.5726 18.846 21.1769C19.1266 20.1788 19.0125 17.8719 18.5948 16.0972C18.144 14.1819 17.2404 12.7666 16.0609 12.1283C15.4189 11.7809 14.8485 11.6275 14.147 11.6139C13.7006 11.6052 13.6522 11.6275 12.6336 12.3103C11.8403 12.8421 11.7941 12.8673 11.204 13.0893C10.4889 13.3584 10.0611 13.4291 9.31752 13.4011C8.25126 13.3609 7.47864 13.0706 6.29078 12.264C5.27642 11.5751 5.18949 11.5455 4.44357 11.6356Z" fill="black"/>
</svg>
