<svg width="65" height="65" viewBox="0 0 65 65" fill="none" xmlns="http://www.w3.org/2000/svg">
<circle cx="32.5" cy="32.5" r="32.5" fill="white"/>
<path d="M32.0859 17C36.9879 17 40.9618 20.974 40.9619 25.876C40.9618 28.7853 39.5612 31.3666 37.3984 32.9854C38.9106 33.5653 40.3303 34.3903 41.5928 35.4434C44.094 37.5298 45.8346 40.3772 46.5566 43.541L46.6875 44.1777L46.6885 44.1807L47.1719 46.8584L44.4355 47.3525L43.9521 44.6748V44.6738C43.4444 41.8974 41.9799 39.3861 39.8125 37.5781C37.7797 35.8825 35.2492 34.9052 32.6143 34.7891L32.0859 34.7783C29.2656 34.778 26.5341 35.7653 24.3662 37.5693C22.1984 39.3733 20.7309 41.88 20.2188 44.6533L19.7363 47.3262L18.3682 47.0791L17 46.833L17.4834 44.1543L17.4844 44.1494L17.6162 43.5127C18.3436 40.3541 20.0873 37.5136 22.5879 35.4326C23.8476 34.3843 25.263 33.5624 26.7705 32.9844C24.6091 31.3655 23.2101 28.7842 23.21 25.876C23.2101 20.974 27.184 17.0001 32.0859 17ZM32.0859 19.7793C28.7193 19.7794 25.9904 22.5094 25.9902 25.876C25.9904 29.2425 28.7193 31.9716 32.0859 31.9717C35.4526 31.9717 38.1815 29.2426 38.1816 25.876C38.1815 22.5094 35.4526 19.7793 32.0859 19.7793Z" fill="#1F2937"/>
</svg>
