<svg width="17" height="15" viewBox="0 0 17 15" fill="none" xmlns="http://www.w3.org/2000/svg">
<path opacity="0.7" fill-rule="evenodd" clip-rule="evenodd" d="M4.03584 0.020345C2.96073 0.166973 2.08613 0.608617 1.34982 1.37663C0.326924 2.44357 -0.158189 4.0045 0.045787 5.57241C0.249443 7.13759 1.12087 8.55407 2.93931 10.2756C3.61782 10.918 4.14121 11.3789 5.86182 12.8491C6.66471 13.5352 7.39377 14.1609 7.48193 14.2395C7.82362 14.5443 8.23734 14.6259 8.59484 14.4592C8.75801 14.3831 11.1782 12.3368 12.643 11.0363C13.3623 10.3978 14.3154 9.4481 14.695 8.99156C15.675 7.81323 16.1905 6.78171 16.3353 5.70989C16.3626 5.50771 16.3977 5.31732 16.4134 5.28679C16.4499 5.21538 16.4507 4.42195 16.4142 4.44445C16.3991 4.45378 16.3772 4.35987 16.3657 4.23578C16.2698 3.20752 15.7762 2.1272 15.0616 1.38181C14.6907 0.994959 14.3218 0.716215 13.8804 0.489287C13.1999 0.139451 12.6541 0.0102117 11.8416 0.0064717C11.239 0.00369065 10.9772 0.0436802 10.4632 0.217096C9.73006 0.464482 9.02148 0.966381 8.4662 1.63169C8.33297 1.7913 8.21462 1.92191 8.2032 1.92191C8.19179 1.92191 8.07344 1.7913 7.94021 1.63169C7.25144 0.806455 6.38418 0.272493 5.39825 0.0665679C5.10076 0.00445781 4.34131 -0.0213388 4.03584 0.020345ZM4.03584 0.993488C2.93899 1.1741 2.05561 1.79338 1.49991 2.77125C1.09644 3.48128 0.903686 4.42175 0.984726 5.28484C1.08016 6.30069 1.46836 7.15658 2.312 8.21098C2.64959 8.6329 3.83289 9.81593 4.53272 10.4311C5.28929 11.0962 8.18275 13.5736 8.20282 13.5734C8.22189 13.5733 11.0852 11.1233 11.8608 10.4435C12.5443 9.84438 13.7611 8.62833 14.0947 8.21098C14.9388 7.15479 15.3263 6.30043 15.4217 5.28484C15.6009 3.3764 14.555 1.6401 12.9155 1.12449C12.0776 0.860957 11.2289 0.904814 10.4913 1.24979C9.81998 1.56376 9.31624 2.02839 8.77538 2.8324C8.55961 3.15315 8.33409 3.26276 8.04799 3.18595C7.88071 3.141 7.75563 3.03481 7.62279 2.82486C7.30735 2.32631 6.81086 1.7951 6.40088 1.51748C6.12398 1.32996 5.66637 1.12401 5.35016 1.04451C4.99559 0.955417 4.40613 0.932529 4.03584 0.993488ZM0.00927446 4.87877C0.00927446 5.11612 0.0143074 5.21323 0.0204943 5.09454C0.0266492 4.97585 0.0266492 4.78169 0.0204943 4.663C0.0143074 4.54431 0.00927446 4.64143 0.00927446 4.87877Z" fill="black"/>
</svg>
