<svg width="36" height="32" viewBox="0 0 36 32" fill="none" xmlns="http://www.w3.org/2000/svg">
<path fill-rule="evenodd" clip-rule="evenodd" d="M8.83698 0.0447631C6.48288 0.367375 4.56783 1.33908 2.9556 3.02887C0.71584 5.37634 -0.346375 8.81071 0.100256 12.2604C0.546186 15.7041 2.45428 18.8207 6.43599 22.6084C7.92168 24.0217 9.0677 25.0358 12.8352 28.2707C14.5932 29.7802 16.1896 31.1568 16.3826 31.3298C17.1308 32.0003 18.0367 32.18 18.8195 31.8132C19.1768 31.6458 24.476 27.1434 27.6835 24.2822C29.2584 22.8773 31.3453 20.7877 32.1766 19.7833C34.3223 17.1907 35.4512 14.9211 35.7682 12.5629C35.828 12.1181 35.9049 11.6992 35.9391 11.632C36.0191 11.4749 36.0209 9.72918 35.941 9.77869C35.9078 9.79923 35.86 9.59259 35.8346 9.31956C35.6248 7.0572 34.5439 4.68026 32.9792 3.04027C32.1671 2.18911 31.3593 1.57582 30.3928 1.07653C28.9029 0.306819 27.7078 0.0224679 25.9287 0.014239C24.6091 0.00812017 24.0359 0.0961052 22.9105 0.477655C21.3052 1.02195 19.7537 2.12623 18.5378 3.59005C18.2461 3.94122 17.9869 4.22859 17.9619 4.22859C17.9369 4.22859 17.6778 3.94122 17.3861 3.59005C15.8779 1.77436 13.979 0.59954 11.8201 0.146463C11.1688 0.00980807 9.50584 -0.0469497 8.83698 0.0447631ZM8.83698 2.18588C6.43529 2.58325 4.50101 3.94579 3.28423 6.09731C2.4008 7.65952 1.97873 9.72875 2.15618 11.6277C2.36514 13.8628 3.21517 15.7459 5.06241 18.0658C5.8016 18.9941 8.3926 21.597 9.92496 22.9506C11.5816 24.414 17.9172 29.8646 17.9611 29.8643C18.0029 29.864 24.2723 24.4736 25.9707 22.9778C27.4673 21.6596 30.1317 18.9841 30.8621 18.0658C32.7105 15.742 33.5588 13.8622 33.7677 11.6277C34.1601 7.42876 31.87 3.60855 28.2802 2.4741C26.4453 1.89428 24.587 1.99077 22.972 2.7498C21.5021 3.44059 20.3991 4.46287 19.2148 6.23185C18.7423 6.93756 18.2485 7.17873 17.6221 7.00972C17.2558 6.91084 16.9819 6.6772 16.691 6.21526C16.0004 5.11836 14.9132 3.94959 14.0155 3.33875C13.4092 2.92619 12.4072 2.47304 11.7149 2.29812C10.9385 2.10211 9.64777 2.05175 8.83698 2.18588ZM0.0203076 10.7343C0.0203076 11.2565 0.0313277 11.4702 0.0448748 11.209C0.0583516 10.9479 0.0583516 10.5207 0.0448748 10.2595C0.0313277 9.99841 0.0203076 10.2121 0.0203076 10.7343Z" fill="white"/>
</svg>
