<svg width="28" height="29" viewBox="0 0 28 29" fill="none" xmlns="http://www.w3.org/2000/svg">
<path fill-rule="evenodd" clip-rule="evenodd" d="M0.099546 0.154912C0.154291 0.23892 2.5997 3.78052 5.53385 8.02522C8.468 12.27 10.8687 15.769 10.8687 15.8009C10.8687 15.8328 8.4599 18.6438 5.51581 22.0475C2.57172 25.4513 0.125243 28.2799 0.0792123 28.3333C-0.000111709 28.4255 0.0593812 28.4305 1.22394 28.4305H2.4524L7.19586 22.9517C9.80478 19.9383 11.9645 17.4658 11.9952 17.4572C12.026 17.4487 13.7584 19.9141 15.8452 22.9361L19.6392 28.4305H23.798H27.9567L27.8571 28.2778C27.8024 28.1939 25.2702 24.5272 22.23 20.1297C19.1899 15.7322 16.6922 12.1083 16.6797 12.0766C16.6671 12.045 18.9919 9.32154 21.8458 6.02452L27.0348 0.029983L25.8295 0.0149915L24.6242 0L24.4472 0.181564C24.3499 0.281396 22.3156 2.62434 19.9265 5.38805C17.5374 8.15176 15.5673 10.4176 15.5486 10.4232C15.5298 10.4289 13.8951 8.08641 11.9158 5.21781L8.31706 0.00222096H4.15853H0L0.099546 0.154912ZM3.36457 1.85739C3.36457 1.86994 7.28054 7.44805 12.0668 14.2531L20.769 26.626L22.6576 26.6406C23.8837 26.6501 24.5394 26.636 24.5272 26.6003C24.5168 26.5702 20.5994 20.9862 15.8218 14.1916L7.13525 1.83779L5.24991 1.83612C4.213 1.83524 3.36457 1.84479 3.36457 1.85739Z" fill="#1F2937"/>
</svg>
